<?xml version="1.0" encoding="iso-8859-1"?>
<!-- Generator: Adobe Illustrator 19.0.0, SVG Export Plug-In . SVG Version: 6.00 Build 0)  -->
<svg xmlns="http://www.w3.org/2000/svg" xmlns:xlink="http://www.w3.org/1999/xlink" version="1.1" id="Capa_1" x="0px" y="0px" viewBox="0 0 508.3 508.3" style="enable-background:new 0 0 508.3 508.3;" xml:space="preserve" width="512px" height="512px">
<g>
	<g>
		<path d="M434.3,147.65h-65.5c-40.7,0-73.7,33.1-73.7,73.7v147.5h41v102.4c0,20.3,16.5,36.9,36.9,36.9h57.4    c20.3,0,36.9-16.5,36.9-36.9v-102.4h41v-147.5C508,180.75,474.9,147.65,434.3,147.65z M467,352.45v-106.5h-16.4v225.3    c0,11.3-9.2,20.5-20.5,20.5h-20.5v-99h-16.4v99h-20.5c-11.3,0-20.5-9.2-20.5-20.5v-225.3h-16.4v106.5h-24.6v-131.1    c0-31.6,25.7-57.4,57.4-57.4h65.5c31.6,0,57.4,25.7,57.4,57.4v131.1H467z" fill="#00295a"/>
	</g>
</g>
<g>
	<g>
		<path d="M401.5,0.15c-36.1,0-65.5,29.4-65.5,65.5c-0.1,36.2,29.3,65.6,65.5,65.6c36.1,0,65.5-29.4,65.5-65.5    C467,29.55,437.6,0.15,401.5,0.15z M401.5,114.95c-27.1,0-49.2-22.1-49.2-49.2c0-27.1,22.1-49.2,49.2-49.2    c27.1,0,49.2,22.1,49.2,49.2C450.7,92.85,428.6,114.95,401.5,114.95z" fill="#00295a"/>
	</g>
</g>
<g>
	<g>
		<path d="M0,360.65v147.5h81.9v-147.5H0z M65.6,491.75H16.4v-114.7h49.2V491.75z" fill="#00295a"/>
	</g>
</g>
<g>
	<g>
		<path d="M98.3,278.75v229.4h81.9v-229.4H98.3z M163.9,491.75h-49.2v-196.6h49.2V491.75z" fill="#00295a"/>
	</g>
</g>
<g>
	<g>
		<path d="M196.6,196.75v311.4h81.9v-311.4H196.6z M262.2,491.75H213v-278.6h49.2V491.75z" fill="#00295a"/>
	</g>
</g>
<g>
	<g>
		<polygon points="114.5,66.55 137.7,89.65 33.4,193.95 45,205.55 160.9,89.65 149.3,78.15 203.4,70.35 195.7,124.45 184.1,112.85     68.2,228.75 79.8,240.35 184.1,136.05 207.2,159.25 222.7,51.05   " fill="#00295a"/>
	</g>
</g>
<g>
</g>
<g>
</g>
<g>
</g>
<g>
</g>
<g>
</g>
<g>
</g>
<g>
</g>
<g>
</g>
<g>
</g>
<g>
</g>
<g>
</g>
<g>
</g>
<g>
</g>
<g>
</g>
<g>
</g>
</svg>
