<?xml version="1.0" encoding="UTF-8"?>
<svg width="522px" height="109px" viewBox="0 0 522 109" version="1.1" xmlns="http://www.w3.org/2000/svg" xmlns:xlink="http://www.w3.org/1999/xlink">
    <!-- Generator: Sketch 47 (45396) - http://www.bohemiancoding.com/sketch -->
    <title>tangelo-logo</title>
    <desc>Created with Sketch.</desc>
    <defs></defs>
    <g id="Desktop" stroke="none" stroke-width="1" fill="none" fill-rule="evenodd">
        <g id="01.01home" transform="translate(-139.000000, -5101.000000)" fill-rule="nonzero">
            <g id="Group-5" transform="translate(-9.000000, 5101.000000)">
                <g id="Group-10">
                    <g id="tangelo-logo" transform="translate(148.000000, 0.000000)">
                        <polygon id="Shape" fill="#555C71" points="130.782447 93 122.26576 93 122.26576 52.8154463 107 52.8154463 107 45 146 45 146 52.8154463 130.73424 52.8154463"></polygon>
                        <path d="M211,93 L201.913887,93 L196.949647,81.4921136 L173.82136,81.4921136 L168.791693,93 L160,93 L181.50898,45 L189.44195,45 L211,93 Z M185.35279,54.9936909 L176.961835,74.0645858 L193.800994,74.0645858 L185.35279,54.9936909 Z" id="Shape" fill="#555C71"></path>
                        <polygon id="Shape" fill="#555C71" points="263.669288 45 272 45 272 93 264.950317 93 238.362939 58.8495486 238.362939 93 230 93 230 45 237.847305 45 263.629004 78.1875627"></polygon>
                        <path d="M319.932976,95 C304.876676,95 295,84.2239289 295,70.0606306 C295,56.4551334 305.310992,45 319.812332,45 C328.193029,45 333.348525,47.3443816 338.310992,51.5642684 L332.946381,57.9911075 C329.214477,54.7978981 325.571046,52.7607114 319.450402,52.7607114 C310.603217,52.7607114 303.847185,60.4971706 303.847185,69.890865 C303.847185,79.9070331 310.378016,87.2312045 320.206434,87.2312045 C324.365892,87.277463 328.432559,85.9951692 331.820375,83.5691188 L331.820375,74.5877122 L319.514745,74.5877122 L319.514745,67.1665319 L340,67.1665319 L340,87.4737268 C334.427574,92.3237857 327.304268,94.9954298 319.932976,95 Z" id="Shape" fill="#555C71"></path>
                        <polygon id="Shape" fill="#555C71" points="395.673515 52.5426279 369.987494 52.5426279 369.987494 65.0200602 392.76552 65.0200602 392.76552 72.5626881 369.987494 72.5626881 369.987494 85.4573721 396 85.4573721 396 93 362 93 362 45 395.673515 45"></polygon>
                        <polygon id="Shape" fill="#555C71" points="421.029524 45 428.786905 45 428.786905 85.3209629 452 85.3209629 452 93 421 93"></polygon>
                        <path d="M496.430695,95 C481.452758,95 471,83.7388844 471,70.0606306 C471,56.3823767 481.59952,45 496.569305,45 C511.539089,45 522,56.2611156 522,69.9393694 C522,83.6176233 511.408633,95 496.430695,95 Z M496.430695,52.7930477 C486.744365,52.7930477 479.985132,60.4648343 479.985132,69.9232013 C479.985132,79.3815683 486.882974,87.1988682 496.569305,87.1988682 C506.255635,87.1988682 512.974101,79.5270816 512.974101,70.0606306 C512.974101,60.5941795 506.108873,52.7607114 496.430695,52.7607114 L496.430695,52.7930477 Z" id="Shape" fill="#555C71"></path>
                        <path d="M39.6937483,28 L36,28 L36,24.3062517 C36.0169942,10.8893251 46.8893251,0.0169942277 60.3062517,0 L64,0 L64,3.69374828 C63.9830058,17.1106749 53.1106749,27.9830058 39.6937483,28 Z M56.1575324,7.84246764 C50.0915754,9.37821994 45.3550858,14.1147095 43.8193335,20.1806665 C49.8852905,18.6449142 54.6217801,13.9084246 56.1575324,7.84246764 Z" id="Shape" fill="#EF5237"></path>
                        <path d="M37.9960021,109 C17.0205237,108.978243 0.0220353984,92.1945902 0,71.4842105 C0,55.8447368 7.07627564,45.4315789 19.9175171,42.2736842 C22.8989563,41.4968335 25.6611796,40.0575683 27.9932667,38.0657895 C30.4959495,36.1552632 33.3344555,34 37.9960021,34 C42.6575487,34 45.5200421,36.1236842 48.0067333,38.0342105 C50.3388204,40.0259894 53.1010437,41.4652545 56.0824829,42.2421053 C68.9237244,45.4552632 76,55.8289474 76,71.4526316 C75.9867865,92.1748191 58.9834269,108.973878 37.9960021,109 L37.9960021,109 Z M37.9960021,41.4684211 C36.00505,41.4684211 34.9176223,42.2578947 32.6388217,43.9710526 C29.4902329,46.5972072 25.7809801,48.4864198 21.7885324,49.4973684 C12.3774855,51.8657895 7.6039979,59.2473684 7.6039979,71.4684211 C7.6039979,88.0369635 21.2073818,101.468421 37.9880063,101.468421 C54.7686308,101.468421 68.3720147,88.0369635 68.3720147,71.4684211 C68.3720147,59.2315789 63.5745397,51.8578947 54.1874803,49.4973684 C50.1951313,48.4861634 46.485934,46.5969791 43.337191,43.9710526 C41.0823777,42.2342105 39.9869542,41.4684211 37.9960021,41.4684211 Z" id="Shape" fill="#EF5237"></path>
                    </g>
                </g>
            </g>
        </g>
    </g>
</svg>