<?xml version="1.0" encoding="utf-8"?>
<!-- Generator: Adobe Illustrator 18.0.0, SVG Export Plug-In . SVG Version: 6.00 Build 0)  -->
<!DOCTYPE svg PUBLIC "-//W3C//DTD SVG 1.1//EN" "http://www.w3.org/Graphics/SVG/1.1/DTD/svg11.dtd">
<svg version="1.1" id="图层_1" xmlns="http://www.w3.org/2000/svg" xmlns:xlink="http://www.w3.org/1999/xlink" x="0px" y="0px"
	 viewBox="-111 185.4 76 109" enable-background="new -111 185.4 76 109" xml:space="preserve">
<title>tangelo-logo</title>
<desc>Created with Sketch.</desc>
<g id="Desktop">
	<g id="_x30_1.01home" transform="translate(-139.000000, -5101.000000)">
		<g id="Group-5" transform="translate(-9.000000, 5101.000000)">
			<g id="tangelo-logo" transform="translate(148.000000, 0.000000)">
				<path id="Shape_7_" fill="#EF5237" d="M-71.3,213.4H-75v-3.7c0-13.4,10.9-24.3,24.3-24.3h3.7v3.7
					C-47,202.5-57.9,213.4-71.3,213.4z M-54.8,193.3c-6.1,1.5-10.8,6.3-12.3,12.3C-61.1,204.1-56.4,199.3-54.8,193.3z"/>
				<path id="Shape_8_" fill="#EF5237" d="M-73,294.4c-21,0-38-16.8-38-37.5c0-15.6,7.1-26.1,19.9-29.2c3-0.8,5.7-2.2,8.1-4.2
					c2.5-1.9,5.3-4.1,10-4.1s7.5,2.1,10,4c2.3,2,5.1,3.4,8.1,4.2c12.8,3.2,19.9,13.6,19.9,29.2C-35,277.6-52,294.4-73,294.4
					L-73,294.4z M-73,226.9c-2,0-3.1,0.8-5.4,2.5c-3.1,2.6-6.9,4.5-10.9,5.5c-9.4,2.4-14.2,9.8-14.2,22c0,16.6,13.6,30,30.4,30
					s30.4-13.4,30.4-30c0-12.2-4.8-19.6-14.2-22c-4-1-7.7-2.9-10.9-5.5C-69.9,227.6-71,226.9-73,226.9z"/>
			</g>
		</g>
	</g>
</g>
</svg>
