<?xml version="1.0" encoding="UTF-8"?>
<svg width="288px" height="232px" viewBox="0 0 288 232" version="1.1" xmlns="http://www.w3.org/2000/svg" xmlns:xlink="http://www.w3.org/1999/xlink">
    <!-- Generator: Sketch 47 (45396) - http://www.bohemiancoding.com/sketch -->
    <title>Group 4</title>
    <desc>Created with Sketch.</desc>
    <defs></defs>
    <g id="Page-1" stroke="none" stroke-width="1" fill="none" fill-rule="evenodd">
        <g id="StyleGuide" transform="translate(-171.000000, -3985.000000)">
            <g id="Group-4" transform="translate(171.000000, 3984.000000)">
                <rect id="Rectangle-4" x="0" y="0" width="289" height="233"></rect>
                <g id="Marketing" transform="translate(0.000000, 1.000000)">
                    <g id="Capa_1">
                        <path d="M72.2408927,142.758558 C72.2408927,142.656809 72.3233765,142.574326 72.4251254,142.574326 L102.595939,142.574326 C102.697688,142.574326 102.780172,142.656809 102.780172,142.758558 L102.780172,195.167302 C102.780172,200.350508 98.5783508,204.552326 93.3951416,204.552326 C88.2795338,202.356654 84.7772106,197.535764 84.2702043,191.992 L84.2702043,182.184326 L84.2702043,173.395349 L72.2408927,142.758558" id="Shape" fill="#ED938E"></path>
                        <path d="M84.2268554,179.21493 L84.2268554,182.173488 L84.2268554,191.981163 C84.6704766,197.147117 87.7470735,201.718993 92.3656059,204.075488 C92.5433786,203.691359 92.9285224,203.445883 93.3517927,203.44693 C97.3967978,203.446616 100.852684,200.530857 101.533892,196.543628 L84.1943438,179.204093" id="Shape" fill="#EC7F7B"></path>
                        <path d="M73.3246145,142.758558 L72.4251254,142.758558 L72.4251254,143.658047 C72.9218995,143.658047 73.3246145,143.255332 73.3246145,142.758558 L72.4251254,142.758558 L72.4251254,143.658047 L102.595939,143.658047 L102.595939,142.758558 L101.69645,142.758558 C101.69645,143.255332 102.099165,143.658047 102.595939,143.658047 L102.595939,142.758558 L101.69645,142.758558 L101.69645,195.167302 C101.69645,199.751985 97.9798278,203.468605 93.3951416,203.468605 C92.7966186,203.468605 92.3114198,203.953803 92.3114198,204.552326 C92.3114198,205.150848 92.7966186,205.636047 93.3951416,205.636047 C99.1768738,205.636047 103.863894,200.94903 103.863894,195.167302 L103.863894,142.758558 C103.863894,142.058287 103.296211,141.490605 102.595939,141.490605 L72.4251254,141.490605 C71.7248535,141.490605 71.157171,142.058287 71.157171,142.758558 C71.157171,143.357081 71.6423697,143.842279 72.2408927,143.842279 C72.8394157,143.842279 73.3246145,143.357081 73.3246145,142.758558 L73.3246145,142.758558" id="Shape" fill="#EF4E3F"></path>
                        <path d="M229.283013,177.730233 L58.9869756,177.730233 C53.9782264,177.733108 49.1736385,175.745407 45.6309013,172.204705 C42.088164,168.664003 40.0977044,163.86056 40.0977052,158.851814 L40.0977052,41.6365581 C40.0977044,36.627812 42.088164,31.8243693 45.6309013,28.2836673 C49.1736385,24.7429654 53.9782264,22.7552643 58.9869756,22.7581395 L229.283013,22.7581395 C234.291763,22.7552643 239.096351,24.7429654 242.639088,28.2836673 C246.181825,31.8243693 248.172285,36.627812 248.172284,41.6365581 L248.172284,158.851814 C248.172285,163.86056 246.181825,168.664003 242.639088,172.204705 C239.096351,175.745407 234.291763,177.733108 229.283013,177.730233" id="Shape" fill="#FFFFFF"></path>
                        <path d="M229.857386,23.8418605 C235.020372,27.4112346 238.099517,33.2899652 238.093671,39.5666512 L238.093671,161.105953 C238.13028,164.857257 235.146707,167.942211 231.396271,168.03093 L44.9961276,168.03093 L43.7606848,168.03093 C46.9741799,173.402556 52.7708588,176.693783 59.0303244,176.700698 L229.283013,176.700698 C234.013745,176.703601 238.550919,174.822643 241.891983,171.473447 C245.233047,168.124252 247.102968,163.582521 247.088562,158.851814 L247.088562,41.6365581 C247.100682,37.9537132 245.964225,34.3587229 243.837397,31.3520465 C243.33166,30.6801395 242.797024,30.029907 242.233489,29.4013488 L241.886698,29.0437209 C238.68787,25.8379217 234.384133,23.9768478 229.857386,23.8418605" id="Shape" fill="#B1D9E9"></path>
                        <path d="M229.283013,177.730233 L229.283013,176.646512 L58.9869756,176.646512 C49.1574733,176.646513 41.1874097,168.681307 41.181427,158.851814 L41.181427,41.6365581 C41.1814261,36.9152326 43.0577083,32.3874385 46.3972082,29.0499737 C49.7367082,25.7125088 54.2656473,23.8389851 58.9869756,23.8418605 L229.283013,23.8418605 C234.004342,23.8389851 238.533281,25.7125088 241.872781,29.0499737 C245.212281,32.3874385 247.088563,36.9152326 247.088562,41.6365581 L247.088562,158.851814 C247.088563,163.573139 245.212281,168.100934 241.872781,171.438398 C238.533281,174.775863 234.004342,176.649387 229.283013,176.646512 L229.283013,178.813953 C240.309562,178.813955 249.250023,169.878352 249.256006,158.851814 L249.256006,41.6365581 C249.256006,36.3403914 247.151369,31.2613 243.405395,27.517361 C239.65942,23.773422 234.579184,21.6715434 229.283013,21.6744186 L58.9869756,21.6744186 C53.6908055,21.6715434 48.6105687,23.773422 44.8645943,27.517361 C41.1186198,31.2613 39.0139827,36.3403914 39.0139835,41.6365581 L39.0139835,158.851814 C39.0139827,164.147981 41.1186198,169.227072 44.8645943,172.971011 C48.6105687,176.71495 53.6908055,178.816829 58.9869756,178.813953 L229.283013,178.813953 L229.283013,177.730233" id="Shape" fill="#53AACE"></path>
                        <g id="Group" transform="translate(111.623342, 177.730233)">
                            <path d="M67.1907493,1.08372093 L2.49256006,1.08372093 L69.3581928,35.7627907 L69.3581928,53.1023256 L98.4019361,53.1023256 C100.31721,53.1023256 101.869846,51.5496907 101.869846,49.6344186 L101.869846,41.1813953 C101.869846,38.1887826 99.4438519,35.7627907 96.4512369,35.7627907 C80.2911158,35.7627907 67.1907493,22.6624342 67.1907493,6.50232558 L67.1907493,1.08372093" id="Shape" fill="#A9D4E6"></path>
                            <polyline id="Shape" fill="#53AACE" points="67.1907493 0 0.41181427 0 2.50339727 1.08372093 67.1907493 1.08372093 67.1907493 0"></polyline>
                        </g>
                        <path d="M178.814091,184.232558 L179.897813,184.232558 L179.897813,176.646512 L108.372176,176.646512 L108.372176,184.232558 C108.372176,199.794144 95.7570086,212.409302 80.1954105,212.409302 L80.1954105,212.409302 C76.6042725,212.409302 73.6930799,215.320493 73.6930799,218.911628 L73.6930799,227.418837 C73.6930799,229.932632 75.7309147,231.970465 78.2447113,231.970465 L210.025278,231.970465 C212.539074,231.970465 214.576909,229.932632 214.576909,227.418837 L214.576909,218.911628 C214.576909,215.320493 211.665717,212.409302 208.074579,212.409302 L208.074579,212.409302 C192.51298,212.409302 179.897813,199.794144 179.897813,184.232558 L177.730369,184.232558 C177.730369,200.991189 191.315934,214.576744 208.074579,214.576744 L208.074579,214.576744 C210.468671,214.576744 212.409466,216.517538 212.409466,218.911628 L212.409466,227.418837 C212.403532,228.733121 211.339563,229.79709 210.025278,229.803023 L78.2447113,229.803023 C76.9304263,229.79709 75.8664571,228.733121 75.8605234,227.418837 L75.8605234,218.911628 C75.8605234,216.517538 77.8013185,214.576744 80.1954105,214.576744 L80.1954105,214.576744 C96.9540546,214.576744 110.53962,200.991189 110.53962,184.232558 L110.53962,178.813953 L177.730369,178.813953 L177.730369,184.232558 L178.814091,184.232558 L178.814091,184.232558 Z" id="Shape" fill="#53AACE"></path>
                        <path d="M158.223377,213.568884 L172.051667,213.493023" id="Shape" fill="#FFFFFF"></path>
                        <polyline id="Shape" fill="#53AACE" points="158.234215 214.652605 172.051667 214.576744 172.04083 212.409302 158.223377 212.485163"></polyline>
                        <path d="M77.7570365,214.056558 L149.651138,213.644744" id="Shape" fill="#FFFFFF"></path>
                        <polyline id="Shape" fill="#53AACE" points="77.7678737 215.140279 149.651138 214.728465 149.640301 212.561023 77.7570365 212.972837"></polyline>
                        <polyline id="Shape" fill="#53AACE" points="41.181427 231.786233 265.511832 231.786233 265.511832 229.618791 41.181427 229.618791"></polyline>
                        <polyline id="Shape" fill="#53AACE" points="22.8882036 231.786233 32.6091879 231.786233 32.6091879 229.618791 22.8882036 229.618791"></polyline>
                        <path d="M229.293851,29.2604651 L229.293851,28.4476744 L58.9761384,28.4476744 C51.6921134,28.4476744 45.7872445,34.3525388 45.7872445,41.6365581 L45.7872445,140.721163 C45.7872445,143.049415 47.6746677,144.936837 50.0029222,144.936837 L238.267067,144.936837 C240.595321,144.936837 242.482745,143.049415 242.482745,140.721163 L242.482745,41.6365581 C242.482745,34.3525388 236.577876,28.4476744 229.293851,28.4476744 L229.293851,30.0732558 C235.680091,30.0732558 240.857162,35.2503226 240.857162,41.6365581 L240.857162,140.721163 C240.857162,142.151632 239.697537,143.311256 238.267067,143.311256 L50.0029222,143.311256 C48.5724522,143.311256 47.4128271,142.151632 47.4128271,140.721163 L47.4128271,41.6365581 C47.4188017,35.252799 52.5923743,30.0792303 58.9761384,30.0732558 L229.293851,30.0732558 L229.293851,29.2604651 L229.293851,29.2604651 Z" id="Shape" fill="#53AACE"></path>
                        <ellipse id="Oval" fill="#FFFFFF" cx="143.874901" cy="160.596605" rx="4.69251523" ry="4.69251163"></ellipse>
                        <path d="M148.567417,160.596605 L147.483695,160.596605 C147.483695,162.589685 145.867983,164.205395 143.874901,164.205395 C141.88182,164.205395 140.266108,162.589685 140.266108,160.596605 C140.266108,158.603525 141.88182,156.987814 143.874901,156.987814 C145.865513,156.993765 147.477744,158.605995 147.483695,160.596605 L149.651138,160.596605 C149.651138,157.406479 147.065029,154.820372 143.874901,154.820372 C140.684774,154.820372 138.098664,157.406479 138.098664,160.596605 C138.098664,163.78673 140.684774,166.372837 143.874901,166.372837 C145.406855,166.372837 146.876063,165.764272 147.959318,164.681018 C149.042572,163.597764 149.651138,162.128557 149.651138,160.596605 L148.567417,160.596605 L148.567417,160.596605 Z" id="Shape" fill="#53AACE"></path>
                        <path d="M242.38521,230.496605 L209.331696,230.496605 C208.569404,230.495597 207.929854,229.921403 207.846997,229.163628 L201.008713,165.169907 L250.339727,165.169907 L243.90242,229.109442 C243.84501,229.901227 243.178957,230.510189 242.38521,230.496605 L242.38521,230.496605 Z" id="Shape" fill="#FFFFFF"></path>
                        <path d="M240.683766,165.245767 L237.172508,229.185302 C237.257775,229.769969 236.91713,230.333168 236.359717,230.529116 L243.945769,230.529116 C244.711789,230.527517 245.352757,229.947371 245.430468,229.185302 L251.867775,165.245767 L240.683766,165.245767 L240.683766,165.245767 Z" id="Shape" fill="#ED938E"></path>
                        <path d="M242.38521,230.496605 L242.38521,229.412884 L209.331696,229.412884 C209.120164,229.414059 208.942145,229.254779 208.919882,229.044419 L202.200807,166.242791 L249.104284,166.242791 L242.753675,229.044419 C242.731411,229.254779 242.553393,229.414059 242.341861,229.412884 L242.341861,231.580326 C243.666516,231.581512 244.776703,230.579065 244.910281,229.261163 L251.466798,164.086186 L199.794944,164.086186 L206.763275,229.282837 C206.902026,230.596445 208.010781,231.59292 209.331696,231.591163 L242.38521,231.591163 L242.38521,230.507442 L242.38521,230.496605 Z" id="Shape" fill="#EF4E3F"></path>
                        <polygon id="Shape" fill="#FFFFFF" points="245.907305 215.281163 205.73374 215.281163 205.647042 215.205302 201.453039 181.339023 201.539736 181.241488 249.852053 181.241488 249.93875 181.339023 245.994003 215.205302"></polygon>
                        <polygon id="Shape" fill="#EA8E8C" points="250.773216 181.46907 241.594093 181.46907 241.648279 181.566605 239.199068 215.432884 239.144881 215.508744 246.817632 215.508744 246.904329 215.432884 250.859914 181.566605"></polygon>
                        <path d="M250.664844,180.515395 L250.339727,180.157767 L201.052062,180.157767 L200.640247,180.623767 L200.315131,180.992233 L204.650018,215.747163 L205.040158,216.093953 L205.3436,216.364884 L246.340794,216.364884 L246.644236,216.093953 L246.730934,216.018093 L247.034376,215.747163 L251.076658,180.981395 L250.664844,180.515395 Z M245.018653,214.186605 L206.611554,214.186605 L202.65597,182.325209 L248.724982,182.325209 L245.018653,214.186605 Z" id="Shape" fill="#EF5137"></path>
                        <path d="M250.025448,163.110837 L248.399865,152.566233 C248.338835,152.014689 247.871044,151.598355 247.316144,151.601721 L204.032296,151.601721 C203.477396,151.598355 203.009605,152.014689 202.948575,152.566233 L201.322992,163.110837 L198.72206,163.110837 C198.123537,163.110837 197.638338,163.596036 197.638338,164.194558 L197.638338,167.68414 C197.638338,168.282662 198.123537,168.76786 198.72206,168.76786 L252.908148,168.76786 C253.506671,168.76786 253.99187,168.282662 253.99187,167.68414 L253.99187,164.194558 C253.99187,163.596036 253.506671,163.110837 252.908148,163.110837 L250.079634,163.110837 L250.025448,163.110837 Z" id="Shape" fill="#FFFFFF"></path>
                        <path d="M252.767264,163.110837 L249.93875,163.110837 L248.313168,152.566233 C248.252138,152.014689 247.784346,151.598355 247.229446,151.601721 L240.727115,151.601721 C241.19189,151.682724 241.525247,152.09479 241.507395,152.566233 L242.591117,163.110837 L244.552653,163.110837 C245.05344,163.218549 245.393778,163.684766 245.34377,164.194558 L245.34377,167.68414 C245.393778,168.193931 245.05344,168.660148 244.552653,168.76786 L252.788938,168.76786 C253.387461,168.76786 253.87266,168.282662 253.87266,167.68414 L253.87266,164.194558 C253.872718,163.903342 253.755571,163.624357 253.547621,163.420486 C253.339672,163.216614 253.058422,163.105013 252.767264,163.110837 L252.767264,163.110837 Z" id="Shape" fill="#ED938E"></path>
                        <path d="M252.853962,162.027116 L250.957449,162.027116 L249.47275,152.403674 C249.325436,151.322111 248.396811,150.518851 247.305306,150.528837 L204.032296,150.528837 C202.940792,150.518851 202.012166,151.322111 201.864853,152.403674 L200.380154,162.027116 L198.711223,162.027116 C197.514176,162.027116 196.543779,162.997513 196.543779,164.194558 L196.543779,167.68414 C196.543779,168.881185 197.514176,169.851581 198.711223,169.851581 L252.897311,169.851581 C254.094357,169.851581 255.064754,168.881185 255.064754,167.68414 L255.064754,164.194558 C255.064871,163.612127 254.830575,163.054157 254.414676,162.646413 C253.998777,162.23867 253.436277,162.015468 252.853962,162.027116 L252.853962,162.027116 Z M252.853962,167.727488 L252.853962,167.727488 L198.667874,167.727488 L198.667874,167.727488 L198.667874,164.237907 L198.667874,164.237907 L202.189969,164.237907 L203.956436,152.77214 L203.956436,152.77214 L247.207771,152.77214 L247.207771,152.77214 L248.974238,164.237907 L252.723915,164.237907 L252.723915,164.237907 L252.723915,167.727488 L252.853962,167.727488 Z" id="Shape" fill="#EF4E3F"></path>
                        <path d="M233.314458,162.027116 L200.867829,162.027116 C200.269306,162.027116 199.784107,162.512315 199.784107,163.110837 C199.784107,163.70936 200.269306,164.194558 200.867829,164.194558 L233.314458,164.194558 C233.912981,164.194558 234.39818,163.70936 234.39818,163.110837 C234.39818,162.512315 233.912981,162.027116 233.314458,162.027116" id="Shape" fill="#EF4E3F"></path>
                        <path d="M244.48763,162.027116 L238.873951,162.027116 C238.275428,162.027116 237.790229,162.512315 237.790229,163.110837 C237.790229,163.70936 238.275428,164.194558 238.873951,164.194558 L244.48763,164.194558 C245.086153,164.194558 245.571352,163.70936 245.571352,163.110837 C245.571352,162.512315 245.086153,162.027116 244.48763,162.027116" id="Shape" fill="#EF4E3F"></path>
                        <path d="M224.536312,197.096326 C220.992542,200.640093 220.331472,205.766093 217.838912,203.25186 C215.346352,200.737628 216.213329,195.871721 219.757099,192.327953 C223.300869,188.784186 228.199292,187.917209 230.681015,190.409767 C233.162737,192.902326 228.080082,193.552558 224.536312,197.096326 L224.536312,197.096326 Z" id="Shape" fill="#EF5137"></path>
                        <path d="M226.855477,199.404651 C223.311707,202.948419 218.185703,203.609488 220.699937,206.102047 C223.214172,208.594605 228.080082,207.727628 231.623852,204.18386 C235.167623,200.640093 236.0346,195.741674 233.54204,193.259953 C231.04948,190.778233 230.399247,195.871721 226.855477,199.404651 L226.855477,199.404651 Z" id="Shape" fill="#EF5137"></path>
                        <rect id="Rectangle-path" fill="#AED8E5" x="57.0579508" y="40.0976744" width="173.167901" height="17.3395349"></rect>
                        <path d="M108.372176,73.6930233 L108.372176,127.87907 L231.916457,127.87907 L231.916457,73.6930233 L108.372176,73.6930233 L108.372176,73.6930233 Z M110.53962,75.8604651 L229.749014,75.8604651 L229.749014,125.711628 L110.53962,125.711628 L110.53962,75.8604651 L110.53962,75.8604651 Z" id="Shape" fill="#AED8E5"></path>
                        <path d="M56.3535317,73.6930233 L56.3535317,127.87907 L93.2000716,127.87907 L93.2000716,73.6930233 L56.3535317,73.6930233 L56.3535317,73.6930233 Z M58.5209752,75.8604651 L91.0326281,75.8604651 L91.0326281,125.711628 L58.5209752,125.711628 L58.5209752,75.8604651 L58.5209752,75.8604651 Z" id="Shape" fill="#AED8E5"></path>
                        <rect id="Rectangle-path" fill="#AED8E5" x="178.814091" y="83.2947907" width="43.0345912" height="8.82148837"></rect>
                        <rect id="Rectangle-path" fill="#AED8E5" x="178.814091" y="97.3831628" width="4.56246862" height="4.56246512"></rect>
                        <rect id="Rectangle-path" fill="#AED8E5" x="186.400143" y="97.3831628" width="35.4485389" height="4.56246512"></rect>
                        <rect id="Rectangle-path" fill="#AED8E5" x="178.814091" y="106.085442" width="4.56246862" height="4.56246512"></rect>
                        <rect id="Rectangle-path" fill="#AED8E5" x="186.400143" y="106.085442" width="35.4485389" height="4.56246512"></rect>
                        <rect id="Rectangle-path" fill="#AED8E5" x="178.814091" y="114.484279" width="4.56246862" height="4.56246512"></rect>
                        <rect id="Rectangle-path" fill="#AED8E5" x="186.400143" y="114.484279" width="35.4485389" height="4.56246512"></rect>
                        <rect id="Rectangle-path" fill="#AED8E5" x="57.1338114" y="74.7767442" width="34.6790964" height="9.95939535"></rect>
                        <rect id="Rectangle-path" fill="#AED8E5" x="62.2598153" y="91.2384651" width="24.4162513" height="3.6087907"></rect>
                        <rect id="Rectangle-path" fill="#AED8E5" x="62.2598153" y="99.0954419" width="24.4162513" height="3.6087907"></rect>
                        <rect id="Rectangle-path" fill="#AED8E5" x="62.2598153" y="106.952419" width="24.4162513" height="3.6087907"></rect>
                        <rect id="Rectangle-path" fill="#AED8E5" x="62.2598153" y="114.809395" width="24.4162513" height="3.6087907"></rect>
                        <path d="M93.7744442,203.576977 C88.6456063,201.430885 85.3080209,196.413827 85.3105772,190.854093 L85.3105772,113.660651 C85.3105772,111.266561 83.3697822,109.325767 80.9756901,109.325767 L10.1544729,109.325767 C7.76038091,109.325767 5.81958587,111.266561 5.81958587,113.660651 L5.81958587,192.447163 C5.81958587,199.743153 11.7341588,205.657721 19.0301542,205.657721 L93.3734671,205.657721 C93.8840962,205.646801 94.3177916,205.280835 94.4144384,204.779317 C94.5110851,204.277799 94.2444471,203.776873 93.7744442,203.576977 L93.7744442,203.576977 Z M11.205683,200.260791 C9.12328827,198.194055 7.95283172,195.38106 7.95451774,192.447163 L7.95451774,113.660651 C7.95451774,112.463606 8.92491526,111.493209 10.1219613,111.493209 L80.9648529,111.493209 C82.1618989,111.493209 83.1322965,112.463606 83.1322965,113.660651 L83.1322965,190.854093 C83.1344165,195.805296 85.4369625,200.474455 89.3636966,203.490279 L19.0084797,203.490279 C16.0814607,203.494814 13.2733398,202.332565 11.205683,200.260791 L11.205683,200.260791 Z" id="Shape" fill="#EF4E3F"></path>
                        <rect id="Rectangle-path" fill="#EF4E3F" x="14.7277788" y="121.225023" width="60.0490229" height="3.39204651"></rect>
                        <rect id="Rectangle-path" fill="#EF4E3F" x="14.7277788" y="130.967674" width="60.0490229" height="3.39204651"></rect>
                        <rect id="Rectangle-path" fill="#EF4E3F" x="14.7277788" y="140.721163" width="60.0490229" height="3.39204651"></rect>
                        <rect id="Rectangle-path" fill="#EF4E3F" x="14.7277788" y="150.474651" width="60.0490229" height="3.39204651"></rect>
                        <rect id="Rectangle-path" fill="#EF4E3F" x="14.7277788" y="160.22814" width="27.53737" height="3.39204651"></rect>
                        <rect id="Rectangle-path" fill="#EF4E3F" x="14.7277788" y="169.970791" width="27.53737" height="3.39204651"></rect>
                        <rect id="Rectangle-path" fill="#EF4E3F" x="14.7277788" y="179.724279" width="27.53737" height="3.39204651"></rect>
                        <rect id="Rectangle-path" fill="#EF4E3F" x="14.7277788" y="189.477767" width="27.53737" height="3.39204651"></rect>
                        <path d="M61.4578612,177.437628 L65.9769809,165.104884 C60.2556526,163.012501 53.8464855,165.128717 50.4959485,170.216499 C47.1454114,175.304282 47.7329754,182.028157 51.9151809,186.457693 C56.0973864,190.88723 62.7764604,191.859735 68.0481605,188.806731 C73.3198607,185.753727 75.8004364,179.476588 74.0398709,173.644605 L61.4578612,177.437628 Z" id="Shape" fill="#EF4E3F"></path>
                        <path d="M76.2073144,171.477163 C75.008372,167.52323 72.0230311,164.361339 68.1444245,162.937442 L63.6253047,175.270186 L76.2073144,171.477163 Z" id="Shape" fill="#53AACE"></path>
                        <rect id="Rectangle-path" fill="#AED8E5" x="117.139485" y="97.3831628" width="5.41860882" height="21.6744186"></rect>
                        <rect id="Rectangle-path" fill="#AED8E5" x="126.795446" y="83.2947907" width="5.41860882" height="35.7627907"></rect>
                        <rect id="Rectangle-path" fill="#AED8E5" x="136.451407" y="87.6296744" width="5.41860882" height="31.427907"></rect>
                        <rect id="Rectangle-path" fill="#AED8E5" x="146.107368" y="95.2157209" width="5.41860882" height="23.8418605"></rect>
                        <rect id="Rectangle-path" fill="#AED8E5" x="155.763329" y="90.8808372" width="5.41860882" height="28.1767442"></rect>
                        <rect id="Rectangle-path" fill="#AED8E5" x="165.41929" y="108.220372" width="5.41860882" height="10.8372093"></rect>
                        <path d="M269.673324,3.99893023 C269.468805,3.79607229 269.191938,3.68298575 268.903881,3.68465116 L153.368304,3.68465116 C152.769781,3.68465116 152.284582,4.16984955 152.284582,4.76837209 L152.284582,80.7588837 C152.284582,81.3574063 152.769781,81.8426047 153.368304,81.8426047 L268.903881,81.8426047 C269.502404,81.8426047 269.987603,81.3574063 269.987603,80.7588837 L269.987603,4.76837209 C269.989268,4.48031584 269.876182,4.20344878 269.673324,3.99893023 L269.673324,3.99893023 Z M154.452026,5.85209302 L267.820159,5.85209302 L267.820159,79.6751628 L154.452026,79.6751628 L154.452026,5.85209302 L154.452026,5.85209302 Z" id="Shape" fill="#EF4E3F"></path>
                        <polygon id="Shape" fill="#53AACE" points="154.051049 68.4153023 185.771585 43.7389767 209.949417 56.3751628 232.414969 30.344186 254.978056 43.9015349 269.80337 22.9748837 268.004392 21.7069302 254.360335 40.9754884 231.959806 27.5156744 209.429231 53.6225116 185.544003 41.1380465 152.696396 66.6813488 154.051049 68.4153023"></polygon>
                        <path d="M153.368304,74.6900465 L153.368304,73.8664186 C150.347946,73.8710806 147.74519,71.7408669 147.152605,68.77921 C146.560021,65.8175532 148.142766,62.8498831 150.932391,61.6920539 C153.722017,60.5342248 156.941039,61.5089299 158.619808,64.019768 C160.298576,66.5306061 159.969209,69.8777928 157.833238,72.0132558 C156.650797,73.200473 155.043909,73.8674092 153.368304,73.8664186 L153.368304,75.5136744 C157.767448,75.5136744 161.333659,71.9474663 161.333659,67.5483256 C161.333659,63.1491849 157.767448,59.5829767 153.368304,59.5829767 C148.96916,59.5829767 145.402949,63.1491849 145.402949,67.5483256 C145.408919,71.9449912 148.971635,75.5077047 153.368304,75.5136744 L153.368304,74.6900465 L153.368304,74.6900465 Z" id="Shape" fill="#EF4E3F"></path>
                        <path d="M186.324283,48.7024186 L186.324283,47.8787907 C183.298995,47.9095157 180.675036,45.7948041 180.062252,42.8320702 C179.449468,39.8693363 181.01925,36.8872323 183.808509,35.7153336 C186.597767,34.5434348 189.826368,35.5095118 191.513507,38.0208586 C193.200646,40.5322054 192.874443,43.8864189 190.73503,46.0256279 C189.55259,47.2128451 187.945701,47.8797813 186.270097,47.8787907 L186.270097,49.5260465 C189.491782,49.5260465 192.396239,47.5853516 193.629125,44.6089047 C194.862011,41.6324578 194.180529,38.2064193 191.902453,35.9283455 C189.624378,33.6502717 186.198336,32.9687903 183.221887,34.2016749 C180.245438,35.4345596 178.304742,38.3390148 178.304742,41.5606977 C178.310711,45.9573633 181.873428,49.5200768 186.270097,49.5260465 L186.270097,48.7024186 L186.324283,48.7024186 Z" id="Shape" fill="#EF4E3F"></path>
                        <path d="M209.494254,62.1405581 L209.494254,61.306093 C206.473897,61.310755 203.87114,59.1805413 203.278556,56.2188844 C202.685971,53.2572276 204.268716,50.2895575 207.058341,49.1317283 C209.847967,47.9738992 213.06699,48.9486044 214.745758,51.4594424 C216.424526,53.9702805 216.095159,57.3174672 213.959188,59.4529302 C212.776747,60.6401474 211.169859,61.3070836 209.494254,61.306093 L209.494254,62.964186 C212.719826,62.9817404 215.637561,61.052215 216.884117,58.0772009 C218.130673,55.1021868 217.459932,51.6690626 215.185306,49.3819918 C212.910681,47.0949211 209.481265,46.4054567 206.49949,47.6357582 C203.517716,48.8660598 201.572296,51.7732198 201.572248,54.9988372 C201.578218,59.3955028 205.140934,62.9582164 209.537603,62.964186 L209.537603,62.1405581 L209.494254,62.1405581 Z" id="Shape" fill="#EF4E3F"></path>
                        <path d="M232.187388,36.0662326 L232.187388,35.2426047 C229.16703,35.2472666 226.564274,33.1170529 225.971689,30.1553961 C225.379105,27.1937392 226.961849,24.2260691 229.751475,23.06824 C232.5411,21.9104108 235.760123,22.885116 237.438892,25.3959541 C239.11766,27.9067921 238.788292,31.2539789 236.652321,33.3894419 C235.469881,34.576659 233.862992,35.2435953 232.187388,35.2426047 L232.187388,36.8465116 C236.586532,36.8465116 240.152743,33.2803035 240.152743,28.8811628 C240.152743,24.4820221 236.586532,20.915814 232.187388,20.915814 C227.788244,20.915814 224.222033,24.4820221 224.222033,28.8811628 C224.228002,33.2778284 227.790719,36.8405419 232.187388,36.8465116 L232.187388,36.0662326 L232.187388,36.0662326 Z" id="Shape" fill="#EF4E3F"></path>
                        <path d="M254.837173,49.4285116 L254.837173,48.6048837 C251.816815,48.6095457 249.214059,46.479332 248.621474,43.5176751 C248.02889,40.5560183 249.611634,37.5883482 252.40126,36.430519 C255.190885,35.2726899 258.409908,36.2473951 260.088677,38.7582331 C261.767445,41.2690712 261.438077,44.6162579 259.302106,46.7517209 C258.119666,47.9389381 256.512777,48.6058743 254.837173,48.6048837 L254.837173,50.2521395 C259.233492,50.2521233 262.798518,46.6903097 262.802495,42.2939959 C262.806472,37.897682 259.247895,34.3294247 254.851583,34.3214549 C250.455271,34.3134852 246.88378,37.8688169 246.871818,42.2651163 C246.877787,46.6617819 250.440504,50.2244954 254.837173,50.2304651 L254.837173,49.4285116 L254.837173,49.4285116 Z" id="Shape" fill="#EF4E3F"></path>
                        <path d="M268.567927,29.878186 L268.567927,29.0545581 C265.54757,29.0592201 262.944813,26.9290064 262.352229,23.9673496 C261.759645,21.0056927 263.342389,18.0380226 266.132015,16.8801935 C268.92164,15.7223643 272.140663,16.6970695 273.819431,19.2079076 C275.4982,21.7187456 275.168832,25.0659323 273.032861,27.2013953 C271.850421,28.3886125 270.243532,29.0555488 268.567927,29.0545581 L268.567927,30.701814 C271.791583,30.701802 274.697402,28.7587536 275.929007,25.7796449 C277.160611,22.8005362 276.475148,19.3728037 274.192576,17.0964447 C271.910004,14.8200856 268.480414,14.1439646 265.50467,15.3836814 C262.528926,16.6233981 260.593801,19.5344988 260.602572,22.7581395 C260.608542,27.1548051 264.171258,30.7175187 268.567927,30.7234884 L268.567927,29.878186 L268.567927,29.878186 Z" id="Shape" fill="#EF4E3F"></path>
                        <ellipse id="Oval" fill="#53AACE" cx="153.368304" cy="67.5483256" rx="2.74181606" ry="2.74181395"></ellipse>
                        <ellipse id="Oval" fill="#53AACE" cx="186.324283" cy="42.2867907" rx="2.74181606" ry="2.74181395"></ellipse>
                        <ellipse id="Oval" fill="#53AACE" cx="209.494254" cy="54.9988372" rx="2.74181606" ry="2.74181395"></ellipse>
                        <ellipse id="Oval" fill="#53AACE" cx="232.187388" cy="28.9353488" rx="2.74181606" ry="2.74181395"></ellipse>
                        <ellipse id="Oval" fill="#53AACE" cx="254.837173" cy="42.4385116" rx="2.74181606" ry="2.74181395"></ellipse>
                        <ellipse id="Oval" fill="#53AACE" cx="268.567927" cy="22.7364651" rx="2.74181606" ry="2.74181395"></ellipse>
                        <path d="M47.3369666,45.9931163 L47.3369666,44.9093953 L22.4113661,44.9093953 L22.4113661,42.5468837 C22.4113661,40.3452415 23.2859657,38.2337727 24.8427631,36.6769766 C26.3995605,35.1201804 28.5110308,34.2455814 30.7126748,34.2455814 L37.9302617,34.2455814 C42.5149479,34.2455814 46.2315704,37.962201 46.2315704,42.5468837 L46.2315704,45.9822791 L47.3152922,45.9822791 L47.3152922,45.9822791 L48.3990139,45.9822791 L48.3990139,42.5468837 C48.3990139,36.765156 43.7119939,32.0781395 37.9302617,32.0781395 L30.7668609,32.0781395 C24.9851286,32.0781395 20.2981086,36.765156 20.2981086,42.5468837 L20.2981086,45.9822791 C20.2981086,46.5808016 20.7833074,47.066 21.3818304,47.066 L47.3911527,47.066 C47.9896757,47.066 48.4748745,46.5808016 48.4748745,45.9822791 L47.3911527,45.9822791 L47.3369666,45.9931163 Z" id="Shape" fill="#EF4E3F"></path>
                        <path d="M41.0513804,22.7581395 L39.9676586,22.7581395 C39.9705681,25.4364454 38.0810198,27.743785 35.4547007,28.2689415 C32.8283816,28.794098 30.1968541,27.3907889 29.1696149,24.9173071 C28.1423758,22.4438253 29.005563,19.5891603 31.2312334,18.0992845 C33.4569037,16.6094087 36.4250957,16.8993277 38.3204015,18.7917209 C39.375566,19.8418868 39.9684312,21.2694427 39.9676586,22.7581395 L42.1351022,22.7581395 C42.1351022,18.4607477 38.6513751,14.9770233 34.3539799,14.9770233 C30.0565847,14.9770233 26.5728576,18.4607477 26.5728576,22.7581395 C26.5728576,27.0555314 30.0565847,30.5392558 34.3539799,30.5392558 C38.6513751,30.5392558 42.1351022,27.0555314 42.1351022,22.7581395 L41.0513804,22.7581395 L41.0513804,22.7581395 Z" id="Shape" fill="#EF4E3F"></path>
                        <path d="M43.8365453,35.6869302 C45.2154082,34.7440327 46.8478034,34.241467 48.5182233,34.2455814 L55.7032986,34.2455814 C57.9049426,34.2455814 60.0164129,35.1201804 61.5732103,36.6769766 C63.1300077,38.2337727 64.0046073,40.3452415 64.0046073,42.5468837 L64.0046073,44.8985581 L39.0790068,44.8985581 L39.0790068,47.066 L65.0883291,47.066 C65.6868521,47.066 66.1720509,46.5808016 66.1720509,45.9822791 L66.1720509,42.5468837 C66.1720509,36.765156 61.4850308,32.0781395 55.7032986,32.0781395 L48.5182233,32.0781395 C46.4143864,32.0762739 44.3592077,32.710961 42.6227769,33.8987907 L43.8473825,35.6869302 L43.8473825,35.6869302 L43.8365453,35.6869302 Z" id="Shape" fill="#EF4E3F"></path>
                        <path d="M58.8027429,22.7581395 L57.7190211,22.7581395 C57.7219306,25.4364454 55.8323823,27.743785 53.2060632,28.2689415 C50.5797441,28.794098 47.9482166,27.3907889 46.9209774,24.9173071 C45.8937383,22.4438253 46.7569255,19.5891603 48.9825959,18.0992845 C51.2082662,16.6094087 54.1764582,16.8993277 56.071764,18.7917209 C57.1269285,19.8418868 57.7197937,21.2694427 57.7190211,22.7581395 L59.8864646,22.7581395 C59.8864646,18.4607477 56.4027375,14.9770233 52.1053424,14.9770233 C47.8079472,14.9770233 44.3242201,18.4607477 44.3242201,22.7581395 C44.3242201,27.0555314 47.8079472,30.5392558 52.1053424,30.5392558 C56.4027375,30.5392558 59.8864646,27.0555314 59.8864646,22.7581395 L58.8027429,22.7581395 L58.8027429,22.7581395 Z" id="Shape" fill="#EF4E3F"></path>
                        <path d="M71.0487988,5.54865116 L71.0487988,4.46493023 L17.577967,4.46493023 C10.3358387,4.46493023 4.46493366,10.3358307 4.46493366,17.5779535 L4.46493366,49.6994419 C4.45341196,53.1847365 5.82987166,56.5312325 8.29029235,58.9997849 C10.750713,61.4683373 14.0926506,62.855833 17.577967,62.855814 L53.2107386,62.855814 L69.0330763,78.1146047 C69.3463861,78.4132853 69.8073824,78.4968753 70.2056141,78.3272146 C70.6038458,78.1575539 70.8629201,77.7671885 70.8645661,77.3343256 L70.8645661,62.855814 L71.0379616,62.855814 C78.2800899,62.855814 84.1509949,56.9849135 84.1509949,49.7427907 L84.1509949,17.5779535 C84.1509949,10.3358307 78.2800899,4.46493023 71.0379616,4.46493023 L71.0379616,6.63237209 C77.0830439,6.63237209 81.9835514,11.5328758 81.9835514,17.5779535 L81.9835514,49.6994419 C81.995072,52.6080169 80.8484551,55.4015717 78.7968538,57.463338 C76.7452524,59.5251042 73.9573975,60.6855151 71.0487988,60.6883721 L69.7916816,60.6883721 C69.1931585,60.6883721 68.7079598,61.1735705 68.7079598,61.772093 L68.7079598,74.7767442 L54.4028325,60.9593023 C54.1969212,60.7774869 53.9296492,60.6806493 53.6550645,60.6883721 L17.577967,60.6883721 C14.6750161,60.6883721 11.8909625,59.5351802 9.83826622,57.4824855 C7.78556995,55.4297908 6.63237719,52.6457394 6.63237719,49.7427907 L6.63237719,17.5779535 C6.63237719,11.5328758 11.5328847,6.63237209 17.577967,6.63237209 L71.0487988,6.63237209 L71.0487988,5.54865116 L71.0487988,5.54865116 Z" id="Shape" fill="#EF4E3F"></path>
                        <path d="M267.03988,128.475116 L266.563042,127.814047 C265.851228,128.324627 264.882336,128.281258 264.218987,127.709122 C263.555637,127.136986 263.370451,126.184968 263.770963,125.405891 C264.171475,124.626813 265.053461,124.223412 265.904766,124.429936 C266.756072,124.63646 267.355163,125.399166 267.354159,126.275163 C267.35526,126.885979 267.060425,127.459492 266.563042,127.814047 L267.03988,128.475116 L267.516717,129.136186 C268.92518,128.124921 269.388116,126.23899 268.607993,124.690497 C267.82787,123.142004 266.03678,122.391638 264.385873,122.921666 C262.734965,123.451694 261.715398,125.104428 261.982455,126.817642 C262.249512,128.530855 263.723743,129.794854 265.457646,129.797256 C266.196344,129.798279 266.916667,129.567018 267.516717,129.136186 L267.03988,128.475116 Z" id="Shape" fill="#EF4E3F"></path>
                        <path d="M113.671576,5.54865116 L112.858784,5.54865116 C112.867563,6.92692757 112.044066,8.17437905 110.773215,8.7079168 C109.502364,9.24145455 108.035181,8.9556926 107.057463,7.98420296 C106.079745,7.01271332 105.784614,5.54738751 106.310021,4.27315404 C106.835428,2.99892057 108.077593,2.16746982 109.455898,2.16744186 C111.33526,2.16744186 112.858784,3.6909648 112.858784,5.57032558 L114.484367,5.57032558 C114.493142,3.53455188 113.273574,1.69434944 111.395276,0.909204781 C109.516977,0.124060117 107.350598,0.548907787 105.907968,1.98531808 C104.465339,3.42172837 104.031137,5.58625084 104.808161,7.4679218 C105.585185,9.34959276 107.420104,10.5770974 109.455898,10.5771163 C112.233045,10.5771163 114.484367,8.32579576 114.484367,5.54865116 L113.671576,5.54865116 L113.671576,5.54865116 Z" id="Shape" fill="#EF4E3F"></path>
                        <path d="M4.60581749,87.8572558 L4.60581749,96.3753023 C4.60581749,96.8241942 4.96971656,97.188093 5.41860882,97.188093 C5.86750107,97.188093 6.23140014,96.8241942 6.23140014,96.3753023 L6.23140014,87.8572558 C6.23140014,87.4083639 5.86750107,87.0444651 5.41860882,87.0444651 C4.96971656,87.0444651 4.60581749,87.4083639 4.60581749,87.8572558" id="Shape" fill="#EF4E3F"></path>
                        <path d="M1.15958229,92.9290698 L9.67763535,92.9290698 C10.1265276,92.9290698 10.4904267,92.565171 10.4904267,92.1162791 C10.4904267,91.6673872 10.1265276,91.3034884 9.67763535,91.3034884 L1.15958229,91.3034884 C0.710690034,91.3034884 0.346790964,91.6673872 0.346790964,92.1162791 C0.346790964,92.565171 0.710690034,92.9290698 1.15958229,92.9290698" id="Shape" fill="#EF4E3F"></path>
                        <path d="M282.038589,104.503209 L282.038589,113.021256 C282.038589,113.470148 282.402488,113.834047 282.85138,113.834047 C283.300272,113.834047 283.664172,113.470148 283.664172,113.021256 L283.664172,104.503209 C283.664172,104.054317 283.300272,103.690419 282.85138,103.690419 C282.402488,103.690419 282.038589,104.054317 282.038589,104.503209" id="Shape" fill="#EF4E3F"></path>
                        <path d="M278.592354,109.575023 L287.110407,109.575023 C287.559299,109.575023 287.923198,109.211124 287.923198,108.762233 C287.923198,108.313341 287.559299,107.949442 287.110407,107.949442 L278.592354,107.949442 C278.143461,107.949442 277.779562,108.313341 277.779562,108.762233 C277.779562,109.211124 278.143461,109.575023 278.592354,109.575023" id="Shape" fill="#EF4E3F"></path>
                    </g>
                </g>
            </g>
        </g>
    </g>
</svg>