<?xml version="1.0" encoding="utf-8"?>
<!-- Generator: Adobe Illustrator 18.0.0, SVG Export Plug-In . SVG Version: 6.00 Build 0)  -->
<!DOCTYPE svg PUBLIC "-//W3C//DTD SVG 1.1//EN" "http://www.w3.org/Graphics/SVG/1.1/DTD/svg11.dtd">
<svg version="1.1" id="图层_1" xmlns="http://www.w3.org/2000/svg" xmlns:xlink="http://www.w3.org/1999/xlink" x="0px" y="0px"
	 viewBox="0 0 800 800" enable-background="new 0 0 800 800" xml:space="preserve">
<g>
	<rect x="221.3" y="437.5" fill="#C3E1EE" width="95.2" height="7.8"/>
	<g>
		<rect x="489.5" y="375.9" fill="#C3E1EE" width="104.2" height="10.6"/>
		<rect x="336.1" y="488.2" fill="#FFCDCC" width="98" height="10.3"/>
		<rect x="159.7" y="488.2" fill="#FFCDCC" width="49.9" height="10.3"/>
		<g>
			<g>
				<g>
					<g>
						<g>
							<g>
								
									<path fill="none" stroke="#C3E1EE" stroke-width="5.5995" stroke-linecap="round" stroke-linejoin="round" stroke-miterlimit="10" d="
									M587.8,380.2v-15.2l22.8-76.2v-68.5c0-8.4-6.8-15.2-15.2-15.2c-8.4,0-15.2,6.8-15.2,15.2V205c0-8.4-6.8-15.2-15.2-15.2
									c-8.4,0-15.2,6.8-15.2,15.2v-15.2c0-8.4-6.8-15.2-15.2-15.2c-8.4,0-15.2,6.8-15.2,15.2V205c0-8.4-6.8-15.2-15.2-15.2
									c-8.4,0-15.2,6.8-15.2,15.2v68.5"/>
								
									<line fill="none" stroke="#C3E1EE" stroke-width="5.5995" stroke-linecap="round" stroke-linejoin="round" stroke-miterlimit="10" x1="519.2" y1="205" x2="519.2" y2="250.7"/>
								
									<line fill="none" stroke="#C3E1EE" stroke-width="5.5995" stroke-linecap="round" stroke-linejoin="round" stroke-miterlimit="10" x1="549.7" y1="205" x2="549.7" y2="250.7"/>
								
									<line fill="none" stroke="#C3E1EE" stroke-width="5.5995" stroke-linecap="round" stroke-linejoin="round" stroke-miterlimit="10" x1="580.1" y1="220.2" x2="580.1" y2="250.7"/>
								
									<path fill="none" stroke="#C3E1EE" stroke-width="5.5995" stroke-linecap="round" stroke-linejoin="round" stroke-miterlimit="10" d="
									M473.5,243.1c-8.4,0-15.2,6.8-15.2,15.2c0,0-0.7,17.2,1,24.6"/>
							</g>
						</g>
						<g>
							
								<path fill="none" stroke="#C3E1EE" stroke-width="5.5995" stroke-linecap="round" stroke-linejoin="round" stroke-miterlimit="10" d="
								M488.7,611.4"/>
							
								<path fill="none" stroke="#C3E1EE" stroke-width="5.5995" stroke-linecap="round" stroke-linejoin="round" stroke-miterlimit="10" d="
								M595.4,476.1v-88.3c0-4.2-3.4-7.6-7.6-7.6h-91.4c-4.2,0-7.6,3.4-7.6,7.6v99"/>
							
								<path fill="none" stroke="#C3E1EE" stroke-width="5.5995" stroke-linecap="round" stroke-linejoin="round" stroke-miterlimit="10" d="
								M595.4,601"/>
						</g>
					</g>
					<g>
						
							<line fill="none" stroke="#C3E1EE" stroke-width="6.1595" stroke-linecap="round" stroke-linejoin="round" x1="243" y1="411.7" x2="258.2" y2="411.7"/>
						
							<line fill="none" stroke="#53AACE" stroke-width="6.1595" stroke-linecap="round" stroke-linejoin="round" x1="243" y1="407.8" x2="258.2" y2="407.8"/>
						
							<line fill="none" stroke="#53AACE" stroke-width="6.1595" stroke-linecap="round" stroke-miterlimit="10" stroke-dasharray="1.8187,14.5499" x1="223" y1="199.4" x2="223" y2="161.3"/>
						
							<line fill="none" stroke="#53AACE" stroke-width="6.1595" stroke-linecap="round" stroke-miterlimit="10" stroke-dasharray="1.8187,14.5499" x1="224.1" y1="428.5" x2="224.1" y2="322.1"/>
						
							<line fill="none" stroke="#53AACE" stroke-width="6.1595" stroke-linecap="round" stroke-miterlimit="10" stroke-dasharray="1.8187,14.5499" x1="312.8" y1="341.7" x2="312.8" y2="431.3"/>
						
							<line fill="none" stroke="#53AACE" stroke-width="6.1595" stroke-linecap="round" stroke-miterlimit="10" stroke-dasharray="1.8187,14.5499" x1="310" y1="164.1" x2="310" y2="212.9"/>
					</g>
					<g>
						<g>
							<g>
								
									<path fill="none" stroke="#FFCDCC" stroke-width="5.5995" stroke-linecap="round" stroke-linejoin="round" stroke-miterlimit="10" d="
									M372.5,227.8c0,0-7.9,0.4-10.4,0c-19.7-2.9-76.2-22.8-76.2-22.8h-68.5c-8.4,0-15.2,6.8-15.2,15.2s6.8,15.2,15.2,15.2h-15.2
									c-8.4,0-15.2,6.8-15.2,15.2s6.8,15.2,15.2,15.2h-15.2c-8.4,0-15.2,6.8-15.2,15.2s6.8,15.2,15.2,15.2h15.2
									c-8.4,0-15.2,6.8-15.2,15.2"/>
								
									<line fill="none" stroke="#FFCDCC" stroke-width="5.5995" stroke-linecap="round" stroke-linejoin="round" stroke-miterlimit="10" x1="202.1" y1="296.4" x2="247.8" y2="296.4"/>
								
									<line fill="none" stroke="#FFCDCC" stroke-width="5.5995" stroke-linecap="round" stroke-linejoin="round" stroke-miterlimit="10" x1="202.1" y1="265.9" x2="247.8" y2="265.9"/>
								
									<line fill="none" stroke="#FFCDCC" stroke-width="5.5995" stroke-linecap="round" stroke-linejoin="round" stroke-miterlimit="10" x1="217.4" y1="235.5" x2="247.8" y2="235.5"/>
							</g>
						</g>
						<g>
							<g>
								<path fill="none" stroke="#EF4E3F" stroke-width="6.1595" stroke-linecap="round" stroke-linejoin="round" d="M375.3,224.1
									l-16-1.9l-76.2-22.8h-68.5c-8.4,0-15.2,6.8-15.2,15.2c0,8.4,6.8,15.2,15.2,15.2h-15.2c-8.4,0-15.2,6.8-15.2,15.2
									s6.8,15.2,15.2,15.2h-15.2c-8.4,0-15.2,6.8-15.2,15.2s6.8,15.2,15.2,15.2h15.2c-8.4,0-15.2,6.8-15.2,15.2
									s6.8,15.2,15.2,15.2h68.5"/>
								
									<line fill="none" stroke="#EF4E3F" stroke-width="6.1595" stroke-linecap="round" stroke-linejoin="round" x1="199.3" y1="290.8" x2="245" y2="290.8"/>
								
									<line fill="none" stroke="#EF4E3F" stroke-width="6.1595" stroke-linecap="round" stroke-linejoin="round" x1="199.3" y1="260.3" x2="245" y2="260.3"/>
								
									<line fill="none" stroke="#EF4E3F" stroke-width="6.1595" stroke-linecap="round" stroke-linejoin="round" x1="214.6" y1="229.9" x2="245" y2="229.9"/>
								<path fill="none" stroke="#EF4E3F" stroke-width="6.1595" stroke-linecap="round" stroke-linejoin="round" d="M237.4,336.5
									c0,8.4,6.8,15.2,15.2,15.2c0,0,19,0,25.3,0c3.4,0,6.7-0.8,9.7-2.3c6.5-3.2,19.7-9.1,25.9-12.9c8.1-5,21.5-19.7,30.5-22.8
									c7.2-2.5,28.5,0.1,28.5,0.1"/>
							</g>
						</g>
						<g>
							
								<line fill="none" stroke="#FFCDCC" stroke-width="6.1595" stroke-linecap="round" stroke-linejoin="round" x1="408.9" y1="243.1" x2="408.9" y2="258.3"/>
							
								<line fill="none" stroke="#EF4E3F" stroke-width="6.1595" stroke-linecap="round" stroke-linejoin="round" x1="405" y1="243.1" x2="405" y2="258.3"/>
							
								<line fill="none" stroke="#EF4E3F" stroke-width="6.1595" stroke-linecap="round" stroke-miterlimit="10" stroke-dasharray="1.8187,14.5499" x1="610.6" y1="214.6" x2="648.7" y2="214.6"/>
							
								<line fill="none" stroke="#EF4E3F" stroke-width="6.1595" stroke-linecap="round" stroke-miterlimit="10" stroke-dasharray="1.8187,14.5499" x1="383.7" y1="224.1" x2="488.7" y2="224.1"/>
							
								<line fill="none" stroke="#EF4E3F" stroke-width="6.1595" stroke-linecap="round" stroke-miterlimit="10" stroke-dasharray="1.8187,14.5499" x1="467.7" y1="313.7" x2="375.3" y2="313.7"/>
							
								<line fill="none" stroke="#EF4E3F" stroke-width="6.1595" stroke-linecap="round" stroke-miterlimit="10" stroke-dasharray="1.8187,14.5499" x1="644.1" y1="318.4" x2="603" y2="318.4"/>
						</g>
					</g>
					<g>
						<g>
							<g>
								<path fill="none" stroke="#53AACE" stroke-width="6.1595" stroke-linecap="round" stroke-linejoin="round" d="M587.8,374.6
									v-15.2l22.8-76.2v-68.5c0-8.4-6.8-15.2-15.2-15.2c-8.4,0-15.2,6.8-15.2,15.2v-15.2c0-8.4-6.8-15.2-15.2-15.2
									c-8.4,0-15.2,6.8-15.2,15.2v-15.2c0-8.4-6.8-15.2-15.2-15.2c-8.4,0-15.2,6.8-15.2,15.2v15.2c0-8.4-6.8-15.2-15.2-15.2
									c-8.4,0-15.2,6.8-15.2,15.2v68.5"/>
								
									<line fill="none" stroke="#53AACE" stroke-width="6.1595" stroke-linecap="round" stroke-linejoin="round" x1="519.2" y1="199.4" x2="519.2" y2="245.1"/>
								
									<line fill="none" stroke="#53AACE" stroke-width="6.1595" stroke-linecap="round" stroke-linejoin="round" x1="549.7" y1="199.4" x2="549.7" y2="245.1"/>
								
									<line fill="none" stroke="#53AACE" stroke-width="6.1595" stroke-linecap="round" stroke-linejoin="round" x1="580.1" y1="214.6" x2="580.1" y2="245.1"/>
								<path fill="none" stroke="#53AACE" stroke-width="6.1595" stroke-linecap="round" stroke-linejoin="round" d="M473.5,237.5
									c-8.4,0-15.2,6.8-15.2,15.2c0,0-1.7,23.1,0,30.5c2,8.3,10.5,23.4,15.2,30.5c5.3,7.9,19.8,21.4,22.8,30.5
									c2.4,7.2,0,30.5,0,30.5"/>
							</g>
						</g>
						<g>
							
								<line fill="none" stroke="#C3E1EE" stroke-width="6.1595" stroke-linecap="round" stroke-linejoin="round" x1="557.3" y1="407.8" x2="572.5" y2="407.8"/>
							
								<line fill="none" stroke="#53AACE" stroke-width="6.1595" stroke-linecap="round" stroke-linejoin="round" x1="557.3" y1="405" x2="572.5" y2="405"/>
							
								<line fill="none" stroke="#53AACE" stroke-width="6.1595" stroke-linecap="round" stroke-linejoin="round" x1="488.7" y1="605.8" x2="488.7" y2="648.7"/>
							<path fill="none" stroke="#53AACE" stroke-width="6.1595" stroke-linecap="round" stroke-linejoin="round" d="M595.4,473.6
								v-91.4c0-4.2-3.4-7.6-7.6-7.6h-91.4c-4.2,0-7.6,3.4-7.6,7.6v99"/>
							
								<line fill="none" stroke="#53AACE" stroke-width="6.1595" stroke-linecap="round" stroke-linejoin="round" x1="595.4" y1="627.3" x2="595.4" y2="595.4"/>
						</g>
					</g>
					<g>
						<g>
							<g>
								
									<path fill="none" stroke="#FFCDCC" stroke-width="5.5995" stroke-linecap="round" stroke-linejoin="round" stroke-miterlimit="10" d="
									M435.4,499.2h15.2l76.2-22.8h68.5c8.4,0,15.2,6.8,15.2,15.2s-6.8,15.2-15.2,15.2h15.2c8.4,0,15.2,6.8,15.2,15.2
									c0,8.4-6.8,15.2-15.2,15.2h15.2c8.4,0,15.2,6.8,15.2,15.2c0,8.4-6.8,15.2-15.2,15.2h-15.2c8.4-0.3,14.6-0.2,15.2,15.2"/>
								
									<line fill="none" stroke="#FFCDCC" stroke-width="5.5995" stroke-linecap="round" stroke-linejoin="round" stroke-miterlimit="10" x1="610.6" y1="567.8" x2="564.9" y2="567.8"/>
								
									<line fill="none" stroke="#FFCDCC" stroke-width="5.5995" stroke-linecap="round" stroke-linejoin="round" stroke-miterlimit="10" x1="610.6" y1="537.3" x2="564.9" y2="537.3"/>
								
									<line fill="none" stroke="#FFCDCC" stroke-width="5.5995" stroke-linecap="round" stroke-linejoin="round" stroke-miterlimit="10" x1="595.4" y1="506.8" x2="564.9" y2="506.8"/>
							</g>
						</g>
						<g>
							
								<line fill="none" stroke="#EF4E3F" stroke-width="6.1595" stroke-linecap="round" stroke-linejoin="round" x1="405" y1="511.6" x2="405" y2="526.9"/>
							
								<line fill="none" stroke="#EF4E3F" stroke-width="6.1595" stroke-linecap="round" stroke-linejoin="round" x1="208.5" y1="488.8" x2="161.3" y2="488.8"/>
							<path fill="none" stroke="#EF4E3F" stroke-width="6.1595" stroke-linecap="round" stroke-linejoin="round" d="M321.2,595.4
								h106.6c4.2,0,7.6-3.4,7.6-7.6v-91.4c0-4.2-3.4-7.6-7.6-7.6h-94.5"/>
							
								<line fill="none" stroke="#EF4E3F" stroke-width="6.1595" stroke-linecap="round" stroke-linejoin="round" x1="170.9" y1="595.4" x2="199.3" y2="595.4"/>
						</g>
						<g>
							<g>
								<path fill="none" stroke="#EF4E3F" stroke-width="6.1595" stroke-linecap="round" stroke-linejoin="round" d="M435.4,496.4
									h15.2l72.4-21.7c2.5-0.7,5-1.1,7.6-1.1h64c8,0,15.1,5.8,15.8,13.7c0.9,9.1-6.3,16.7-15.2,16.7h14.6c8,0,15.1,5.8,15.8,13.7
									c0.9,9.1-6.3,16.7-15.2,16.7h14.6c8,0,15.1,5.8,15.8,13.7c0.9,9.1-6.3,16.7-15.2,16.7h-15.2c8.9,0,16,7.6,15.2,16.7
									c-0.8,7.9-7.9,13.7-15.8,13.7l-67.9,0"/>
								
									<line fill="none" stroke="#EF4E3F" stroke-width="6.1595" stroke-linecap="round" stroke-linejoin="round" x1="610.6" y1="565" x2="564.9" y2="565"/>
								
									<line fill="none" stroke="#EF4E3F" stroke-width="6.1595" stroke-linecap="round" stroke-linejoin="round" x1="610.6" y1="534.5" x2="564.9" y2="534.5"/>
								
									<line fill="none" stroke="#EF4E3F" stroke-width="6.1595" stroke-linecap="round" stroke-linejoin="round" x1="595.4" y1="504" x2="564.9" y2="504"/>
								<path fill="none" stroke="#EF4E3F" stroke-width="6.1595" stroke-linecap="round" stroke-linejoin="round" d="M435.4,587.8
									c0,0,23.2-2.4,30.5,0c9,3,22.4,17.8,30.5,22.8c7.2,4.5,22.2,13.3,30.5,15.2c7.4,1.7,30.5,0,30.5,0c8.4,0,15.2-6.8,15.2-15.2
									"/>
							</g>
						</g>
					</g>
					<g>
						<g>
							<path fill="none" stroke="#53AACE" stroke-width="6.1595" stroke-linecap="round" stroke-linejoin="round" d="M222.2,435.5
								v14.3c0,0.6-0.1,1.2-0.3,1.8l-22.6,75.3l0,67.9c0,8,5.8,15.1,13.7,15.8c9.1,0.9,16.7-6.3,16.7-15.2V610
								c0,8,5.8,15.1,13.7,15.8c9.1,0.9,16.7-6.3,16.7-15.2v14.6c0,8,5.8,15.1,13.7,15.8c9.1,0.9,16.7-6.3,16.7-15.2v-15.2
								c0,8.9,7.6,16,16.7,15.2c7.9-0.8,13.7-7.9,13.7-15.8v-67.9"/>
							
								<line fill="#FFFFFF" stroke="#53AACE" stroke-width="6.1595" stroke-linecap="round" stroke-linejoin="round" x1="290.7" y1="610.6" x2="290.7" y2="565"/>
							
								<line fill="#FFFFFF" stroke="#53AACE" stroke-width="6.1595" stroke-linecap="round" stroke-linejoin="round" x1="260.3" y1="610.6" x2="260.3" y2="565"/>
							
								<line fill="#FFFFFF" stroke="#53AACE" stroke-width="6.1595" stroke-linecap="round" stroke-linejoin="round" x1="229.8" y1="595.4" x2="229.8" y2="565"/>
							<path fill="#FFFFFF" stroke="#53AACE" stroke-width="6.1595" stroke-linecap="round" stroke-linejoin="round" d="
								M336.4,572.6c8.4,0,15.2-6.8,15.2-15.2c0,0,1.7-23.1,0-30.5c-2-8.3-10.8-23.2-15.2-30.5c-5-8.1-16.9-22.5-19.9-31.5
								c-2.4-7.2-2.8-28-2.8-28"/>
						</g>
					</g>
					
						<line fill="none" stroke="#53AACE" stroke-width="6.1595" stroke-linecap="round" stroke-linejoin="round" stroke-miterlimit="10" x1="223.1" y1="435.4" x2="314" y2="435.4"/>
					
						<line fill="none" stroke="#EF4E3F" stroke-width="6.1595" stroke-linecap="round" stroke-linejoin="round" stroke-miterlimit="10" x1="374.1" y1="313.7" x2="375.3" y2="224.1"/>
				</g>
			</g>
		</g>
	</g>
	<g>
		<path id="Shape_504_" fill="#EF4E3F" d="M461.9,166.9l-2.7,0.1c0.1,4.2-3.2,7.7-7.4,7.8c-4.2,0.1-7.7-3.2-7.8-7.4
			c-0.1-4.2,3.2-7.7,7.4-7.8c4.2-0.1,7.7,3.2,7.8,7.4l5.4-0.1c-0.1-5.2-3.4-9.9-8.3-11.8c-4.9-1.9-10.4-0.6-14,3.2
			c-3.6,3.8-4.6,9.4-2.4,14.2c2.1,4.8,6.9,7.8,12.2,7.7c7.2-0.2,12.8-6.2,12.6-13.3L461.9,166.9L461.9,166.9z"/>
		<path id="Shape_502_" fill="#EF4E3F" d="M669.2,271.1l-2,0.1c0.1,2.6-2,4.8-4.6,4.8s-4.8-2-4.8-4.6c-0.1-2.6,2-4.8,4.6-4.8
			s4.8,2,4.8,4.6l4-0.1c-0.1-4.8-4.1-8.6-9-8.5s-8.6,4.1-8.5,9s4.1,8.6,9,8.5c4.8-0.1,8.6-4.1,8.5-9L669.2,271.1L669.2,271.1z"/>
		<path id="Shape_501_" fill="#EF4E3F" d="M227,93.7l-2,0.1c0.1,2.6-2,4.8-4.6,4.8c-2.6,0.1-4.8-2-4.8-4.6c-0.1-2.6,2-4.8,4.6-4.8
			c2.6-0.1,4.8,2,4.8,4.6l4-0.1c-0.1-4.8-4.1-8.6-9-8.5c-4.8,0.1-8.6,4.1-8.5,9c0.1,4.8,4.1,8.6,9,8.5c4.8-0.1,8.6-4.1,8.5-9
			L227,93.7L227,93.7z"/>
		<path id="Shape_500_" fill="#EF4E3F" d="M509.6,94.5l-2,0.1c0.1,2.6-2,4.8-4.6,4.8s-4.8-2-4.8-4.6c-0.1-2.6,2-4.8,4.6-4.8
			s4.8,2,4.8,4.6l4-0.1c-0.1-4.8-4.1-8.6-9-8.5c-4.8,0.1-8.6,4.1-8.5,9c0.1,4.8,4.1,8.6,9,8.5c4.8-0.1,8.6-4.1,8.5-9L509.6,94.5
			L509.6,94.5z"/>
		<path id="Shape_499_" fill="#53AACE" d="M618.2,134.2l-2.7,0.1c0.1,4.2-3.2,7.7-7.4,7.8c-4.2,0.1-7.7-3.2-7.8-7.4
			c-0.1-4.2,3.2-7.7,7.4-7.8c4.2-0.1,7.7,3.2,7.8,7.4l5.4-0.1c-0.2-7.2-6.2-12.8-13.3-12.6c-7.2,0.2-12.8,6.2-12.6,13.3
			c0.2,7.2,6.2,12.8,13.3,12.6c7.2-0.2,12.8-6.2,12.6-13.3L618.2,134.2L618.2,134.2z"/>
		<path id="Shape_498_" fill="#53AACE" d="M133.7,240.4l-2.7,0.1c0.1,4.2-3.2,7.7-7.4,7.8c-4.2,0.1-7.7-3.2-7.8-7.4
			c-0.1-4.2,3.2-7.7,7.4-7.8c4.2-0.1,7.7,3.2,7.8,7.4l5.4-0.1c-0.2-7.2-6.2-12.8-13.3-12.6c-7.2,0.2-12.8,6.2-12.6,13.3
			s6.2,12.8,13.3,12.6c7.2-0.2,12.8-6.2,12.6-13.3L133.7,240.4L133.7,240.4z"/>
		<path id="Shape_497_" fill="#53AACE" d="M163.3,140.4l-5.8,0.2l-0.2-5.8c0-1.1-1-2-2.1-2c-1.1,0-2,1-2,2.1l0.2,5.8l-5.7,0.2
			c-1.1,0-2,1-2,2.1c0,1.1,1,2,2.1,2l5.8-0.2l0.2,5.7c0,1.1,1,2,2.1,2c1.1,0,2-1,2-2.1l-0.2-5.8l5.8-0.2c0.9-0.2,1.6-1.1,1.5-2.1
			C164.9,141.3,164.2,140.6,163.3,140.4L163.3,140.4z"/>
		<path id="Shape_496_" fill="#53AACE" d="M698,351.3l-5.8,0.2l-0.2-5.8c0-1.1-1-2-2.1-2c-1.1,0-2,1-2,2.1l0.2,5.8l-5.8,0.2
			c-1.1,0-2,1-2,2.1c0,1.1,1,2,2.1,2l5.8-0.2l0.2,5.8c0,1.1,1,2,2.1,2c1.1,0,2-1,2-2.1l-0.2-5.8l5.8-0.2c1.1,0,2-1,2-2.1
			C700,352.1,699.1,351.3,698,351.3L698,351.3z"/>
		<path id="Shape_495_" fill="#53AACE" d="M386.6,112.2l-5.8,0.2l-0.2-5.8c0-1.1-1-2-2.1-2c-1.1,0-2,1-2,2.1l0.2,5.8l-5.8,0.2
			c-1.1,0-2,1-2,2.1s1,2,2.1,2l5.8-0.2l0.2,5.8c0,1.1,1,2,2.1,2c1.1,0,2-1,2-2.1l-0.2-5.8l5.8-0.2c1.1,0,2-1,2-2.1
			C388.7,113.1,387.7,112.2,386.6,112.2L386.6,112.2z"/>
		<path id="Shape_494_" fill="#EF4E3F" d="M297.1,110.8l-5.8,0.2l-0.2-5.8c0-1.1-1-2-2.1-2c-1.1,0-2,1-2,2.1l0.2,5.8l-5.8,0.2
			c-1.1,0-2,1-2,2.1c0,1.1,1,2,2.1,2l5.8-0.2l0.2,5.8c0,1.1,1,2,2.1,2c1.1,0,2-1,2-2.1l-0.2-5.7l5.8-0.2c1.1,0,2-1,2-2.1
			C299.2,111.7,298.3,110.8,297.1,110.8L297.1,110.8z"/>
		<path id="Shape_493_" fill="#EF4E3F" d="M700,148.4l-5.8,0.2l-0.2-5.8c0-1.1-1-2-2.1-2c-1.1,0-2,1-2,2.1l0.2,5.8l-5.8,0.2
			c-1.1,0-2,1-2,2.1c0,1.1,1,2,2.1,2l5.8-0.2l0.2,5.8c0,1.1,1,2,2.1,2c1.1,0,2-1,2-2.1l-0.2-5.8l5.8-0.2c1.1,0,2-1,2-2.1
			C702.1,149.2,701.2,148.4,700,148.4L700,148.4z"/>
	</g>
	<g>
		<path id="Shape_516_" fill="#EF4E3F" d="M100.6,378.7l2.7-0.1c-0.1-4.2,3.2-7.7,7.4-7.8c4.2-0.1,7.7,3.2,7.8,7.4s-3.2,7.7-7.4,7.8
			s-7.7-3.2-7.8-7.4l-5.4,0.1c0.1,5.2,3.4,9.9,8.3,11.8c4.9,1.9,10.4,0.6,14-3.2s4.6-9.4,2.4-14.2c-2.1-4.8-6.9-7.8-12.2-7.7
			c-7.2,0.2-12.8,6.2-12.6,13.3L100.6,378.7L100.6,378.7z"/>
		<path id="Shape_515_" fill="#EF4E3F" d="M660.9,447.7l2-0.1c-0.1-2.6,2-4.8,4.6-4.8s4.8,2,4.8,4.6c0.1,2.6-2,4.8-4.6,4.8
			s-4.8-2-4.8-4.6l-4,0.1c0.1,4.8,4.1,8.6,9,8.5c4.8-0.1,8.6-4.1,8.5-9c-0.1-4.8-4.1-8.6-9-8.5c-4.8,0.1-8.6,4.1-8.5,9L660.9,447.7
			L660.9,447.7z"/>
		<path id="Shape_514_" fill="#EF4E3F" d="M103.1,523.6l2-0.1c-0.1-2.6,2-4.8,4.6-4.8c2.6-0.1,4.8,2,4.8,4.6c0.1,2.6-2,4.8-4.6,4.8
			c-2.6,0.1-4.8-2-4.8-4.6l-4,0.1c0.1,4.8,4.1,8.6,9,8.5c4.8-0.1,8.6-4.1,8.5-9c-0.1-4.8-4.1-8.6-9-8.5c-4.8,0.1-8.6,4.1-8.5,9
			L103.1,523.6L103.1,523.6z"/>
		<path id="Shape_512_" fill="#EF4E3F" d="M327,674.9l2-0.1c-0.1-2.6,2-4.8,4.6-4.8c2.6-0.1,4.8,2,4.8,4.6c0.1,2.6-2,4.8-4.6,4.8
			c-2.6,0.1-4.8-2-4.8-4.6l-4,0.1c0.1,4.8,4.1,8.6,9,8.5c4.8-0.1,8.6-4.1,8.5-9s-4.1-8.6-9-8.5c-4.8,0.1-8.6,4.1-8.5,9L327,674.9
			L327,674.9z"/>
		<path id="Shape_511_" fill="#53AACE" d="M226.8,693.2l2.7-0.1c-0.1-4.2,3.2-7.7,7.4-7.8c4.2-0.1,7.7,3.2,7.8,7.4
			c0.1,4.2-3.2,7.7-7.4,7.8s-7.7-3.2-7.8-7.4l-5.4,0.1c0.2,7.2,6.2,12.8,13.3,12.6c7.2-0.2,12.8-6.2,12.6-13.3
			c-0.2-7.2-6.2-12.8-13.3-12.6s-12.8,6.2-12.6,13.3L226.8,693.2L226.8,693.2z"/>
		<path id="Shape_510_" fill="#53AACE" d="M669.4,559.8l2.7-0.1c-0.1-4.2,3.2-7.7,7.4-7.8c4.2-0.1,7.7,3.2,7.8,7.4
			c0.1,4.2-3.2,7.7-7.4,7.8s-7.7-3.2-7.8-7.4l-5.4,0.1c0.2,7.2,6.2,12.8,13.3,12.6s12.8-6.2,12.6-13.3s-6.2-12.8-13.3-12.6
			c-7.2,0.2-12.8,6.2-12.6,13.3L669.4,559.8L669.4,559.8z"/>
		<path id="Shape_509_" fill="#53AACE" d="M673.4,640.3l5.8-0.2l0.2,5.8c0,1.1,1,2,2.1,2c1.1,0,2-1,2-2.1l-0.2-5.8l5.7-0.2
			c1.1,0,2-1,2-2.1c0-1.1-1-2-2.1-2L683,636l-0.2-5.7c0-1.1-1-2-2.1-2c-1.1,0-2,1-2,2.1l0.2,5.8l-5.8,0.2c-0.9,0.2-1.6,1.1-1.5,2.1
			C671.7,639.3,672.4,640.1,673.4,640.3L673.4,640.3z"/>
		<path id="Shape_508_" fill="#53AACE" d="M160,424.4l5.8-0.2l0.2,5.8c0,1.1,1,2,2.1,2c1.1,0,2-1,2-2.1l-0.2-5.8l5.8-0.2
			c1.1,0,2-1,2-2.1c0-1.1-1-2-2.1-2l-5.8,0.2l-0.2-5.8c0-1.1-1-2-2.1-2s-2,1-2,2.1l0.2,5.8l-5.8,0.2c-1.1,0-2,1-2,2.1
			C158,423.6,158.9,424.4,160,424.4L160,424.4z"/>
		<path id="Shape_507_" fill="#53AACE" d="M416.4,688.1l5.8-0.2l0.2,5.8c0,1.1,1,2,2.1,2s2-1,2-2.1l-0.2-5.8l5.8-0.2
			c1.1,0,2-1,2-2.1c0-1.1-1-2-2.1-2l-5.8,0.2L426,678c0-1.1-1-2-2.1-2c-1.1,0-2,1-2,2.1l0.2,5.8l-5.8,0.2c-1.1,0-2,1-2,2.1
			C414.4,687.2,415.3,688.1,416.4,688.1L416.4,688.1z"/>
		<path id="Shape_506_" fill="#EF4E3F" d="M528.3,707.2l5.8-0.2l0.2,5.8c0,1.1,1,2,2.1,2c1.1,0,2-1,2-2.1l-0.2-5.8l5.8-0.2
			c1.1,0,2-1,2-2.1c0-1.1-1-2-2.1-2l-5.8,0.2l-0.2-5.8c0-1.1-1-2-2.1-2c-1.1,0-2,1-2,2.1l0.2,5.7l-5.8,0.2c-1.1,0-2,1-2,2.1
			C526.2,706.4,527.2,707.3,528.3,707.2L528.3,707.2z"/>
		<path id="Shape_505_" fill="#EF4E3F" d="M117,649.1l5.8-0.2l0.2,5.8c0,1.1,1,2,2.1,2s2-1,2-2.1l-0.2-5.8l5.8-0.2c1.1,0,2-1,2-2.1
			c0-1.1-1-2-2.1-2l-5.8,0.2l-0.2-5.8c0-1.1-1-2-2.1-2c-1.1,0-2,1-2,2.1l0.2,5.8l-5.8,0.2c-1.1,0-2,1-2,2.1
			C115,648.2,115.9,649.1,117,649.1L117,649.1z"/>
	</g>
</g>
</svg>
