<?xml version="1.0" encoding="utf-8"?>
<!-- Generator: Adobe Illustrator 18.0.0, SVG Export Plug-In . SVG Version: 6.00 Build 0)  -->
<!DOCTYPE svg PUBLIC "-//W3C//DTD SVG 1.1//EN" "http://www.w3.org/Graphics/SVG/1.1/DTD/svg11.dtd">
<svg version="1.1" id="图层_1" xmlns="http://www.w3.org/2000/svg" xmlns:xlink="http://www.w3.org/1999/xlink" x="0px" y="0px"
	 viewBox="0 0 173 36" enable-background="new 0 0 173 36" xml:space="preserve">
<title>facebook</title>
<desc>Created with Sketch.</desc>
<g id="_x30_1.01home" transform="translate(-763.000000, -5514.000000)">
	<g id="facebook" transform="translate(740.000000, 5491.000000)">
		<g id="g8" transform="translate(23.000000, 23.000000)">
			<path id="path10" fill="#B9B9B9" d="M92.4,17.7c-1.5,0-2.5,0.5-3.6,1v11c1,0.1,1.6,0.1,2.6,0.1c3.5,0,4-1.6,4-3.8v-5.3
				C95.4,19,94.9,17.7,92.4,17.7z M68.9,17.1c-2.5,0-3,1.3-3,3V21h6v-0.9C72,18.4,71.4,17.1,68.9,17.1z M23.5,28.6c0,1.3,0.6,2,2,2
				c1.5,0,2.3-0.5,3.4-1V27h-3.2C24.2,27,23.5,27.2,23.5,28.6z M115.2,17.7c-2.5,0-3.3,1.3-3.3,3v6c0,1.7,0.9,3,3.3,3
				c2.4,0,3.3-1.3,3.3-3v-6C118.5,19,117.7,17.7,115.2,17.7z M11.5,35.3H4.3V18H0.7v-6h3.6V8.4c0-4.9,2-7.8,7.8-7.8h4.8v6h-3
				c-2.3,0-2.4,0.8-2.4,2.4l0,3h5.5l-0.6,6h-4.8V35.3L11.5,35.3z M36.1,35.4h-6l-0.3-1.5c-2.7,1.5-5.2,1.8-6.8,1.8
				c-4.4,0-6.8-2.9-6.8-7c0-4.8,2.7-6.5,7.6-6.5h5v-1c0-2.4-0.3-3.1-4.1-3.1h-6.2l0.6-6H26c8.3,0,10.1,2.6,10.1,9.2V35.4L36.1,35.4z
				 M56.6,18.4c-3.7-0.6-4.8-0.8-6.6-0.8c-3.2,0-4.2,0.7-4.2,3.4v5.2c0,2.7,1,3.4,4.2,3.4c1.8,0,2.9-0.1,6.6-0.8v5.8
				c-3.3,0.7-5.4,0.9-7.2,0.9c-7.7,0-10.8-4-10.8-9.9v-4.2c0-5.8,3.1-9.9,10.8-9.9c1.8,0,3.9,0.2,7.2,0.9V18.4L56.6,18.4z
				 M79.2,25.8H65.9v0.5c0,2.7,1,3.4,4.2,3.4c2.9,0,4.7-0.1,8.4-0.8v5.8c-3.6,0.7-5.5,0.9-9,0.9c-7.7,0-10.8-4-10.8-9.9V21
				c0-5.1,2.3-9.3,10.2-9.3s10.2,4.1,10.2,9.3V25.8L79.2,25.8z M102.6,25.9c0,5.6-1.6,9.8-11.5,9.8c-3.6,0-5.6-0.3-9.6-0.9V2.5
				l7.2-1.2v11.3c1.6-0.6,3.6-0.9,5.4-0.9c7.2,0,8.4,3.2,8.4,8.4V25.9z M125.7,26c0,4.9-2,9.6-10.5,9.6c-8.5,0-10.5-4.7-10.5-9.6
				v-4.7c0-4.9,2.1-9.6,10.5-9.6c8.5,0,10.5,4.7,10.5,9.6V26z M148.9,26c0,4.9-2,9.6-10.5,9.6c-8.5,0-10.5-4.7-10.5-9.6v-4.7
				c0-4.9,2.1-9.6,10.5-9.6c8.5,0,10.5,4.7,10.5,9.6V26z M172.6,35.3h-7.8l-6.6-10.9v10.9h-7.2V2.5l7.2-1.2v21.1l6.6-10.4h7.8
				l-7.2,11.3L172.6,35.3z M138.3,17.7c-2.5,0-3.3,1.3-3.3,3v6c0,1.7,0.9,3,3.3,3c2.4,0,3.3-1.3,3.3-3v-6
				C141.6,19,140.8,17.7,138.3,17.7z"/>
		</g>
	</g>
</g>
</svg>
