<?xml version="1.0" encoding="utf-8"?>
<!-- Generator: Adobe Illustrator 18.0.0, SVG Export Plug-In . SVG Version: 6.00 Build 0)  -->
<!DOCTYPE svg PUBLIC "-//W3C//DTD SVG 1.1//EN" "http://www.w3.org/Graphics/SVG/1.1/DTD/svg11.dtd">
<svg version="1.1" id="Ebene_1" xmlns="http://www.w3.org/2000/svg" xmlns:xlink="http://www.w3.org/1999/xlink" x="0px" y="0px"
	 viewBox="0 0 2500 1139" enable-background="new 0 0 2500 1139" xml:space="preserve">
<g id="XMLID_56_">
	<g id="XMLID_2_">
		<path id="XMLID_37_" fill="#B9B9B9" d="M129.4,831.7l-10.6,26.3c-3.9-2-8.3-2.6-14-2.6c-15.3,0-27.3,9-27.3,28v20.6H120v28H77.5
			v135.2H46.8V931.9H16.2v-28h30.6v-21.6c0-33.3,23.6-55,57.9-55C115.1,827.4,122.4,828.8,129.4,831.7z"/>
		<path id="XMLID_34_" fill="#B9B9B9" d="M296.2,985.6c0,49.6-35,86.9-83.9,86.9s-83.9-37.3-83.9-86.9s35-86.9,83.9-86.9
			S296.2,936,296.2,985.6z M265.6,985.6c0-37.3-26-58.9-53.2-58.9s-53.2,21.6-53.2,58.9c0,37.3,26,58.9,53.2,58.9
			S265.6,1022.8,265.6,985.6z"/>
		<path id="XMLID_32_" fill="#B9B9B9" d="M320.9,1067.1V904h29.3v26.7h1.3c6.7-18.7,30.3-30.6,47.3-30.6c9.9,0,16.6,1.3,22.9,3.9
			L410,932.6c-4.4-1.6-9.6-2.3-16.3-2.3c-21,0-42.3,17.6-42.3,47.5v89.3H320.9L320.9,1067.1z"/>
		<path id="XMLID_30_" fill="#B9B9B9" d="M537.5,858.1v75.6h97.9v28.6h-97.9v75.6H646v29.3H506.9V828.8H646v29.3H537.5z"/>
		<path id="XMLID_28_" fill="#B9B9B9" d="M706.2,926.6h1.3c8.6-15,29.3-28,51.6-28c41.6,0,62.3,28.3,62.3,68.6v99.9h-30.6v-95.2
			c0-34-16.9-45.2-40.3-45.2c-26.7,0-42.9,25.2-42.9,50.3v90.1h-30.6V904h29.3v22.6H706.2z"/>
		<path id="XMLID_26_" fill="#B9B9B9" d="M867,1017.5v-85.6h-28.6v-28H867V854h30.6v49.9h40v28h-40v83.3c0,18.4,7.6,26.7,22,26.7
			c5.7,0,9.6-0.7,14-2.6l10.6,26.3c-7,3.1-14.3,4.4-24.6,4.4C885.4,1069.7,867,1050.8,867,1017.5L867,1017.5z"/>
		<path id="XMLID_24_" fill="#B9B9B9" d="M963.5,1067.1V904h29.3v26.7h1.3c6.7-18.7,30.3-30.6,47.3-30.6c9.9,0,16.6,1.3,22.9,3.9
			l-11.7,28.6c-4.4-1.6-9.6-2.3-16.3-2.3c-21,0-42.3,17.6-42.3,47.5v89.3H963.5z"/>
		<path id="XMLID_21_" fill="#B9B9B9" d="M1065.1,985.6c0-46.2,31.9-86.9,79.9-86.9c48.6,0,79.9,34.3,79.9,86.9
			c0,2.3-0.3,5.7-0.3,5.7h-128.8c1.6,34.6,26.7,53.2,51.9,53.2c17.9,0,35.9-7.3,44.6-28l27.3,11.4c-9.6,23.3-33.7,44.6-71.2,44.6
			C1098.3,1072.3,1065.1,1034.7,1065.1,985.6L1065.1,985.6z M1144.3,926.6c-22.6,0-40.5,15.3-46.7,39.2h94.5
			C1191.2,951.6,1179.3,926.6,1144.3,926.6z"/>
		<path id="XMLID_18_" fill="#B9B9B9" d="M1278.7,1044.5h-1.3l1.3,22.6v71.9h-30.6V904h29.3v22.6h1.3c9.3-15,29.6-28,55.6-28
			c41.3,0,77.6,36.9,77.6,86.9c0,50-36.3,86.9-77.6,86.9C1308.3,1072.3,1288.1,1059.4,1278.7,1044.5L1278.7,1044.5z M1381.3,985.6
			c0-36.6-24.6-58.9-51.9-58.9c-27.3,0-51.9,21.6-51.9,58.9c0,37.3,24.6,58.9,51.9,58.9S1381.3,1022.2,1381.3,985.6z"/>
		<path id="XMLID_16_" fill="#B9B9B9" d="M1434.9,1067.1V904h29.3v26.7h1.3c6.7-18.7,30.3-30.6,47.3-30.6c9.9,0,16.6,1.3,22.9,3.9
			l-11.7,28.6c-4.4-1.6-9.6-2.3-16.3-2.3c-21,0-42.3,17.6-42.3,47.5v89.3H1434.9z"/>
		<path id="XMLID_13_" fill="#B9B9B9" d="M1536.5,985.6c0-46.2,31.9-86.9,79.9-86.9c48.6,0,79.9,34.3,79.9,86.9
			c0,2.3-0.3,5.7-0.3,5.7h-128.8c1.6,34.6,26.7,53.2,51.9,53.2c17.9,0,35.9-7.3,44.6-28l27.3,11.4c-9.6,23.3-33.5,44.6-71.2,44.6
			C1569.7,1072.3,1536.5,1034.7,1536.5,985.6z M1615.7,926.6c-22.6,0-40.5,15.3-46.7,39.2h94.5
			C1662.6,951.6,1650.5,926.6,1615.7,926.6z"/>
		<path id="XMLID_11_" fill="#B9B9B9" d="M1750.1,926.6h1.3c8.6-15,29.3-28,51.6-28c41.6,0,62.3,28.3,62.3,68.6v99.9h-30.6v-95.2
			c0-34-16.9-45.2-40.3-45.2c-26.7,0-42.9,25.2-42.9,50.3v90.1H1721V904h29.3L1750.1,926.6z"/>
		<path id="XMLID_8_" fill="#B9B9B9" d="M1888.6,985.6c0-46.2,31.9-86.9,79.9-86.9c48.6,0,79.9,34.3,79.9,86.9
			c0,2.3-0.3,5.7-0.3,5.7h-128.8c1.6,34.6,26.7,53.2,51.9,53.2c17.9,0,35.9-7.3,44.6-28l27.3,11.4c-9.6,23.3-33.7,44.6-71.2,44.6
			C1921.8,1072.3,1888.6,1034.7,1888.6,985.6z M1967.8,926.6c-22.6,0-40.5,15.3-46.7,39.2h94.5
			C2014.7,951.6,2002.8,926.6,1967.8,926.6z"/>
		<path id="XMLID_6_" fill="#B9B9B9" d="M2186.8,1067.1v-22.6h-1.3c-9,15-29.3,28-51.6,28c-42,0-62.3-28.3-62.3-68.6V904h30.6v94.8
			c0,34,16.9,45.7,40.3,45.7c26.7,0,42.9-25.7,42.9-50.6V904h30.6v163.1H2186.8z"/>
		<path id="XMLID_4_" fill="#B9B9B9" d="M2250,1067.1V904h29.3v26.7h1.3c6.7-18.7,30.3-30.6,47.3-30.6c9.9,0,16.6,1.3,22.9,3.9
			l-11.7,28.6c-4.4-1.6-9.6-2.3-16.3-2.3c-21,0-42.3,17.6-42.3,47.5v89.3H2250z"/>
		<path id="XMLID_3_" fill="#B9B9B9" d="M2355.2,1025.8l27.3-11.4c8.6,20.6,24.6,30.6,44.3,30.6c19,0,32.7-9.3,32.7-22.9
			c0-8.3-5-17.4-22.3-21.6l-33-8c-15-3.6-43.6-16.6-43.6-45.2c0-29.6,30.6-48.6,64.6-48.6c28.3,0,52.9,13,62.9,37.9l-26.7,10.9
			c-6.3-15.3-21.3-21.6-37.3-21.6c-17.4,0-32.2,7.6-32.2,21c0,10.4,8.6,16,21.6,19l32.2,7.6c32.2,7.6,44.9,27.6,44.9,47.5
			c0,29-26,51.2-64.2,51.2C2387.2,1072.3,2364.9,1049.2,2355.2,1025.8z"/>
	</g>
	<g id="XMLID_1_">
		<path id="XMLID_69_" fill="#B9B9B9" d="M1992.4,39.7h89.3V637h-89.3V39.7z"/>
		<path id="XMLID_87_" fill="#B9B9B9" d="M855.5,243c-112.5,0-204.1,85.5-204.1,203.2c0,117,91.6,203.2,204.1,203.2
			s204.1-86.2,204.1-203.2C1059.5,328.3,967.9,243,855.5,243L855.5,243z M855.5,569.3c-61.6,0-114.6-50.8-114.6-123.1
			c0-73.1,53.1-123.1,114.6-123.1s114.6,50,114.6,123.1C970.1,518.5,917,569.3,855.5,569.3z"/>
		<path id="XMLID_88_" fill="#B9B9B9" d="M325.8,305.3v86.2h206.2c-6.1,48.4-22.3,83.9-47,108.5c-30,30-77,63.2-159.3,63.2
			c-127,0-226.2-102.4-226.2-229.4s99.2-229.3,226.2-229.3c68.6,0,118.6,27,155.5,61.6l60.8-60.8c-51.6-49.3-120-86.9-216.3-86.9
			c-174,0-320.2,141.6-320.2,315.6S152,649.5,325.8,649.5c93.9,0,164.7-30.8,220.1-88.5c57-57,74.7-137,74.7-201.7
			c0-20-1.6-38.5-4.7-53.8H325.8V305.3L325.8,305.3z"/>
		<path id="XMLID_91_" fill="#B9B9B9" d="M2326.4,569.3c-45.4,0-77.7-20.7-98.6-61.6l271.7-112.5l-9.2-23
			c-16.9-45.4-68.6-129.4-174-129.4c-104.7,0-191.7,82.4-191.7,203.2c0,113.9,86.2,203.2,201.7,203.2c93.2,0,147-57,169.3-90
			l-69.3-46.2C2403.4,547,2371.9,569.3,2326.4,569.3L2326.4,569.3z M2319.6,321.5c35.4,0,65.5,17.6,75.4,43.2l-181.6,75.4
			C2211.1,361.4,2274.1,321.5,2319.6,321.5L2319.6,321.5z"/>
		<path id="XMLID_94_" fill="#B9B9B9" d="M1846.1,288.4h-3.1c-20-23.9-58.5-45.4-107.1-45.4c-101.7,0-194.7,89.3-194.7,204.1
			c0,113.9,93.2,202.4,194.7,202.4c48.4,0,86.9-21.6,107.1-46.2h3.1v29.3c0,77.7-41.6,119.3-108.5,119.3
			c-54.7,0-88.5-39.2-102.4-72.3l-77.7,32.4c22.3,53.8,81.5,120,180.1,120c104.7,0,193.3-61.6,193.3-211.6V255.3h-84.7V288.4z
			 M1743.7,569.3c-61.6,0-113.2-51.6-113.2-122.4c0-71.6,51.6-124,113.2-124c60.8,0,108.5,52.4,108.5,124
			C1852.2,517.8,1804.5,569.3,1743.7,569.3z"/>
		<path id="XMLID_97_" fill="#B9B9B9" d="M1300.3,243c-112.5,0-204.1,85.5-204.1,203.2c0,117,91.6,203.2,204.1,203.2
			s204.1-86.2,204.1-203.2C1504.4,328.3,1412.8,243,1300.3,243L1300.3,243z M1300.3,569.3c-61.6,0-114.6-50.8-114.6-123.1
			c0-73.1,53.1-123.1,114.6-123.1s114.6,50,114.6,123.1C1415.1,518.5,1362,569.3,1300.3,569.3z"/>
	</g>
</g>
</svg>
