<?xml version="1.0" encoding="utf-8"?>
<!-- Generator: Adobe Illustrator 18.0.0, SVG Export Plug-In . SVG Version: 6.00 Build 0)  -->
<!DOCTYPE svg PUBLIC "-//W3C//DTD SVG 1.1//EN" "http://www.w3.org/Graphics/SVG/1.1/DTD/svg11.dtd">
<svg version="1.1" id="图层_1" xmlns="http://www.w3.org/2000/svg" xmlns:xlink="http://www.w3.org/1999/xlink" x="0px" y="0px"
	 viewBox="0 0 300 200" enable-background="new 0 0 300 200" xml:space="preserve">
<g>
	<circle fill="#EF4E3F" cx="195.9" cy="71.4" r="1.6"/>
	<path fill="#EF4E3F" d="M190.9,55.2H185c-0.3,0-0.5,0.2-0.5,0.5c0,0.3,0.2,0.5,0.5,0.5l0,0h5.9c0.3,0,0.5-0.2,0.5-0.5
		C191.4,55.4,191.2,55.2,190.9,55.2"/>
	<path fill="#EF4E3F" d="M188.5,58.2v-4.9c0-0.3-0.2-0.5-0.5-0.5c-0.3,0-0.5,0.2-0.5,0.5v4.9c0,0.3,0.2,0.5,0.5,0.5
		C188.2,58.7,188.5,58.5,188.5,58.2"/>
	<path fill="#EF4E3F" d="M228.1,54h-5.9c-0.3,0-0.5,0.2-0.5,0.5c0,0.3,0.2,0.5,0.5,0.5l0,0h5.9c0.3,0,0.5-0.2,0.5-0.5
		C228.6,54.2,228.4,54,228.1,54"/>
	<path fill="#EF4E3F" d="M225.7,56.9V52c0-0.3-0.2-0.5-0.5-0.5s-0.5,0.2-0.5,0.5l0,0v4.9c0,0.3,0.2,0.5,0.5,0.5
		S225.7,57.2,225.7,56.9"/>
	<circle fill="none" stroke="#EF4E3F" stroke-width="0.7757" stroke-miterlimit="10" cx="188" cy="38.8" r="1.6"/>
	<line fill="none" stroke="#EF4E3F" stroke-width="2.3272" stroke-miterlimit="10" x1="133.2" y1="130.2" x2="120.5" y2="180.1"/>
	<line fill="none" stroke="#EF4E3F" stroke-width="2.3272" stroke-miterlimit="10" x1="169.5" y1="130.2" x2="182.1" y2="180.1"/>
	<g>
		<defs>
			<path id="SVGID_1_" d="M93.2,44.5h115.5c4.1,0,7.4,3.3,7.4,7.4v71.9c0,4.1-3.3,7.4-7.4,7.4H93.2c-4.1,0-7.4-3.3-7.4-7.4V51.9
				C85.8,47.8,89.1,44.5,93.2,44.5z"/>
		</defs>
		<clipPath id="SVGID_2_">
			<use xlink:href="#SVGID_1_"  overflow="visible"/>
		</clipPath>
		<g clip-path="url(#SVGID_2_)">
			<path fill="#B3D5E0" d="M211.4,47.1c0,0.3,0.1,0.6,0.1,0.9v72c0,4.1-3.3,7.4-7.4,7.4H88.5c-0.6,0-1.3-0.1-1.9-0.3
				c0.5,3.7,3.6,6.5,7.4,6.5h115.5c4.1,0,7.4-3.3,7.4-7.4v-72C216.9,50.9,214.6,47.9,211.4,47.1z"/>
		</g>
	</g>
	<path id="_Rectangle_7_1_" fill="none" stroke="#53AACE" stroke-width="1.5515" stroke-miterlimit="10" d="M93.2,44.5h115.5
		c4.1,0,7.4,3.3,7.4,7.4v71.9c0,4.1-3.3,7.4-7.4,7.4H93.2c-4.1,0-7.4-3.3-7.4-7.4V51.9C85.8,47.8,89.1,44.5,93.2,44.5z"/>
	
		<line fill="none" stroke="#B3D5E0" stroke-width="1.5515" stroke-linecap="round" stroke-linejoin="round" x1="109.6" y1="118.8" x2="195.6" y2="118.8"/>
	<line fill="none" stroke="#EF4E3F" stroke-width="2.3272" stroke-miterlimit="10" x1="127.8" y1="155.2" x2="174.9" y2="155.2"/>
	<polyline fill="none" stroke="#FFFFFF" stroke-width="2.3272" stroke-linecap="round" stroke-linejoin="round" points="
		114.3,103.3 131.1,88.3 139.1,96.6 163.9,72 176.3,83.9 219.9,40.3 	"/>
	<polygon fill="#FFFFFF" points="221.2,52.5 218.9,52.4 219.3,41 207.8,41.4 207.7,39.1 221.7,38.6 	"/>
	<polyline fill="none" stroke="#FFCDCC" stroke-width="1.5515" stroke-linejoin="round" points="113.5,102.6 130.3,87.6 138.3,95.9 
		163.1,71.3 175.5,83.2 219.9,38.9 	"/>
	
		<line fill="none" stroke="#53AACE" stroke-width="1.5515" stroke-linecap="round" stroke-linejoin="round" x1="108.3" y1="119.6" x2="194.4" y2="119.6"/>
	<path id="_Rectangle_8_1_" fill="#FFFFFF" d="M189,94h35.1c0.6,0,1.1,0.5,1.1,1.1v47.5c0,0.6-0.5,1.1-1.1,1.1H189
		c-0.6,0-1.1-0.5-1.1-1.1V95.1C188,94.5,188.4,94,189,94z"/>
	<g>
		<defs>
			<path id="SVGID_3_" d="M189,94h35.1c0.6,0,1.1,0.5,1.1,1.1v47.5c0,0.6-0.5,1.1-1.1,1.1H189c-0.6,0-1.1-0.5-1.1-1.1V95.1
				C188,94.5,188.4,94,189,94z"/>
		</defs>
		<clipPath id="SVGID_4_">
			<use xlink:href="#SVGID_3_"  overflow="visible"/>
		</clipPath>
		<g clip-path="url(#SVGID_4_)">
			<path fill="#FFCDCC" d="M226.2,93.6h-2.4v47.7c0,0.6-0.5,1.1-1.1,1.1h-35v2.8c0,0.6,0.5,1.1,1.1,1.1h37.4c0.6,0,1.1-0.5,1.1-1.1
				V94.7C227.2,94.1,226.8,93.6,226.2,93.6C226.2,93.6,226.2,93.6,226.2,93.6z"/>
		</g>
	</g>
	
		<path id="_Rectangle_9_1_" fill="none" stroke="#EF4E3F" stroke-width="1.5515" stroke-linecap="round" stroke-linejoin="round" d="
		M189,94h35.1c0.6,0,1.1,0.5,1.1,1.1v47.5c0,0.6-0.5,1.1-1.1,1.1H189c-0.6,0-1.1-0.5-1.1-1.1V95.1C188,94.5,188.4,94,189,94z"/>
	<path fill="none" stroke="#EF4E3F" stroke-width="0.7757" stroke-linecap="round" stroke-linejoin="round" d="M192,96.7h29.2
		c0.6,0,1.1,0.5,1.1,1.1V140c0,0.6-0.5,1.1-1.1,1.1H192c-0.6,0-1.1-0.5-1.1-1.1V97.8C190.9,97.2,191.4,96.7,192,96.7z"/>
	<path fill="#FFCDCC" d="M199.2,92h16.3c1.2,0,2.1,1,2.1,2.1l0,0v4.7c0,0.5-0.4,1-1,1h-17.8c-1,0-1.8-0.8-1.8-1.8v-3.8
		C197.1,93,198,92.1,199.2,92C199.2,92,199.2,92,199.2,92z"/>
	<path fill="#EF4E3F" d="M218.6,115.6c-0.9-3.9-3.9-7-7.8-8l-2.8,10.5L218.6,115.6z"/>
	<path fill="#53AACE" d="M206.4,119.6l2.8-10.5c-5.8-1.5-11.7,1.9-13.3,7.7c-1.5,5.8,1.9,11.7,7.7,13.3c5.8,1.5,11.7-1.9,13.3-7.7
		c0.5-1.7,0.5-3.5,0.1-5.2L206.4,119.6z"/>
	<path id="_Rectangle_10" fill="#FFFFFF" d="M198.4,90.9h16.3c1.2,0,2.1,1,2.1,2.1l0,0v5.6l0,0h-20.6l0,0v-5.6
		C196.3,91.9,197.2,90.9,198.4,90.9z"/>
	<g>
		<defs>
			<path id="SVGID_5_" d="M198.4,90.9h16.3c1.2,0,2.1,1,2.1,2.1l0,0v5.6l0,0h-20.6l0,0v-5.6C196.3,91.9,197.2,90.9,198.4,90.9z"/>
		</defs>
		<clipPath id="SVGID_6_">
			<use xlink:href="#SVGID_5_"  overflow="visible"/>
		</clipPath>
		<g clip-path="url(#SVGID_6_)">
			<path fill="#FFCDCC" d="M215.1,91.1L215.1,91.1v4.2c0,0.8-0.6,1.4-1.4,1.4h-17.2v2.1h20.6v-5.6C217,92.2,216.2,91.2,215.1,91.1z"
				/>
		</g>
	</g>
	<path id="_Rectangle_11" fill="none" stroke="#EF4E3F" stroke-width="0.7757" stroke-linecap="round" stroke-linejoin="round" d="
		M198.4,90.9h16.3c1.2,0,2.1,1,2.1,2.1l0,0v5.6l0,0h-20.6l0,0v-5.6C196.3,91.9,197.2,90.9,198.4,90.9z"/>
	<path id="_Rectangle_12" fill="#FFFFFF" d="M200.9,87.7h11.4c0.9,0,1.6,0.7,1.6,1.6v1.4l0,0h-14.7l0,0v-1.4
		C199.2,88.5,200,87.7,200.9,87.7C200.9,87.7,200.9,87.7,200.9,87.7z"/>
	<g>
		<defs>
			<path id="SVGID_7_" d="M200.9,87.7h11.4c0.9,0,1.6,0.7,1.6,1.6v1.4l0,0h-14.7l0,0v-1.4C199.2,88.5,200,87.7,200.9,87.7
				C200.9,87.7,200.9,87.7,200.9,87.7z"/>
		</defs>
		<clipPath id="SVGID_8_">
			<use xlink:href="#SVGID_7_"  overflow="visible"/>
		</clipPath>
		<g clip-path="url(#SVGID_8_)">
			<path fill="#FFCDCC" d="M212.7,87.8c0.1,0.2,0.1,0.3,0.1,0.5v0.9c0,0.3-0.3,0.6-0.6,0.6h-13.1v1h14.7v-1.4
				C213.8,88.7,213.3,88.1,212.7,87.8z"/>
		</g>
	</g>
	<path id="_Rectangle_13" fill="none" stroke="#EF4E3F" stroke-width="0.8921" stroke-linecap="round" stroke-linejoin="round" d="
		M200.9,87.7h11.4c0.9,0,1.6,0.7,1.6,1.6v1.4l0,0h-14.7l0,0v-1.4C199.2,88.5,200,87.7,200.9,87.7C200.9,87.7,200.9,87.7,200.9,87.7z
		"/>
	<circle fill="#EF4E3F" cx="113.5" cy="100.2" r="2.3"/>
	<polyline fill="none" stroke="#EF4E3F" stroke-width="2.3272" stroke-linecap="round" stroke-linejoin="round" points="
		113.5,100.2 130.3,85.2 138.3,93.5 163.1,68.9 175.5,80.8 219.7,36.7 	"/>
	<polygon fill="#EF4E3F" points="220.6,45.4 218.9,45.3 219.2,37.2 211.1,37.5 211,35.8 220.9,35.5 	"/>
	<circle id="_Ellipse_2" fill="#8AC1CE" cx="97.4" cy="56.8" r="25.1"/>
	<g>
		<defs>
			<circle id="SVGID_9_" cx="97.4" cy="56.8" r="25.1"/>
		</defs>
		<clipPath id="SVGID_10_">
			<use xlink:href="#SVGID_9_"  overflow="visible"/>
		</clipPath>
		<g clip-path="url(#SVGID_10_)">
			<circle id="_Ellipse_3" fill="#E6FAFF" cx="95.2" cy="54.8" r="25.1"/>
			<ellipse fill="none" stroke="#53AACE" stroke-width="0.9309" stroke-miterlimit="10" cx="97.4" cy="82.5" rx="25.1" ry="14.9"/>
			<path fill="none" stroke="#53AACE" stroke-width="0.9309" stroke-miterlimit="10" d="M97.4,31.4c-8.1,4.9-13.5,14.4-13.5,25.4
				s5.5,20.5,13.5,25.4c8.1-4.9,13.5-14.4,13.5-25.4S105.5,36.3,97.4,31.4z"/>
			<ellipse fill="none" stroke="#53AACE" stroke-width="0.9309" stroke-miterlimit="10" cx="97.4" cy="31" rx="25.1" ry="14.9"/>
		</g>
	</g>
	
		<circle id="_Ellipse_4" fill="none" stroke="#53AACE" stroke-width="0.9309" stroke-miterlimit="10" cx="97.4" cy="56.8" r="25.1"/>
	<line fill="none" stroke="#53AACE" stroke-width="0.9309" stroke-miterlimit="10" x1="97.4" y1="31.7" x2="97.4" y2="81.9"/>
	<line fill="none" stroke="#53AACE" stroke-width="0.9309" stroke-miterlimit="10" x1="72.3" y1="56.8" x2="122.5" y2="56.8"/>
	<path id="_Clipping_Path_2" opacity="0.2" fill="#EF4E3F" enable-background="new    " d="M97.4,67.3c-6.4,0-11.6-5.2-11.6-11.6
		S91,44.1,97.4,44.1c6.4,0,11.6,5.2,11.6,11.6c0,0,0,0,0,0C109,62.1,103.8,67.3,97.4,67.3z"/>
	<g>
		<defs>
			<path id="SVGID_11_" d="M97.4,67.3c-6.4,0-11.6-5.2-11.6-11.6S91,44.1,97.4,44.1c6.4,0,11.6,5.2,11.6,11.6c0,0,0,0,0,0
				C109,62.1,103.8,67.3,97.4,67.3z"/>
		</defs>
		<clipPath id="SVGID_12_">
			<use xlink:href="#SVGID_11_"  overflow="visible"/>
		</clipPath>
		<g clip-path="url(#SVGID_12_)">
			<polygon opacity="0.5" fill="#FFFFFF" enable-background="new    " points="84,61 79.4,56.3 107.5,45.5 112.1,50.1 			"/>
			<polygon opacity="0.5" fill="#FFFFFF" enable-background="new    " points="87.4,64.4 85,62 113.1,51.1 115.6,53.6 			"/>
		</g>
	</g>
	
		<path id="_Clipping_Path_3" opacity="0.2" fill="none" stroke="#EF4E3F" stroke-width="0.2482" stroke-miterlimit="10" enable-background="new    " d="
		M97.4,67.3c-6.4,0-11.6-5.2-11.6-11.6S91,44.1,97.4,44.1c6.4,0,11.6,5.2,11.6,11.6c0,0,0,0,0,0C109,62.1,103.8,67.3,97.4,67.3z"/>
	<path fill="none" stroke="#EF7F24" stroke-width="0.2482" stroke-miterlimit="10" d="M97.4,67.3c-6.4,0-11.6-5.2-11.6-11.6
		S91,44.1,97.4,44.1c6.4,0,11.6,5.2,11.6,11.6c0,0,0,0,0,0C109,62.1,103.8,67.3,97.4,67.3z"/>
	<path id="_Compound_Clipping_Path_2" fill="#EDA7A4" d="M97.4,42.7c-7.2,0-13,5.8-13,13s5.8,13,13,13c7.2,0,13-5.8,13-13l0,0
		C110.5,48.5,104.6,42.7,97.4,42.7z M97.4,67.3c-6.4,0-11.6-5.2-11.6-11.6S91,44.1,97.4,44.1c6.4,0,11.6,5.2,11.6,11.6c0,0,0,0,0,0
		C109,62.1,103.8,67.3,97.4,67.3z"/>
	<g>
		<defs>
			<path id="SVGID_13_" d="M97.4,42.7c-7.2,0-13,5.8-13,13s5.8,13,13,13c7.2,0,13-5.8,13-13l0,0C110.5,48.5,104.6,42.7,97.4,42.7z
				 M97.4,67.3c-6.4,0-11.6-5.2-11.6-11.6S91,44.1,97.4,44.1c6.4,0,11.6,5.2,11.6,11.6c0,0,0,0,0,0C109,62.1,103.8,67.3,97.4,67.3z"
				/>
		</defs>
		<clipPath id="SVGID_14_">
			<use xlink:href="#SVGID_13_"  overflow="visible"/>
		</clipPath>
		<g clip-path="url(#SVGID_14_)">
			<polygon fill="#F4D0CE" points="84,61 79.4,56.3 107.5,45.5 112.1,50.1 			"/>
			<polygon fill="#F4D0CE" points="87.4,64.4 85,62 113.1,51.1 115.6,53.6 			"/>
		</g>
	</g>
	<path id="_Compound_Clipping_Path_3" fill="none" stroke="#EF4E3F" stroke-width="0.4887" stroke-miterlimit="10" d="M97.4,42.7
		c-7.2,0-13,5.8-13,13s5.8,13,13,13c7.2,0,13-5.8,13-13l0,0C110.5,48.5,104.6,42.7,97.4,42.7z M97.4,67.3c-6.4,0-11.6-5.2-11.6-11.6
		S91,44.1,97.4,44.1c6.4,0,11.6,5.2,11.6,11.6c0,0,0,0,0,0C109,62.1,103.8,67.3,97.4,67.3z"/>
	<g>
		<defs>
			
				<rect id="SVGID_15_" x="84.3" y="64" transform="matrix(-0.7071 -0.7071 0.7071 -0.7071 99.1468 175.6055)" width="3.3" height="6.5"/>
		</defs>
		<clipPath id="SVGID_16_">
			<use xlink:href="#SVGID_15_"  overflow="visible"/>
		</clipPath>
		<g clip-path="url(#SVGID_16_)">
			
				<rect x="87.3" y="64.2" transform="matrix(-0.7071 -0.7071 0.7071 -0.7071 103.0737 177.3091)" fill="#FFCECC" width="2" height="6.3"/>
		</g>
	</g>
	
		<rect id="_Rectangle_14" x="84.3" y="64" transform="matrix(-0.7071 -0.7071 0.7071 -0.7071 99.1468 175.6055)" fill="none" stroke="#EF4E3F" stroke-width="0.4887" stroke-miterlimit="10" width="3.3" height="6.5"/>
	<path id="_Rectangle_15" fill="#FFFFFF" d="M84.2,66l3,3c0.5,0.5,0.5,1.2,0,1.6L76.3,81.5c-0.5,0.5-1.2,0.5-1.6,0l-3-3
		c-0.5-0.5-0.5-1.2,0-1.6L82.6,66C83,65.6,83.7,65.6,84.2,66z"/>
	<g>
		<defs>
			<path id="SVGID_17_" d="M84.2,66l3,3c0.5,0.5,0.5,1.2,0,1.6L76.3,81.5c-0.5,0.5-1.2,0.5-1.6,0l-3-3c-0.5-0.5-0.5-1.2,0-1.6
				L82.6,66C83,65.6,83.7,65.6,84.2,66z"/>
		</defs>
		<clipPath id="SVGID_18_">
			<use xlink:href="#SVGID_17_"  overflow="visible"/>
		</clipPath>
		<g clip-path="url(#SVGID_18_)">
			<path fill="#FFCECC" d="M86.2,68.2c0.4,0.4,0.4,0.9,0,1.3L75,80.6c-0.4,0.4-0.9,0.4-1.3,0l0.9,0.9c0.5,0.5,1.2,0.5,1.6,0
				c0,0,0,0,0,0l10.9-10.9c0.5-0.5,0.5-1.2,0-1.6c0,0,0,0,0,0l-1.3-1.3"/>
		</g>
	</g>
	<path id="_Rectangle_16" fill="none" stroke="#EF4E3F" stroke-width="0.4887" stroke-miterlimit="10" d="M84.2,66l3,3
		c0.5,0.5,0.5,1.2,0,1.6L76.3,81.5c-0.5,0.5-1.2,0.5-1.6,0l-3-3c-0.5-0.5-0.5-1.2,0-1.6L82.6,66C83,65.6,83.7,65.6,84.2,66z"/>
	<line fill="none" stroke="#EF4E3F" stroke-width="0.4887" stroke-miterlimit="10" x1="81.1" y1="67.6" x2="85.6" y2="72.1"/>
	<circle fill="#EF4E3F" cx="212.4" cy="59.1" r="1.6"/>
	<path fill="#EF4E3F" d="M209.3,67.4V67c-1.5,0-2.8,1.3-2.8,2.8c0,1.5,1.3,2.8,2.8,2.8s2.8-1.3,2.8-2.8c0-1.5-1.3-2.8-2.8-2.8l0,0
		v0.9c1,0,1.9,0.9,1.9,1.9s-0.9,1.9-1.9,1.9c-1,0-1.9-0.9-1.9-1.9c0-1,0.8-1.9,1.9-1.9L209.3,67.4z"/>
	<circle fill="#EF4E3F" cx="200.4" cy="43.2" r="1.6"/>
</g>
</svg>
