<?xml version="1.0" encoding="UTF-8"?>
<svg width="1796px" height="477px" viewBox="0 0 1796 477" version="1.1" xmlns="http://www.w3.org/2000/svg" xmlns:xlink="http://www.w3.org/1999/xlink">
    <!-- Generator: Sketch 43.1 (39012) - http://www.bohemiancoding.com/sketch -->
    <title>City</title>
    <desc>Created with Sketch.</desc>
    <defs>
        <polygon id="path-1" points="0 475.897026 1795.84648 475.897026 1795.84648 0.175199688 0 0.175199688"></polygon>
    </defs>
    <g id="UI" stroke="none" stroke-width="1" fill="none" fill-rule="evenodd">
        <g id="01.01.Desktop" transform="translate(-62.000000, -4602.000000)">
            <g id="City" transform="translate(62.000000, 4602.000000)">
                <g>
                    <polyline id="Stroke-1" stroke="#EDEDED" stroke-width="5" stroke-linecap="round" stroke-linejoin="round" points="1075.82674 301.646501 1075.82674 134.055433 1158.27756 134.055433"></polyline>
                    <polyline id="Stroke-2" stroke="#EDEDED" stroke-width="5" stroke-linecap="round" stroke-linejoin="round" points="1223.59941 119.419109 1223.59941 99.4787796 1213.56067 99.4787796 1213.56067 38.6220894 1180.09729 38.6220894 1180.09729 64.1685152 1169.79094 64.1685152 1169.79094 103.223869 1158.94869 103.223869 1158.94869 183.677464"></polyline>
                    <polyline id="Stroke-3" stroke="#EDEDED" stroke-width="5" stroke-linecap="round" stroke-linejoin="round" points="1123.07655 300.777624 1123.07655 254.298604 1135.65894 254.298604 1135.65894 237.846814 1146.0991 237.846814 1146.0991 211.363777 1159.0829 211.363777 1159.0829 183.677396 1198.71488 183.677396"></polyline>
                    <path d="M1186.44848,205.627097 L1186.44848,292.818867" id="Stroke-4" stroke="#EDEDED" stroke-width="5" stroke-linecap="round" stroke-linejoin="round"></path>
                    <path d="M1173.58457,205.627097 L1173.58457,292.818867" id="Stroke-5" stroke="#EDEDED" stroke-width="5" stroke-linecap="round" stroke-linejoin="round"></path>
                    <path d="M1161.71019,221.729829 L1161.71019,292.819343" id="Stroke-6" stroke="#EDEDED" stroke-width="5" stroke-linecap="round" stroke-linejoin="round"></path>
                    <path d="M1148.84628,249.22305 L1148.84628,292.818935" id="Stroke-7" stroke="#EDEDED" stroke-width="5" stroke-linecap="round" stroke-linejoin="round"></path>
                    <polyline id="Stroke-8" stroke="#EDEDED" stroke-width="5" stroke-linecap="round" stroke-linejoin="round" points="1194.92162 301.312307 1059.09499 301.312307 1059.09499 421.508105"></polyline>
                    <path d="M1078.58953,301.312307 L1078.58953,360.965655" id="Stroke-9" stroke="#EDEDED" stroke-width="5" stroke-linecap="round" stroke-linejoin="round"></path>
                    <path d="M1099.3697,301.312307 L1099.3697,334.750027" id="Stroke-10" stroke="#EDEDED" stroke-width="5" stroke-linecap="round" stroke-linejoin="round"></path>
                    <path d="M1120.14986,301.312307 L1120.14986,321.776596" id="Stroke-11" stroke="#EDEDED" stroke-width="5" stroke-linecap="round" stroke-linejoin="round"></path>
                    <path d="M1140.93003,301.312307 L1140.93003,333.947799" id="Stroke-12" stroke="#EDEDED" stroke-width="5" stroke-linecap="round" stroke-linejoin="round"></path>
                    <path d="M1161.71019,301.312307 L1161.71019,340.63575" id="Stroke-13" stroke="#EDEDED" stroke-width="5" stroke-linecap="round" stroke-linejoin="round"></path>
                    <path d="M1181.50083,301.312307 L1181.50083,335.887535" id="Stroke-14" stroke="#EDEDED" stroke-width="5" stroke-linecap="round" stroke-linejoin="round"></path>
                    <path d="M1194.92121,320.652893 L1059.09526,320.652893" id="Stroke-15" stroke="#EDEDED" stroke-width="5" stroke-linecap="round" stroke-linejoin="round"></path>
                    <path d="M1089.81422,341.43595 L1059.09553,341.43595" id="Stroke-16" stroke="#EDEDED" stroke-width="5" stroke-linecap="round" stroke-linejoin="round"></path>
                    <path d="M1075.82674,362.219008 L1059.09505,362.219008" id="Stroke-17" stroke="#EDEDED" stroke-width="5" stroke-linecap="round" stroke-linejoin="round"></path>
                    <path d="M1071.50424,381.022727 L1059.09505,381.022727" id="Stroke-18" stroke="#EDEDED" stroke-width="5" stroke-linecap="round" stroke-linejoin="round"></path>
                    <path d="M1079.57456,403.785124 L1059.09499,403.785124" id="Stroke-19" stroke="#EDEDED" stroke-width="5" stroke-linecap="round" stroke-linejoin="round"></path>
                    <g id="Group-232">
                        <path d="M1169.53276,347.492429 L1169.90021,473.722562 L1022.86935,473.722562 C1021.15397,469.804798 1020.17348,465.641631 1020.17348,461.111912 C1020.17348,445.929803 1030.95632,433.441544 1045.29177,430.625302 C1047.12963,424.136701 1053.13315,419.361577 1060.23963,419.361577 C1061.46508,419.361577 1062.68991,419.60636 1063.91536,419.851143 L1063.91536,419.361577 C1063.91536,415.688597 1065.26329,412.38279 1067.34611,409.688939 C1060.97515,405.648785 1056.68639,398.425215 1056.68639,390.344284 C1056.68639,381.161833 1062.19998,373.203915 1070.04136,369.653325 C1069.91887,369.040748 1069.79639,368.3064 1069.79639,367.571431 C1069.79639,361.205221 1074.57508,355.940533 1080.7017,355.083173 C1083.76439,346.023112 1092.34129,339.411498 1102.38861,339.411498 C1114.64123,339.411498 1124.56606,348.961745 1125.17847,360.960439 C1129.09916,357.654632 1134.2453,355.69575 1139.75889,355.69575 C1143.43461,355.69575 1146.98786,356.67488 1150.17365,358.266588 C1154.21682,351.777366 1161.32393,347.492429 1169.53276,347.492429 Z" id="Stroke-20" stroke="#EDEDED" stroke-width="5" stroke-linecap="round" stroke-linejoin="round"></path>
                        <polyline id="Stroke-22" stroke="#EDEDED" stroke-width="5" stroke-linecap="round" stroke-linejoin="round" points="1191.95511 205.896848 1191.95511 154.2906 1303.0861 154.2906 1303.0861 205.89747"></polyline>
                        <path d="M1310.92786,473.061983 L1191.95486,473.061983" id="Stroke-24" stroke="#EDEDED" stroke-width="5" stroke-linecap="round" stroke-linejoin="round"></path>
                        <polygon id="Stroke-26" stroke="#EDEDED" stroke-width="5" stroke-linecap="round" stroke-linejoin="round" points="1294.63193 154.290786 1200.28667 154.290786 1205.67778 130.783585 1289.24083 130.783585"></polygon>
                        <mask id="mask-2" fill="white">
                            <use xlink:href="#path-1"></use>
                        </mask>
                        <g id="Clip-29"></g>
                        <polygon id="Stroke-28" stroke="#EDEDED" stroke-width="5" fill="#FFFFFF" stroke-linecap="round" stroke-linejoin="round" mask="url(#mask-2)" points="1169.90014 473.60017 1214.25443 473.60017 1214.25443 287.2548 1169.90014 287.2548"></polygon>
                        <polygon id="Stroke-30" stroke="#EDEDED" stroke-width="5" stroke-linecap="round" stroke-linejoin="round" mask="url(#mask-2)" points="1174.80132 287.2548 1209.35388 287.2548 1209.35388 206.570373 1174.80132 206.570373"></polygon>
                        <polygon id="Stroke-31" stroke="#EDEDED" stroke-width="5" stroke-linecap="round" stroke-linejoin="round" mask="url(#mask-2)" points="1284.70748 287.2548 1319.26004 287.2548 1319.26004 206.570373 1284.70748 206.570373"></polygon>
                        <polyline id="Stroke-32" stroke="#EDEDED" stroke-width="5" stroke-linecap="round" stroke-linejoin="round" mask="url(#mask-2)" points="1324.03829 440.766071 1324.03829 287.254489 1279.68401 287.254489 1279.68401 472.865512"></polyline>
                        <polyline id="Stroke-33" stroke="#EDEDED" stroke-width="5" stroke-linecap="round" stroke-linejoin="round" mask="url(#mask-2)" points="1303.37577 183.299878 1313.25273 183.299878 1313.25273 155.138082 1327.0597 155.138082 1327.0597 125.696457 1402.78261 125.696457 1402.78261 199.079033"></polyline>
                        <path d="M1256.28135,57.3225423 L1239.61749,57.3225423 L1239.61749,69.8108009 C1239.61749,90.5023811 1236.30983,111.07157 1230.06073,130.783399 L1264.85825,130.783399 C1259.22218,111.07157 1256.28135,90.6247724 1255.91391,70.1779747 L1256.28135,57.3225423 Z" id="Stroke-34" stroke="#EDEDED" stroke-width="5" stroke-linecap="round" stroke-linejoin="round" mask="url(#mask-2)"></path>
                        <path d="M1246.80992,57.3225423 L1246.80992,2.34960178" id="Stroke-35" stroke="#EDEDED" stroke-width="5" stroke-linecap="round" stroke-linejoin="round" mask="url(#mask-2)"></path>
                        <path d="M1233.49149,118.760331 L1261.54998,118.760331" id="Stroke-36" stroke="#EDEDED" stroke-width="5" stroke-linecap="round" stroke-linejoin="round" mask="url(#mask-2)"></path>
                        <path d="M1236.06456,105.894628 L1258.65112,105.894628" id="Stroke-37" stroke="#EDEDED" stroke-width="5" stroke-linecap="round" stroke-linejoin="round" mask="url(#mask-2)"></path>
                        <path d="M1238.96348,94.018595 L1257.62935,94.018595" id="Stroke-38" stroke="#EDEDED" stroke-width="5" stroke-linecap="round" stroke-linejoin="round" mask="url(#mask-2)"></path>
                        <path d="M1240.31135,81.1528926 L1256.40384,81.1528926" id="Stroke-39" stroke="#EDEDED" stroke-width="5" stroke-linecap="round" stroke-linejoin="round" mask="url(#mask-2)"></path>
                        <path d="M1240.31135,68.2871901 L1254.73011,68.2871901" id="Stroke-40" stroke="#EDEDED" stroke-width="5" stroke-linecap="round" stroke-linejoin="round" mask="url(#mask-2)"></path>
                        <path d="M1199.3124,169.386973 L1199.3124,191.841112" id="Stroke-41" stroke="#EDEDED" stroke-width="5" stroke-linecap="round" stroke-linejoin="round" mask="url(#mask-2)"></path>
                        <path d="M1211.18678,169.386973 L1211.18678,191.841112" id="Stroke-42" stroke="#EDEDED" stroke-width="5" stroke-linecap="round" stroke-linejoin="round" mask="url(#mask-2)"></path>
                        <path d="M1223.06116,169.386973 L1223.06116,457.104623" id="Stroke-43" stroke="#EDEDED" stroke-width="5" stroke-linecap="round" stroke-linejoin="round" mask="url(#mask-2)"></path>
                        <path d="M1234.93554,169.386973 L1234.93554,457.104623" id="Stroke-44" stroke="#EDEDED" stroke-width="5" stroke-linecap="round" stroke-linejoin="round" mask="url(#mask-2)"></path>
                        <path d="M1246.80992,169.386973 L1246.80992,457.104623" id="Stroke-45" stroke="#EDEDED" stroke-width="5" stroke-linecap="round" stroke-linejoin="round" mask="url(#mask-2)"></path>
                        <path d="M1258.6843,169.386973 L1258.6843,457.104623" id="Stroke-46" stroke="#EDEDED" stroke-width="5" stroke-linecap="round" stroke-linejoin="round" mask="url(#mask-2)"></path>
                        <path d="M1270.55868,169.386973 L1270.55868,457.104623" id="Stroke-47" stroke="#EDEDED" stroke-width="5" stroke-linecap="round" stroke-linejoin="round" mask="url(#mask-2)"></path>
                        <path d="M1282.43306,169.386973 L1282.43306,191.841112" id="Stroke-48" stroke="#EDEDED" stroke-width="5" stroke-linecap="round" stroke-linejoin="round" mask="url(#mask-2)"></path>
                        <path d="M1294.30744,169.386973 L1294.30744,191.841112" id="Stroke-49" stroke="#EDEDED" stroke-width="5" stroke-linecap="round" stroke-linejoin="round" mask="url(#mask-2)"></path>
                        <polyline id="Stroke-50" stroke="#EDEDED" stroke-width="5" stroke-linecap="round" stroke-linejoin="round" mask="url(#mask-2)" points="1533.86405 186.956519 1533.86405 174.06381 1524.0617 174.06381 1524.0617 149.944032 1513.52446 149.944032 1513.52446 86.0334223 1478.3601 86.0334223 1478.3601 112.724039 1467.57727 112.724039 1467.57727 153.862417 1456.18265 153.862417 1456.18265 197.18085"></polyline>
                        <polyline id="Stroke-51" stroke="#EDEDED" stroke-width="5" stroke-linecap="round" stroke-linejoin="round" mask="url(#mask-2)" points="1622.75584 218.578013 1622.75647 198.733231 1614.30267 198.733231 1614.30267 161.390847 1598.3737 161.390847 1595.31101 122.456754 1548.38335 122.456754 1545.32004 161.390847 1529.39169 198.733231 1520.56982 198.733231 1520.56982 272.071696 1512.11541 272.071696 1512.11541 339.411747"></polyline>
                        <polygon id="Stroke-52" stroke="#EDEDED" stroke-width="5" stroke-linecap="round" stroke-linejoin="round" mask="url(#mask-2)" points="1530.80074 228.98475 1546.97405 228.98475 1546.97405 208.170779 1530.80074 208.170779"></polygon>
                        <polygon id="Stroke-53" stroke="#EDEDED" stroke-width="5" stroke-linecap="round" stroke-linejoin="round" mask="url(#mask-2)" points="1558.61426 228.98475 1574.78757 228.98475 1574.78757 208.170779 1558.61426 208.170779"></polygon>
                        <polygon id="Stroke-54" stroke="#EDEDED" stroke-width="5" stroke-linecap="round" stroke-linejoin="round" mask="url(#mask-2)" points="1530.80074 264.971512 1546.97405 264.971512 1546.97405 244.15754 1530.80074 244.15754"></polygon>
                        <polyline id="Stroke-55" stroke="#EDEDED" stroke-width="5" stroke-linecap="round" stroke-linejoin="round" mask="url(#mask-2)" points="1521.6726 341.528867 1521.6726 325.698147 1537.84592 325.698147 1537.84592 346.512118 1533.39426 346.512118"></polyline>
                        <polygon id="Stroke-56" stroke="#EDEDED" stroke-width="5" stroke-linecap="round" stroke-linejoin="round" mask="url(#mask-2)" points="1521.67235 309.476581 1537.84567 309.476581 1537.84567 288.66261 1521.67235 288.66261"></polygon>
                        <polygon id="Stroke-57" stroke="#EDEDED" stroke-width="5" stroke-linecap="round" stroke-linejoin="round" mask="url(#mask-2)" points="1556.46988 156.126531 1586.78653 156.126531 1586.78653 132.923755 1556.46988 132.923755"></polygon>
                        <polyline id="Stroke-58" stroke="#EDEDED" stroke-width="5" stroke-linecap="round" stroke-linejoin="round" mask="url(#mask-2)" points="1792.94551 295.701537 1792.94551 217.528306 1782.53075 217.528306 1782.53075 171.493035 1762.92667 171.493035 1759.12847 123.49826 1701.41859 123.49826 1697.62039 171.493035 1678.01569 171.493035 1678.01569 199.46907"></polyline>
                        <polyline id="Stroke-59" stroke="#EDEDED" stroke-width="5" stroke-linecap="round" stroke-linejoin="round" mask="url(#mask-2)" points="1396.08343 125.69565 1396.08343 71.2184869 1484.85355 71.2184869 1484.85355 86.0334223"></polyline>
                        <polyline id="Stroke-60" stroke="#EDEDED" stroke-width="5" stroke-linecap="round" stroke-linejoin="round" mask="url(#mask-2)" points="1692.48718 328.988049 1692.48718 305.293223 1793.67033 305.293223 1793.67033 472.865512 1710.11785 472.865512"></polyline>
                        <polygon id="Stroke-61" stroke="#EDEDED" stroke-width="5" stroke-linecap="round" stroke-linejoin="round" mask="url(#mask-2)" points="1692.48724 305.20407 1793.67039 305.20407 1793.67039 296.51926 1692.48724 296.51926"></polygon>
                        <path d="M1793.67015,318.673554 L1692.7189,318.673554" id="Stroke-62" stroke="#EDEDED" stroke-width="5" stroke-linecap="round" stroke-linejoin="round" mask="url(#mask-2)"></path>
                        <path d="M1793.67015,342.42562 L1710.25942,342.42562" id="Stroke-63" stroke="#EDEDED" stroke-width="5" stroke-linecap="round" stroke-linejoin="round" mask="url(#mask-2)"></path>
                        <path d="M1793.67015,365.188017 L1708.15732,365.188017" id="Stroke-64" stroke="#EDEDED" stroke-width="5" stroke-linecap="round" stroke-linejoin="round" mask="url(#mask-2)"></path>
                        <path d="M1793.67015,387.950413 L1708.15732,387.950413" id="Stroke-65" stroke="#EDEDED" stroke-width="5" stroke-linecap="round" stroke-linejoin="round" mask="url(#mask-2)"></path>
                        <path d="M1793.67015,410.71281 L1708.15732,410.71281" id="Stroke-66" stroke="#EDEDED" stroke-width="5" stroke-linecap="round" stroke-linejoin="round" mask="url(#mask-2)"></path>
                        <path d="M1793.67015,433.475207 L1710.25942,433.475207" id="Stroke-67" stroke="#EDEDED" stroke-width="5" stroke-linecap="round" stroke-linejoin="round" mask="url(#mask-2)"></path>
                        <path d="M1793.67015,456.237603 L1718.93953,456.237603" id="Stroke-68" stroke="#EDEDED" stroke-width="5" stroke-linecap="round" stroke-linejoin="round" mask="url(#mask-2)"></path>
                        <polyline id="Stroke-69" stroke="#EDEDED" stroke-width="5" stroke-linecap="round" stroke-linejoin="round" mask="url(#mask-2)" points="1396.61303 369.410842 1396.61303 209.24602 1520.00908 209.24602"></polyline>
                        <polygon id="Stroke-70" stroke="#EDEDED" stroke-width="5" stroke-linecap="round" stroke-linejoin="round" mask="url(#mask-2)" points="1388.85509 209.098343 1520.71052 209.098343 1520.71052 199.711492 1388.85509 199.711492"></polygon>
                        <path d="M1520.00908,234.551653 L1396.61303,234.551653" id="Stroke-71" stroke="#EDEDED" stroke-width="5" stroke-linecap="round" stroke-linejoin="round" mask="url(#mask-2)"></path>
                        <path d="M1519.37596,260.283058 L1396.61284,260.283058" id="Stroke-72" stroke="#EDEDED" stroke-width="5" stroke-linecap="round" stroke-linejoin="round" mask="url(#mask-2)"></path>
                        <path d="M1511.77805,287.004132 L1396.61322,287.004132" id="Stroke-73" stroke="#EDEDED" stroke-width="5" stroke-linecap="round" stroke-linejoin="round" mask="url(#mask-2)"></path>
                        <path d="M1511.77805,313.725207 L1396.61322,313.725207" id="Stroke-74" stroke="#EDEDED" stroke-width="5" stroke-linecap="round" stroke-linejoin="round" mask="url(#mask-2)"></path>
                        <path d="M1511.77805,339.456612 L1396.61322,339.456612" id="Stroke-75" stroke="#EDEDED" stroke-width="5" stroke-linecap="round" stroke-linejoin="round" mask="url(#mask-2)"></path>
                        <path d="M1479.76878,366.177686 L1396.61297,366.177686" id="Stroke-76" stroke="#EDEDED" stroke-width="5" stroke-linecap="round" stroke-linejoin="round" mask="url(#mask-2)"></path>
                        <polyline id="Stroke-77" stroke="#EDEDED" stroke-width="5" stroke-linecap="round" stroke-linejoin="round" mask="url(#mask-2)" points="1561.12603 366.653248 1561.12603 346.512118 1561.12603 342.839759 1708.1575 342.839759 1708.1575 447.950253"></polyline>
                        <polyline id="Stroke-78" stroke="#EDEDED" stroke-width="5" stroke-linecap="round" stroke-linejoin="round" mask="url(#mask-2)" points="1692.51758 330.05217 1571.54072 330.05217 1571.54072 261.488828 1697.25275 261.488828 1697.25275 295.701226"></polyline>
                        <polygon id="Stroke-79" stroke="#EDEDED" stroke-width="5" stroke-linecap="round" stroke-linejoin="round" mask="url(#mask-2)" points="1552.79415 341.866779 1716.61136 341.866779 1716.61136 331.019309 1552.79415 331.019309"></polygon>
                        <polygon id="Stroke-80" stroke="#EDEDED" stroke-width="5" stroke-linecap="round" stroke-linejoin="round" mask="url(#mask-2)" points="1566.14974 261.566922 1702.76646 261.566922 1702.76646 250.290772 1566.14974 250.290772"></polygon>
                        <polygon id="Fill-81" fill="#EDEDED" mask="url(#mask-2)" points="1581.46568 315.251958 1585.01892 315.251958 1585.01892 274.603767 1581.46568 274.603767"></polygon>
                        <polygon id="Fill-82" fill="#EDEDED" mask="url(#mask-2)" points="1592.8603 315.251958 1596.41354 315.251958 1596.41354 274.603767 1592.8603 274.603767"></polygon>
                        <polygon id="Fill-83" fill="#EDEDED" mask="url(#mask-2)" points="1604.13306 315.251958 1607.6863 315.251958 1607.6863 274.603767 1604.13306 274.603767"></polygon>
                        <polygon id="Fill-84" fill="#EDEDED" mask="url(#mask-2)" points="1615.52768 315.251958 1619.08093 315.251958 1619.08093 274.603767 1615.52768 274.603767"></polygon>
                        <polygon id="Fill-85" fill="#EDEDED" mask="url(#mask-2)" points="1626.92231 315.251958 1630.47555 315.251958 1630.47555 274.603767 1626.92231 274.603767"></polygon>
                        <polygon id="Fill-86" fill="#EDEDED" mask="url(#mask-2)" points="1638.31755 315.251958 1641.87079 315.251958 1641.87079 274.603767 1638.31755 274.603767"></polygon>
                        <polygon id="Fill-87" fill="#EDEDED" mask="url(#mask-2)" points="1649.71217 315.251958 1653.26542 315.251958 1653.26542 274.603767 1649.71217 274.603767"></polygon>
                        <polygon id="Fill-88" fill="#EDEDED" mask="url(#mask-2)" points="1660.98494 315.251958 1664.53818 315.251958 1664.53818 274.603767 1660.98494 274.603767"></polygon>
                        <polygon id="Fill-89" fill="#EDEDED" mask="url(#mask-2)" points="1672.37956 315.251958 1675.9328 315.251958 1675.9328 274.603767 1672.37956 274.603767"></polygon>
                        <polygon id="Fill-90" fill="#EDEDED" mask="url(#mask-2)" points="1683.7748 315.251958 1687.32804 315.251958 1687.32804 274.603767 1683.7748 274.603767"></polygon>
                        <polyline id="Stroke-91" stroke="#EDEDED" stroke-width="5" stroke-linecap="round" stroke-linejoin="round" mask="url(#mask-2)" points="1636.60199 218.578448 1636.60199 199.469256 1682.67165 199.469256 1682.67165 250.290834 1659.63682 250.290834"></polyline>
                        <polygon id="Stroke-92" stroke="#EDEDED" stroke-width="5" stroke-linecap="round" stroke-linejoin="round" mask="url(#mask-2)" points="1590.40971 218.578013 1622.75572 218.578013 1659.63669 218.578013 1659.63669 250.290399 1590.40971 250.290399"></polygon>
                        <path d="M1710.11785,473.171615 C1715.26399,471.457515 1718.93971,466.560001 1718.93971,460.805747 C1718.93971,454.316525 1714.16102,448.929445 1707.91254,447.950315 C1708.1575,447.215346 1708.1575,446.358607 1708.1575,445.501247 C1708.1575,439.624602 1703.37881,434.849478 1697.49778,434.849478 C1695.7824,434.849478 1694.06702,435.339044 1692.5966,436.074012 C1692.47412,434.115131 1691.86109,432.27864 1690.88122,430.686933 C1691.98419,428.728051 1692.5966,426.523766 1692.5966,424.19771 C1692.5966,416.97414 1686.71557,411.097495 1679.48598,411.097495 L1678.99605,411.097495 C1679.24102,409.505787 1679.48598,407.791688 1679.48598,406.19998 C1679.48598,391.75284 1667.72391,380.12132 1653.38846,380.12132 C1653.38846,370.816477 1645.79142,363.225112 1636.47963,363.225112 C1631.94652,363.225112 1627.78025,365.061603 1624.71693,368.000236 C1621.65425,365.061603 1617.48797,363.225112 1612.95486,363.225112 C1606.46079,363.225112 1600.70224,366.898093 1597.88389,372.408185 C1595.5561,365.918963 1589.307,361.266231 1581.95555,361.266231 C1575.21651,361.266231 1569.45796,365.184615 1566.63961,370.938869 C1565.41416,370.694086 1564.06685,370.571695 1562.8414,370.571695 C1560.88106,370.571695 1559.0432,370.816477 1557.32782,371.428434 C1554.38699,365.918963 1548.99588,362.0012 1542.50181,361.266231 C1539.92906,350.492071 1530.37229,342.411762 1518.73209,342.411762 C1505.25401,342.411762 1494.34932,353.308313 1494.34932,366.775702 L1494.34932,367.021105 C1492.14401,366.041354 1489.69311,365.551789 1487.12035,365.551789 C1479.89139,365.551789 1473.64228,369.591943 1470.33401,375.468588 C1468.74173,375.101415 1467.14883,374.856632 1465.55594,374.856632 C1461.14469,374.856632 1456.97904,376.44834 1453.79324,378.896786 C1450.72993,372.408185 1444.114,367.877844 1436.51696,367.877844 C1429.65545,367.877844 1423.65193,371.428434 1420.22117,376.937905 C1417.52531,375.59098 1414.5851,374.734241 1411.3993,374.734241 C1406.7431,374.734241 1402.45496,376.44834 1399.14668,379.141569 C1398.65675,368.979987 1390.20233,361.021448 1380.03254,361.021448 C1371.57812,361.021448 1364.34916,366.530919 1361.7764,374.122284 C1356.63026,374.856632 1352.58646,379.264582 1352.58646,384.651661 C1352.58646,385.263618 1352.70895,385.875574 1352.70895,386.36576 C1346.09301,389.426163 1341.55929,396.037777 1341.55929,403.750912 C1341.55929,410.607309 1345.11253,416.606966 1350.50364,420.035164 C1348.66577,422.238829 1347.68591,425.05507 1347.68591,428.237865 L1347.68591,428.60566 C1346.70543,428.360256 1345.60308,428.237865 1344.6226,428.237865 C1338.61908,428.237865 1333.59543,432.27864 1332.00253,437.788112 C1319.99487,440.114167 1310.92804,450.765935 1310.92804,463.376585 C1310.92804,466.927175 1311.66294,470.232981 1312.88839,473.294006 L1710.11785,473.294006 L1710.11785,473.171615 Z" id="Stroke-93" stroke="#EDEDED" stroke-width="5" stroke-linecap="round" stroke-linejoin="round" mask="url(#mask-2)"></path>
                        <path d="M1479.76878,419.912587 C1479.76878,413.545755 1473.76526,408.403458 1466.29133,408.403458 C1463.3505,408.403458 1460.65464,409.260818 1458.44933,410.607744 C1456.85643,405.710229 1451.09788,402.649205 1445.09374,403.628956 C1441.78546,404.240912 1439.09022,405.955012 1437.49732,408.403458 C1434.43401,403.506565 1428.30801,400.078367 1421.32401,400.078367 C1411.2767,400.078367 1403.06787,407.057154 1403.06787,415.750041 C1403.06787,417.218736 1403.31283,418.688053 1403.80276,420.034978 C1398.28918,420.769326 1393.87793,424.320536 1392.65311,428.972647 C1390.69214,428.115908 1388.48683,427.871126 1386.28152,428.2383 C1380.89042,429.21743 1377.33717,433.747771 1378.43952,438.400503" id="Stroke-94" stroke="#EDEDED" stroke-width="5" stroke-linecap="round" stroke-linejoin="round" mask="url(#mask-2)"></path>
                        <path d="M1386.52649,374.122036 C1387.33848,374.122036 1387.9969,374.779967 1387.9969,375.591352 C1387.9969,376.402738 1387.33848,377.060669 1386.52649,377.060669 C1385.71449,377.060669 1385.05607,376.402738 1385.05607,375.591352 C1385.05607,374.779967 1385.71449,374.122036 1386.52649,374.122036" id="Fill-95" fill="#EDEDED" mask="url(#mask-2)"></path>
                        <path d="M1350.99394,399.710882 C1351.80593,399.710882 1352.46435,400.368813 1352.46435,401.180199 C1352.46435,401.991585 1351.80593,402.649515 1350.99394,402.649515 C1350.18195,402.649515 1349.52353,401.991585 1349.52353,401.180199 C1349.52353,400.368813 1350.18195,399.710882 1350.99394,399.710882" id="Fill-96" fill="#EDEDED" mask="url(#mask-2)"></path>
                        <path d="M1415.93266,411.709452 C1416.74465,411.709452 1417.40307,412.367382 1417.40307,413.178768 C1417.40307,413.990154 1416.74465,414.648085 1415.93266,414.648085 C1415.12066,414.648085 1414.46224,413.990154 1414.46224,413.178768 C1414.46224,412.367382 1415.12066,411.709452 1415.93266,411.709452" id="Fill-97" fill="#EDEDED" mask="url(#mask-2)"></path>
                        <path d="M1442.03068,377.427781 C1442.84267,377.427781 1443.50109,378.085711 1443.50109,378.897097 C1443.50109,379.708483 1442.84267,380.366414 1442.03068,380.366414 C1441.21868,380.366414 1440.56026,379.708483 1440.56026,378.897097 C1440.56026,378.085711 1441.21868,377.427781 1442.03068,377.427781" id="Fill-98" fill="#EDEDED" mask="url(#mask-2)"></path>
                        <path d="M1666.62107,397.629485 C1667.43306,397.629485 1668.09148,398.287416 1668.09148,399.098802 C1668.09148,399.910187 1667.43306,400.568118 1666.62107,400.568118 C1665.80908,400.568118 1665.15065,399.910187 1665.15065,399.098802 C1665.15065,398.287416 1665.80908,397.629485 1666.62107,397.629485" id="Fill-99" fill="#EDEDED" mask="url(#mask-2)"></path>
                        <path d="M1507.09206,419.055537 C1507.90405,419.055537 1508.56248,419.713468 1508.56248,420.524854 C1508.56248,421.336239 1507.90405,421.99417 1507.09206,421.99417 C1506.28007,421.99417 1505.62165,421.336239 1505.62165,420.524854 C1505.62165,419.713468 1506.28007,419.055537 1507.09206,419.055537" id="Fill-100" fill="#EDEDED" mask="url(#mask-2)"></path>
                        <path d="M1592.98291,395.303243 C1593.7949,395.303243 1594.45332,395.961174 1594.45332,396.77256 C1594.45332,397.583946 1593.7949,398.241876 1592.98291,398.241876 C1592.17092,398.241876 1591.51249,397.583946 1591.51249,396.77256 C1591.51249,395.961174 1592.17092,395.303243 1592.98291,395.303243" id="Fill-101" fill="#EDEDED" mask="url(#mask-2)"></path>
                        <path d="M1555.6125,436.441248 C1556.42449,436.441248 1557.08291,437.099179 1557.08291,437.910565 C1557.08291,438.721951 1556.42449,439.379881 1555.6125,439.379881 C1554.80051,439.379881 1554.14209,438.721951 1554.14209,437.910565 C1554.14209,437.099179 1554.80051,436.441248 1555.6125,436.441248" id="Fill-102" fill="#EDEDED" mask="url(#mask-2)"></path>
                        <path d="M1527.06389,356.001728 C1527.87589,356.001728 1528.53431,356.659659 1528.53431,357.471045 C1528.53431,358.282431 1527.87589,358.940362 1527.06389,358.940362 C1526.2519,358.940362 1525.59348,358.282431 1525.59348,357.471045 C1525.59348,356.659659 1526.2519,356.001728 1527.06389,356.001728" id="Fill-103" fill="#EDEDED" mask="url(#mask-2)"></path>
                        <path d="M1685.98018,421.136934 C1686.79217,421.136934 1687.45059,421.794865 1687.45059,422.606251 C1687.45059,423.417637 1686.79217,424.075567 1685.98018,424.075567 C1685.16818,424.075567 1684.50976,423.417637 1684.50976,422.606251 C1684.50976,421.794865 1685.16818,421.136934 1685.98018,421.136934" id="Fill-104" fill="#EDEDED" mask="url(#mask-2)"></path>
                        <path d="M1692.71915,423.340785 C1692.71915,416.851562 1687.45053,411.586874 1680.95646,411.586874 C1678.50618,411.586874 1676.17839,412.321843 1674.21742,413.668147 C1672.99259,407.913893 1667.84645,403.628956 1661.71983,403.628956 C1654.73583,403.628956 1648.97728,409.260818 1648.97728,416.361997 L1648.97728,417.219357 C1648.24238,417.096345 1647.62935,416.973954 1646.89445,416.973954 C1641.74831,416.973954 1637.46017,421.137121 1637.46017,426.401809" id="Stroke-105" stroke="#EDEDED" stroke-width="5" stroke-linecap="round" stroke-linejoin="round" mask="url(#mask-2)"></path>
                        <path d="M1572.27593,448.684724 C1572.27593,444.766961 1569.82565,441.338763 1566.3949,439.747055 C1566.51738,438.767304 1566.63986,437.910565 1566.63986,436.808422 C1566.63986,426.891623 1558.67538,418.933084 1548.75117,418.933084 C1543.60503,418.933084 1539.0713,421.136748 1535.76303,424.564946 C1533.80268,423.341033 1531.47489,422.606064 1528.90213,422.606064 C1522.89799,422.606064 1517.75185,426.646219 1516.28144,432.156311 C1515.42406,431.910907 1514.44357,431.788516 1513.58619,431.788516 C1508.19509,431.788516 1503.90633,436.074075 1503.90633,441.461154" id="Stroke-106" stroke="#EDEDED" stroke-width="5" stroke-linecap="round" stroke-linejoin="round" mask="url(#mask-2)"></path>
                        <path d="M1623.73682,409.750508 C1623.73682,403.62908 1618.71317,398.609174 1612.58717,398.609174 C1607.68599,398.609174 1603.52034,401.791969 1602.04992,406.199918 C1601.43751,406.077527 1600.82447,405.955136 1600.08958,405.955136 C1595.31089,405.955136 1591.51268,409.750508 1591.51268,414.525631" id="Stroke-107" stroke="#EDEDED" stroke-width="5" stroke-linecap="round" stroke-linejoin="round" mask="url(#mask-2)"></path>
                        <polyline id="Stroke-108" stroke="#EDEDED" stroke-width="5" stroke-linecap="round" stroke-linejoin="round" mask="url(#mask-2)" points="1045.26783 288.662734 898.23635 288.662734 898.23635 472.865326 1026.03493 473.722686"></polyline>
                        <polygon id="Stroke-109" stroke="#EDEDED" stroke-width="5" stroke-linecap="round" stroke-linejoin="round" mask="url(#mask-2)" points="908.528877 276.421619 1034.2409 276.421619 1034.2409 207.858277 908.528877 207.858277"></polygon>
                        <polyline id="Stroke-110" stroke="#EDEDED" stroke-width="5" stroke-linecap="round" stroke-linejoin="round" mask="url(#mask-2)" points="1045.27193 430.625551 1045.27193 288.78525 898.013518 288.78525 898.013518 276.771646 1045.27193 276.771646 1045.27193 288.78525"></polyline>
                        <polygon id="Stroke-111" stroke="#EDEDED" stroke-width="5" stroke-linecap="round" stroke-linejoin="round" mask="url(#mask-2)" points="908.836016 208.10306 1034.68856 208.10306 1034.68856 197.180415 908.836016 197.180415"></polygon>
                        <path d="M919.274931,220.529066 L919.274931,262.768966" id="Stroke-112" stroke="#EDEDED" stroke-width="5" stroke-linecap="round" stroke-linejoin="round" mask="url(#mask-2)"></path>
                        <path d="M937.086501,220.529066 L937.086501,262.768966" id="Stroke-113" stroke="#EDEDED" stroke-width="5" stroke-linecap="round" stroke-linejoin="round" mask="url(#mask-2)"></path>
                        <path d="M953.90854,220.529066 L953.90854,262.768966" id="Stroke-114" stroke="#EDEDED" stroke-width="5" stroke-linecap="round" stroke-linejoin="round" mask="url(#mask-2)"></path>
                        <path d="M970.730579,220.529066 L970.730579,262.768966" id="Stroke-115" stroke="#EDEDED" stroke-width="5" stroke-linecap="round" stroke-linejoin="round" mask="url(#mask-2)"></path>
                        <path d="M988.542149,220.529066 L988.542149,262.768966" id="Stroke-116" stroke="#EDEDED" stroke-width="5" stroke-linecap="round" stroke-linejoin="round" mask="url(#mask-2)"></path>
                        <path d="M1005.36419,220.529066 L1005.36419,262.768966" id="Stroke-117" stroke="#EDEDED" stroke-width="5" stroke-linecap="round" stroke-linejoin="round" mask="url(#mask-2)"></path>
                        <path d="M1022.18623,220.529066 L1022.18623,262.768966" id="Stroke-118" stroke="#EDEDED" stroke-width="5" stroke-linecap="round" stroke-linejoin="round" mask="url(#mask-2)"></path>
                        <polyline id="Stroke-119" stroke="#EDEDED" stroke-width="5" stroke-linecap="round" stroke-linejoin="round" mask="url(#mask-2)" points="165.045515 320.06703 165.045515 166.656715 240.519735 166.656715"></polyline>
                        <polyline id="Stroke-120" stroke="#EDEDED" stroke-width="5" stroke-linecap="round" stroke-linejoin="round" mask="url(#mask-2)" points="300.314302 153.258847 300.314302 135.005773 291.12499 135.005773 291.12499 79.2984853 260.493121 79.2984853 260.493121 102.683295 251.058844 102.683295 251.058844 138.433972 241.134014 138.433972 241.134014 212.079968"></polyline>
                        <polyline id="Stroke-121" stroke="#EDEDED" stroke-width="5" stroke-linecap="round" stroke-linejoin="round" mask="url(#mask-2)" points="208.297207 319.271673 208.297207 276.725485 219.814934 276.725485 219.814934 261.665767 229.371694 261.665767 229.371694 237.423597 241.256869 237.423597 241.256869 212.079906 277.535378 212.079906"></polyline>
                        <path d="M266.184022,232.172328 L266.184022,311.986348" id="Stroke-122" stroke="#EDEDED" stroke-width="5" stroke-linecap="round" stroke-linejoin="round" mask="url(#mask-2)"></path>
                        <path d="M255.299174,232.172328 L255.299174,311.986348" id="Stroke-123" stroke="#EDEDED" stroke-width="5" stroke-linecap="round" stroke-linejoin="round" mask="url(#mask-2)"></path>
                        <path d="M243.424793,246.912524 L243.424793,311.986783" id="Stroke-124" stroke="#EDEDED" stroke-width="5" stroke-linecap="round" stroke-linejoin="round" mask="url(#mask-2)"></path>
                        <path d="M231.550413,272.0794 L231.550413,311.98641" id="Stroke-125" stroke="#EDEDED" stroke-width="5" stroke-linecap="round" stroke-linejoin="round" mask="url(#mask-2)"></path>
                        <polyline id="Stroke-126" stroke="#EDEDED" stroke-width="5" stroke-linecap="round" stroke-linejoin="round" mask="url(#mask-2)" points="274.063149 319.761114 149.729519 319.761114 149.729519 429.786518"></polyline>
                        <path d="M168.220386,319.761114 L168.220386,374.36688" id="Stroke-127" stroke="#EDEDED" stroke-width="5" stroke-linecap="round" stroke-linejoin="round" mask="url(#mask-2)"></path>
                        <path d="M187.021488,319.761114 L187.021488,350.369493" id="Stroke-128" stroke="#EDEDED" stroke-width="5" stroke-linecap="round" stroke-linejoin="round" mask="url(#mask-2)"></path>
                        <path d="M205.82259,319.761114 L205.82259,338.493812" id="Stroke-129" stroke="#EDEDED" stroke-width="5" stroke-linecap="round" stroke-linejoin="round" mask="url(#mask-2)"></path>
                        <path d="M224.623691,319.761114 L224.623691,349.635146" id="Stroke-130" stroke="#EDEDED" stroke-width="5" stroke-linecap="round" stroke-linejoin="round" mask="url(#mask-2)"></path>
                        <path d="M243.424793,319.761114 L243.424793,355.757194" id="Stroke-131" stroke="#EDEDED" stroke-width="5" stroke-linecap="round" stroke-linejoin="round" mask="url(#mask-2)"></path>
                        <path d="M262.225895,319.761114 L262.225895,351.410751" id="Stroke-132" stroke="#EDEDED" stroke-width="5" stroke-linecap="round" stroke-linejoin="round" mask="url(#mask-2)"></path>
                        <path d="M274.062776,337.477273 L149.729767,337.477273" id="Stroke-133" stroke="#EDEDED" stroke-width="5" stroke-linecap="round" stroke-linejoin="round" mask="url(#mask-2)"></path>
                        <path d="M177.849497,356.280992 L149.730078,356.280992" id="Stroke-134" stroke="#EDEDED" stroke-width="5" stroke-linecap="round" stroke-linejoin="round" mask="url(#mask-2)"></path>
                        <path d="M165.045515,376.07438 L149.729581,376.07438" id="Stroke-135" stroke="#EDEDED" stroke-width="5" stroke-linecap="round" stroke-linejoin="round" mask="url(#mask-2)"></path>
                        <path d="M161.088764,392.89876 L149.729581,392.89876" id="Stroke-136" stroke="#EDEDED" stroke-width="5" stroke-linecap="round" stroke-linejoin="round" mask="url(#mask-2)"></path>
                        <path d="M168.476213,412.692149 L149.729519,412.692149" id="Stroke-137" stroke="#EDEDED" stroke-width="5" stroke-linecap="round" stroke-linejoin="round" mask="url(#mask-2)"></path>
                        <path d="M273.695452,347.492429 C265.486001,347.492429 258.379517,351.777366 254.336344,358.266588 C251.15055,356.67488 247.597308,355.69575 243.921583,355.69575 C238.407996,355.69575 233.261857,357.654632 229.341167,360.960439 C228.728753,348.961745 218.803923,339.411498 206.5513,339.411498 C196.503987,339.411498 187.927089,346.023112 184.863778,355.083173 C178.737777,355.940533 173.959086,361.205221 173.959086,367.571431 C173.959086,368.3064 174.081569,369.040748 174.204051,369.653325 C166.362671,373.203915 160.849084,381.161833 160.849084,390.344284 C160.849084,398.425215 165.137844,405.648785 171.50881,409.688939 C169.425982,412.38279 168.07805,415.688597 168.07805,419.361577 L168.07805,419.851143 C166.852602,419.60636 165.627774,419.361577 164.402326,419.361577 C157.295841,419.361577 151.292323,424.136701 149.454461,430.625302 C135.118388,433.441544 124.336179,445.929803 124.336179,461.111912 C124.336179,465.641631 125.316663,469.804798 127.032042,473.722562 L274.0629,473.722562" id="Stroke-138" stroke="#EDEDED" stroke-width="5" stroke-linecap="round" stroke-linejoin="round" mask="url(#mask-2)"></path>
                        <polyline id="Stroke-139" stroke="#EDEDED" stroke-width="5" stroke-linecap="round" stroke-linejoin="round" mask="url(#mask-2)" points="296.117808 205.896848 296.117808 154.2906 407.248797 154.2906 407.248797 205.89747"></polyline>
                        <path d="M415.09055,473.061983 L296.11756,473.061983" id="Stroke-140" stroke="#EDEDED" stroke-width="5" stroke-linecap="round" stroke-linejoin="round" mask="url(#mask-2)"></path>
                        <polygon id="Stroke-141" stroke="#EDEDED" stroke-width="5" stroke-linecap="round" stroke-linejoin="round" mask="url(#mask-2)" points="398.794692 154.290786 304.449431 154.290786 309.840535 130.783585 393.403587 130.783585"></polygon>
                        <polygon id="Stroke-142" stroke="#EDEDED" stroke-width="5" stroke-linecap="round" stroke-linejoin="round" mask="url(#mask-2)" points="274.063459 473.60017 318.417744 473.60017 318.417744 287.2548 274.063459 287.2548"></polygon>
                        <polygon id="Stroke-143" stroke="#EDEDED" stroke-width="5" stroke-linecap="round" stroke-linejoin="round" mask="url(#mask-2)" points="278.964011 287.2548 313.516571 287.2548 313.516571 206.570373 278.964011 206.570373"></polygon>
                        <polygon id="Stroke-144" stroke="#EDEDED" stroke-width="5" stroke-linecap="round" stroke-linejoin="round" mask="url(#mask-2)" points="388.870173 287.2548 423.422732 287.2548 423.422732 206.570373 388.870173 206.570373"></polygon>
                        <polyline id="Stroke-145" stroke="#EDEDED" stroke-width="5" stroke-linecap="round" stroke-linejoin="round" mask="url(#mask-2)" points="428.200926 440.766071 428.200926 287.254489 383.846641 287.254489 383.846641 472.865512"></polyline>
                        <polyline id="Stroke-146" stroke="#EDEDED" stroke-width="5" stroke-linecap="round" stroke-linejoin="round" mask="url(#mask-2)" points="407.538403 183.299878 417.415359 183.299878 417.415359 155.138082 431.222332 155.138082 431.222332 125.696457 506.945247 125.696457 506.945247 199.079033"></polyline>
                        <path d="M360.444049,57.3225423 L343.780183,57.3225423 L343.780183,69.8108009 C343.780183,90.5023811 340.472528,111.07157 334.223423,130.783399 L369.020948,130.783399 C363.384878,111.07157 360.444049,90.6247724 360.076601,70.1779747 L360.444049,57.3225423 Z" id="Stroke-147" stroke="#EDEDED" stroke-width="5" stroke-linecap="round" stroke-linejoin="round" mask="url(#mask-2)"></path>
                        <path d="M351.283747,57.3225423 L351.283747,2.34960178" id="Stroke-148" stroke="#EDEDED" stroke-width="5" stroke-linecap="round" stroke-linejoin="round" mask="url(#mask-2)"></path>
                        <path d="M337.654183,118.760331 L365.712671,118.760331" id="Stroke-149" stroke="#EDEDED" stroke-width="5" stroke-linecap="round" stroke-linejoin="round" mask="url(#mask-2)"></path>
                        <path d="M340.22719,105.894628 L362.813748,105.894628" id="Stroke-150" stroke="#EDEDED" stroke-width="5" stroke-linecap="round" stroke-linejoin="round" mask="url(#mask-2)"></path>
                        <path d="M343.126238,94.018595 L361.792105,94.018595" id="Stroke-151" stroke="#EDEDED" stroke-width="5" stroke-linecap="round" stroke-linejoin="round" mask="url(#mask-2)"></path>
                        <path d="M344.473983,81.1528926 L360.56647,81.1528926" id="Stroke-152" stroke="#EDEDED" stroke-width="5" stroke-linecap="round" stroke-linejoin="round" mask="url(#mask-2)"></path>
                        <path d="M344.473983,68.2871901 L358.892747,68.2871901" id="Stroke-153" stroke="#EDEDED" stroke-width="5" stroke-linecap="round" stroke-linejoin="round" mask="url(#mask-2)"></path>
                        <path d="M303.786226,169.386973 L303.786226,191.841112" id="Stroke-154" stroke="#EDEDED" stroke-width="5" stroke-linecap="round" stroke-linejoin="round" mask="url(#mask-2)"></path>
                        <path d="M315.660606,169.386973 L315.660606,191.841112" id="Stroke-155" stroke="#EDEDED" stroke-width="5" stroke-linecap="round" stroke-linejoin="round" mask="url(#mask-2)"></path>
                        <path d="M327.534986,169.386973 L327.534986,457.104623" id="Stroke-156" stroke="#EDEDED" stroke-width="5" stroke-linecap="round" stroke-linejoin="round" mask="url(#mask-2)"></path>
                        <path d="M339.409366,169.386973 L339.409366,457.104623" id="Stroke-157" stroke="#EDEDED" stroke-width="5" stroke-linecap="round" stroke-linejoin="round" mask="url(#mask-2)"></path>
                        <path d="M351.283747,169.386973 L351.283747,457.104623" id="Stroke-158" stroke="#EDEDED" stroke-width="5" stroke-linecap="round" stroke-linejoin="round" mask="url(#mask-2)"></path>
                        <path d="M363.158127,169.386973 L363.158127,457.104623" id="Stroke-159" stroke="#EDEDED" stroke-width="5" stroke-linecap="round" stroke-linejoin="round" mask="url(#mask-2)"></path>
                        <path d="M374.042975,169.386973 L374.042975,457.104623" id="Stroke-160" stroke="#EDEDED" stroke-width="5" stroke-linecap="round" stroke-linejoin="round" mask="url(#mask-2)"></path>
                        <path d="M385.917355,169.386973 L385.917355,191.841112" id="Stroke-161" stroke="#EDEDED" stroke-width="5" stroke-linecap="round" stroke-linejoin="round" mask="url(#mask-2)"></path>
                        <path d="M397.791736,169.386973 L397.791736,191.841112" id="Stroke-162" stroke="#EDEDED" stroke-width="5" stroke-linecap="round" stroke-linejoin="round" mask="url(#mask-2)"></path>
                        <polyline id="Stroke-163" stroke="#EDEDED" stroke-width="5" stroke-linecap="round" stroke-linejoin="round" mask="url(#mask-2)" points="638.026742 186.956519 638.026742 174.06381 628.224395 174.06381 628.224395 149.944032 617.687151 149.944032 617.687151 86.0334223 582.522178 86.0334223 582.522178 112.724039 571.739969 112.724039 571.739969 153.862417 560.345347 153.862417 560.345347 197.18085"></polyline>
                        <polyline id="Stroke-164" stroke="#EDEDED" stroke-width="5" stroke-linecap="round" stroke-linejoin="round" mask="url(#mask-2)" points="726.918476 218.578013 726.919098 198.733231 718.465304 198.733231 718.465304 161.390847 702.536956 161.390847 699.473645 122.456754 652.545979 122.456754 649.482668 161.390847 633.55432 198.733231 624.732456 198.733231 624.732456 272.071696 616.27804 272.071696 616.27804 339.411747"></polyline>
                        <polygon id="Stroke-165" stroke="#EDEDED" stroke-width="5" stroke-linecap="round" stroke-linejoin="round" mask="url(#mask-2)" points="634.963431 228.98475 651.136744 228.98475 651.136744 208.170779 634.963431 208.170779"></polygon>
                        <polygon id="Stroke-166" stroke="#EDEDED" stroke-width="5" stroke-linecap="round" stroke-linejoin="round" mask="url(#mask-2)" points="662.776954 228.98475 678.950267 228.98475 678.950267 208.170779 662.776954 208.170779"></polygon>
                        <polygon id="Stroke-167" stroke="#EDEDED" stroke-width="5" stroke-linecap="round" stroke-linejoin="round" mask="url(#mask-2)" points="634.963431 264.971512 651.136744 264.971512 651.136744 244.15754 634.963431 244.15754"></polygon>
                        <polyline id="Stroke-168" stroke="#EDEDED" stroke-width="5" stroke-linecap="round" stroke-linejoin="round" mask="url(#mask-2)" points="625.835236 341.528867 625.835236 325.698147 642.008549 325.698147 642.008549 346.512118 637.556893 346.512118"></polyline>
                        <polygon id="Stroke-169" stroke="#EDEDED" stroke-width="5" stroke-linecap="round" stroke-linejoin="round" mask="url(#mask-2)" points="625.835049 309.476581 642.008363 309.476581 642.008363 288.66261 625.835049 288.66261"></polygon>
                        <polygon id="Stroke-170" stroke="#EDEDED" stroke-width="5" stroke-linecap="round" stroke-linejoin="round" mask="url(#mask-2)" points="660.632574 156.126531 690.949221 156.126531 690.949221 132.923755 660.632574 132.923755"></polygon>
                        <polyline id="Stroke-171" stroke="#EDEDED" stroke-width="5" stroke-linecap="round" stroke-linejoin="round" mask="url(#mask-2)" points="897.108141 295.701537 897.108141 217.528306 886.69338 217.528306 886.69338 171.493035 867.089307 171.493035 863.2911 123.49826 805.581225 123.49826 801.783018 171.493035 782.178945 171.493035 782.178945 199.46907"></polyline>
                        <polyline id="Stroke-172" stroke="#EDEDED" stroke-width="5" stroke-linecap="round" stroke-linejoin="round" mask="url(#mask-2)" points="500.246127 125.69565 500.246127 71.2184869 589.016249 71.2184869 589.016249 86.0334223"></polyline>
                        <polyline id="Stroke-173" stroke="#EDEDED" stroke-width="5" stroke-linecap="round" stroke-linejoin="round" mask="url(#mask-2)" points="796.649873 328.988049 796.649873 305.293223 897.833027 305.293223 897.833027 472.865512 814.280544 472.865512"></polyline>
                        <polygon id="Stroke-174" stroke="#EDEDED" stroke-width="5" stroke-linecap="round" stroke-linejoin="round" mask="url(#mask-2)" points="796.649935 305.20407 897.833089 305.20407 897.833089 296.51926 796.649935 296.51926"></polygon>
                        <path d="M897.832903,318.673554 L796.881658,318.673554" id="Stroke-175" stroke="#EDEDED" stroke-width="5" stroke-linecap="round" stroke-linejoin="round" mask="url(#mask-2)"></path>
                        <path d="M897.832903,342.42562 L814.422177,342.42562" id="Stroke-176" stroke="#EDEDED" stroke-width="5" stroke-linecap="round" stroke-linejoin="round" mask="url(#mask-2)"></path>
                        <path d="M897.832903,365.188017 L812.320075,365.188017" id="Stroke-177" stroke="#EDEDED" stroke-width="5" stroke-linecap="round" stroke-linejoin="round" mask="url(#mask-2)"></path>
                        <path d="M897.832903,387.950413 L812.320075,387.950413" id="Stroke-178" stroke="#EDEDED" stroke-width="5" stroke-linecap="round" stroke-linejoin="round" mask="url(#mask-2)"></path>
                        <path d="M897.832903,410.71281 L812.320075,410.71281" id="Stroke-179" stroke="#EDEDED" stroke-width="5" stroke-linecap="round" stroke-linejoin="round" mask="url(#mask-2)"></path>
                        <path d="M897.832903,433.475207 L814.422177,433.475207" id="Stroke-180" stroke="#EDEDED" stroke-width="5" stroke-linecap="round" stroke-linejoin="round" mask="url(#mask-2)"></path>
                        <path d="M897.832903,456.237603 L823.102284,456.237603" id="Stroke-181" stroke="#EDEDED" stroke-width="5" stroke-linecap="round" stroke-linejoin="round" mask="url(#mask-2)"></path>
                        <polyline id="Stroke-182" stroke="#EDEDED" stroke-width="5" stroke-linecap="round" stroke-linejoin="round" mask="url(#mask-2)" points="500.775787 369.410842 500.775787 209.24602 624.171833 209.24602"></polyline>
                        <polygon id="Stroke-183" stroke="#EDEDED" stroke-width="5" stroke-linecap="round" stroke-linejoin="round" mask="url(#mask-2)" points="493.017782 209.098343 624.873218 209.098343 624.873218 199.711492 493.017782 199.711492"></polygon>
                        <path d="M624.171833,234.551653 L500.775787,234.551653" id="Stroke-184" stroke="#EDEDED" stroke-width="5" stroke-linecap="round" stroke-linejoin="round" mask="url(#mask-2)"></path>
                        <path d="M623.538654,260.283058 L500.775538,260.283058" id="Stroke-185" stroke="#EDEDED" stroke-width="5" stroke-linecap="round" stroke-linejoin="round" mask="url(#mask-2)"></path>
                        <path d="M615.940684,287.004132 L500.775849,287.004132" id="Stroke-186" stroke="#EDEDED" stroke-width="5" stroke-linecap="round" stroke-linejoin="round" mask="url(#mask-2)"></path>
                        <path d="M615.940684,313.725207 L500.775849,313.725207" id="Stroke-187" stroke="#EDEDED" stroke-width="5" stroke-linecap="round" stroke-linejoin="round" mask="url(#mask-2)"></path>
                        <path d="M615.940684,339.456612 L500.775849,339.456612" id="Stroke-188" stroke="#EDEDED" stroke-width="5" stroke-linecap="round" stroke-linejoin="round" mask="url(#mask-2)"></path>
                        <path d="M583.931475,366.177686 L500.775662,366.177686" id="Stroke-189" stroke="#EDEDED" stroke-width="5" stroke-linecap="round" stroke-linejoin="round" mask="url(#mask-2)"></path>
                        <polyline id="Stroke-190" stroke="#EDEDED" stroke-width="5" stroke-linecap="round" stroke-linejoin="round" mask="url(#mask-2)" points="665.28872 366.653248 665.28872 346.512118 665.28872 342.839759 812.320199 342.839759 812.320199 447.950253"></polyline>
                        <polyline id="Stroke-191" stroke="#EDEDED" stroke-width="5" stroke-linecap="round" stroke-linejoin="round" mask="url(#mask-2)" points="796.680276 330.05217 675.703419 330.05217 675.703419 261.488828 801.415445 261.488828 801.415445 295.701226"></polyline>
                        <polygon id="Stroke-192" stroke="#EDEDED" stroke-width="5" stroke-linecap="round" stroke-linejoin="round" mask="url(#mask-2)" points="656.956849 341.866779 820.774055 341.866779 820.774055 331.019309 656.956849 331.019309"></polygon>
                        <polygon id="Stroke-193" stroke="#EDEDED" stroke-width="5" stroke-linecap="round" stroke-linejoin="round" mask="url(#mask-2)" points="670.312438 261.566922 806.929157 261.566922 806.929157 250.290772 670.312438 250.290772"></polygon>
                        <polygon id="Fill-194" fill="#EDEDED" mask="url(#mask-2)" points="685.628373 315.251958 689.181615 315.251958 689.181615 274.603767 685.628373 274.603767"></polygon>
                        <polygon id="Fill-195" fill="#EDEDED" mask="url(#mask-2)" points="697.022996 315.251958 700.576238 315.251958 700.576238 274.603767 697.022996 274.603767"></polygon>
                        <polygon id="Fill-196" fill="#EDEDED" mask="url(#mask-2)" points="708.295135 315.251958 711.848377 315.251958 711.848377 274.603767 708.295135 274.603767"></polygon>
                        <polygon id="Fill-197" fill="#EDEDED" mask="url(#mask-2)" points="719.69038 315.251958 723.243622 315.251958 723.243622 274.603767 719.69038 274.603767"></polygon>
                        <polygon id="Fill-198" fill="#EDEDED" mask="url(#mask-2)" points="731.085002 315.251958 734.638244 315.251958 734.638244 274.603767 731.085002 274.603767"></polygon>
                        <polygon id="Fill-199" fill="#EDEDED" mask="url(#mask-2)" points="742.480247 315.251958 746.033489 315.251958 746.033489 274.603767 742.480247 274.603767"></polygon>
                        <polygon id="Fill-200" fill="#EDEDED" mask="url(#mask-2)" points="753.874869 315.251958 757.428111 315.251958 757.428111 274.603767 753.874869 274.603767"></polygon>
                        <polygon id="Fill-201" fill="#EDEDED" mask="url(#mask-2)" points="765.147631 315.251958 768.700873 315.251958 768.700873 274.603767 765.147631 274.603767"></polygon>
                        <polygon id="Fill-202" fill="#EDEDED" mask="url(#mask-2)" points="776.542253 315.251958 780.095495 315.251958 780.095495 274.603767 776.542253 274.603767"></polygon>
                        <polygon id="Fill-203" fill="#EDEDED" mask="url(#mask-2)" points="787.937498 315.251958 791.49074 315.251958 791.49074 274.603767 787.937498 274.603767"></polygon>
                        <polyline id="Stroke-204" stroke="#EDEDED" stroke-width="5" stroke-linecap="round" stroke-linejoin="round" mask="url(#mask-2)" points="740.76468 218.578448 740.76468 199.469256 786.834345 199.469256 786.834345 250.290834 763.799513 250.290834"></polyline>
                        <polygon id="Stroke-205" stroke="#EDEDED" stroke-width="5" stroke-linecap="round" stroke-linejoin="round" mask="url(#mask-2)" points="694.572471 218.578013 726.918476 218.578013 763.79945 218.578013 763.79945 250.290399 694.572471 250.290399"></polygon>
                        <path d="M814.280482,473.171615 C819.426621,471.457515 823.102346,466.560001 823.102346,460.805747 C823.102346,454.316525 818.323655,448.929445 812.075172,447.950315 C812.320137,447.215346 812.320137,446.358607 812.320137,445.501247 C812.320137,439.624602 807.541446,434.849478 801.660411,434.849478 C799.945031,434.849478 798.229651,435.339044 796.759237,436.074012 C796.636754,434.115131 796.024341,432.27864 795.043857,430.686933 C796.146824,428.728051 796.759237,426.523766 796.759237,424.19771 C796.759237,416.97414 790.878202,411.097495 783.649235,411.097495 L783.158682,411.097495 C783.403648,409.505787 783.649235,407.791688 783.649235,406.19998 C783.649235,391.75284 771.886542,380.12132 757.551091,380.12132 C757.551091,370.816477 749.954055,363.225112 740.64226,363.225112 C736.109156,363.225112 731.942879,365.061603 728.879567,368.000236 C725.816878,365.061603 721.6506,363.225112 717.117497,363.225112 C710.623426,363.225112 704.864873,366.898093 702.046528,372.408185 C699.718734,365.918963 693.469629,361.266231 686.118179,361.266231 C679.379143,361.266231 673.620591,365.184615 670.802245,370.938869 C669.577418,370.694086 668.229486,370.571695 667.004037,370.571695 C665.043692,370.571695 663.20583,370.816477 661.49045,371.428434 C658.549622,365.918963 653.158517,362.0012 646.665068,361.266231 C644.091688,350.492071 634.534928,342.411762 622.894718,342.411762 C609.416646,342.411762 598.511954,353.308313 598.511954,366.775702 L598.511954,367.021105 C596.306644,366.041354 593.856368,365.551789 591.282987,365.551789 C584.05402,365.551789 577.804915,369.591943 574.49726,375.468588 C572.904363,375.101415 571.311466,374.856632 569.718569,374.856632 C565.307326,374.856632 561.141671,376.44834 557.955877,378.896786 C554.892565,372.408185 548.276634,367.877844 540.679597,367.877844 C533.818078,367.877844 527.81456,371.428434 524.383801,376.937905 C521.688559,375.59098 518.747731,374.734241 515.561937,374.734241 C510.905729,374.734241 506.61759,376.44834 503.309314,379.141569 C502.819383,368.979987 494.364967,361.021448 484.195172,361.021448 C475.740756,361.021448 468.511789,366.530919 465.93903,374.122284 C460.792891,374.856632 456.749718,379.264582 456.749718,384.651661 C456.749718,385.263618 456.872201,385.875574 456.872201,386.36576 C450.255648,389.426163 445.721922,396.037777 445.721922,403.750912 C445.721922,410.607309 449.275164,416.606966 454.666269,420.035164 C452.828406,422.238829 451.848545,425.05507 451.848545,428.237865 L451.848545,428.60566 C450.868061,428.360256 449.765717,428.237865 448.785233,428.237865 C442.781715,428.237865 437.758059,432.27864 436.165162,437.788112 C424.157504,440.114167 415.090675,450.765935 415.090675,463.376585 C415.090675,466.927175 415.825571,470.232981 417.05102,473.294006 L814.280482,473.294006 L814.280482,473.171615 Z" id="Stroke-206" stroke="#EDEDED" stroke-width="5" stroke-linecap="round" stroke-linejoin="round" mask="url(#mask-2)"></path>
                        <path d="M583.931475,419.912587 C583.931475,413.545755 577.927957,408.403458 570.453403,408.403458 C567.513196,408.403458 564.817333,409.260818 562.612023,410.607744 C561.019126,405.710229 555.260573,402.649205 549.256433,403.628956 C545.948157,404.240912 543.252915,405.955012 541.660018,408.403458 C538.596707,403.506565 532.470706,400.078367 525.486705,400.078367 C515.439392,400.078367 507.229942,407.057154 507.229942,415.750041 C507.229942,417.218736 507.475529,418.688053 507.96546,420.034978 C502.451872,420.769326 498.04063,424.320536 496.815181,428.972647 C494.854836,428.115908 492.649525,427.871126 490.444215,428.2383 C485.05311,429.21743 481.499868,433.747771 482.602212,438.400503" id="Stroke-207" stroke="#EDEDED" stroke-width="5" stroke-linecap="round" stroke-linejoin="round" mask="url(#mask-2)"></path>
                        <path d="M490.68918,374.122036 C491.501172,374.122036 492.159594,374.779967 492.159594,375.591352 C492.159594,376.402738 491.501172,377.060669 490.68918,377.060669 C489.877188,377.060669 489.218766,376.402738 489.218766,375.591352 C489.218766,374.779967 489.877188,374.122036 490.68918,374.122036" id="Fill-208" fill="#EDEDED" mask="url(#mask-2)"></path>
                        <path d="M455.156635,399.710882 C455.968627,399.710882 456.627049,400.368813 456.627049,401.180199 C456.627049,401.991585 455.968627,402.649515 455.156635,402.649515 C454.344643,402.649515 453.68622,401.991585 453.68622,401.180199 C453.68622,400.368813 454.344643,399.710882 455.156635,399.710882" id="Fill-209" fill="#EDEDED" mask="url(#mask-2)"></path>
                        <path d="M520.095414,411.709452 C520.907406,411.709452 521.565828,412.367382 521.565828,413.178768 C521.565828,413.990154 520.907406,414.648085 520.095414,414.648085 C519.283422,414.648085 518.624999,413.990154 518.624999,413.178768 C518.624999,412.367382 519.283422,411.709452 520.095414,411.709452" id="Fill-210" fill="#EDEDED" mask="url(#mask-2)"></path>
                        <path d="M546.193433,377.427781 C547.005425,377.427781 547.663847,378.085711 547.663847,378.897097 C547.663847,379.708483 547.005425,380.366414 546.193433,380.366414 C545.381441,380.366414 544.723019,379.708483 544.723019,378.897097 C544.723019,378.085711 545.381441,377.427781 546.193433,377.427781" id="Fill-211" fill="#EDEDED" mask="url(#mask-2)"></path>
                        <path d="M770.783763,397.629485 C771.595755,397.629485 772.254177,398.287416 772.254177,399.098802 C772.254177,399.910187 771.595755,400.568118 770.783763,400.568118 C769.971771,400.568118 769.313349,399.910187 769.313349,399.098802 C769.313349,398.287416 769.971771,397.629485 770.783763,397.629485" id="Fill-212" fill="#EDEDED" mask="url(#mask-2)"></path>
                        <path d="M611.254819,419.055537 C612.066811,419.055537 612.725233,419.713468 612.725233,420.524854 C612.725233,421.336239 612.066811,421.99417 611.254819,421.99417 C610.442827,421.99417 609.784405,421.336239 609.784405,420.524854 C609.784405,419.713468 610.442827,419.055537 611.254819,419.055537" id="Fill-213" fill="#EDEDED" mask="url(#mask-2)"></path>
                        <path d="M697.14554,395.303243 C697.957532,395.303243 698.615955,395.961174 698.615955,396.77256 C698.615955,397.583946 697.957532,398.241876 697.14554,398.241876 C696.333548,398.241876 695.675126,397.583946 695.675126,396.77256 C695.675126,395.961174 696.333548,395.303243 697.14554,395.303243" id="Fill-214" fill="#EDEDED" mask="url(#mask-2)"></path>
                        <path d="M659.775133,436.441248 C660.587125,436.441248 661.245547,437.099179 661.245547,437.910565 C661.245547,438.721951 660.587125,439.379881 659.775133,439.379881 C658.963141,439.379881 658.304718,438.721951 658.304718,437.910565 C658.304718,437.099179 658.963141,436.441248 659.775133,436.441248" id="Fill-215" fill="#EDEDED" mask="url(#mask-2)"></path>
                        <path d="M631.226527,356.001728 C632.038519,356.001728 632.696941,356.659659 632.696941,357.471045 C632.696941,358.282431 632.038519,358.940362 631.226527,358.940362 C630.414535,358.940362 629.756112,358.282431 629.756112,357.471045 C629.756112,356.659659 630.414535,356.001728 631.226527,356.001728" id="Fill-216" fill="#EDEDED" mask="url(#mask-2)"></path>
                        <path d="M790.142808,421.136934 C790.9548,421.136934 791.613222,421.794865 791.613222,422.606251 C791.613222,423.417637 790.9548,424.075567 790.142808,424.075567 C789.330816,424.075567 788.672394,423.417637 788.672394,422.606251 C788.672394,421.794865 789.330816,421.136934 790.142808,421.136934" id="Fill-217" fill="#EDEDED" mask="url(#mask-2)"></path>
                        <path d="M796.881782,423.340785 C796.881782,416.851562 791.61316,411.586874 785.11909,411.586874 C782.668814,411.586874 780.34102,412.321843 778.380054,413.668147 C777.155226,407.913893 772.009087,403.628956 765.882465,403.628956 C758.898463,403.628956 753.139911,409.260818 753.139911,416.361997 L753.139911,417.219357 C752.405014,417.096345 751.791979,416.973954 751.057083,416.973954 C745.910944,416.973954 741.622805,421.137121 741.622805,426.401809" id="Stroke-218" stroke="#EDEDED" stroke-width="5" stroke-linecap="round" stroke-linejoin="round" mask="url(#mask-2)"></path>
                        <path d="M676.438626,448.684724 C676.438626,444.766961 673.98835,441.338763 670.55759,439.747055 C670.680073,438.767304 670.802556,437.910565 670.802556,436.808422 C670.802556,426.891623 662.838071,418.933084 652.913863,418.933084 C647.767723,418.933084 643.233998,421.136748 639.925721,424.564946 C637.965376,423.341033 635.637583,422.606064 633.064203,422.606064 C627.060684,422.606064 621.914545,426.646219 620.444131,432.156311 C619.586752,431.910907 618.606269,431.788516 617.74889,431.788516 C612.357785,431.788516 608.069025,436.074075 608.069025,441.461154" id="Stroke-219" stroke="#EDEDED" stroke-width="5" stroke-linecap="round" stroke-linejoin="round" mask="url(#mask-2)"></path>
                        <path d="M727.899581,409.750508 C727.899581,403.62908 722.875925,398.609174 716.749924,398.609174 C711.848751,398.609174 707.683095,401.791969 706.212681,406.199918 C705.599645,406.077527 704.987232,405.955136 704.252335,405.955136 C699.473645,405.955136 695.675437,409.750508 695.675437,414.525631" id="Stroke-220" stroke="#EDEDED" stroke-width="5" stroke-linecap="round" stroke-linejoin="round" mask="url(#mask-2)"></path>
                        <polyline id="Stroke-221" stroke="#EDEDED" stroke-width="5" stroke-linecap="round" stroke-linejoin="round" mask="url(#mask-2)" points="149.430524 288.662734 2.39904461 288.662734 2.39904461 472.865326 130.19763 473.722686"></polyline>
                        <polygon id="Stroke-222" stroke="#EDEDED" stroke-width="5" stroke-linecap="round" stroke-linejoin="round" mask="url(#mask-2)" points="12.6915715 276.421619 138.403598 276.421619 138.403598 207.858277 12.6915715 207.858277"></polygon>
                        <polyline id="Stroke-223" stroke="#EDEDED" stroke-width="5" stroke-linecap="round" stroke-linejoin="round" mask="url(#mask-2)" points="149.434627 430.625551 149.434627 288.78525 2.17621312 288.78525 2.17621312 276.771646 149.434627 276.771646 149.434627 288.78525"></polyline>
                        <polygon id="Stroke-224" stroke="#EDEDED" stroke-width="5" stroke-linecap="round" stroke-linejoin="round" mask="url(#mask-2)" points="12.9987109 208.10306 138.851251 208.10306 138.851251 197.180415 12.9987109 197.180415"></polygon>
                        <path d="M23.7487603,220.529066 L23.7487603,262.768966" id="Stroke-225" stroke="#EDEDED" stroke-width="5" stroke-linecap="round" stroke-linejoin="round" mask="url(#mask-2)"></path>
                        <path d="M40.5707989,220.529066 L40.5707989,262.768966" id="Stroke-226" stroke="#EDEDED" stroke-width="5" stroke-linecap="round" stroke-linejoin="round" mask="url(#mask-2)"></path>
                        <path d="M58.3823691,220.529066 L58.3823691,262.768966" id="Stroke-227" stroke="#EDEDED" stroke-width="5" stroke-linecap="round" stroke-linejoin="round" mask="url(#mask-2)"></path>
                        <path d="M75.2044077,220.529066 L75.2044077,262.768966" id="Stroke-228" stroke="#EDEDED" stroke-width="5" stroke-linecap="round" stroke-linejoin="round" mask="url(#mask-2)"></path>
                        <path d="M92.0264463,220.529066 L92.0264463,262.768966" id="Stroke-229" stroke="#EDEDED" stroke-width="5" stroke-linecap="round" stroke-linejoin="round" mask="url(#mask-2)"></path>
                        <path d="M109.838017,220.529066 L109.838017,262.768966" id="Stroke-230" stroke="#EDEDED" stroke-width="5" stroke-linecap="round" stroke-linejoin="round" mask="url(#mask-2)"></path>
                        <path d="M126.660055,220.529066 L126.660055,262.768966" id="Stroke-231" stroke="#EDEDED" stroke-width="5" stroke-linecap="round" stroke-linejoin="round" mask="url(#mask-2)"></path>
                    </g>
                </g>
            </g>
        </g>
    </g>
</svg>