<?xml version="1.0" encoding="UTF-8"?>
<svg width="200px" height="162px" viewBox="0 0 200 162" version="1.1" xmlns="http://www.w3.org/2000/svg" xmlns:xlink="http://www.w3.org/1999/xlink">
    <!-- Generator: Sketch 43.1 (39012) - http://www.bohemiancoding.com/sketch -->
    <title>Group 29</title>
    <desc>Created with Sketch.</desc>
    <defs></defs>
    <g id="UI" stroke="none" stroke-width="1" fill="none" fill-rule="evenodd">
        <g id="01.01.Desktop" transform="translate(-883.000000, -4922.000000)">
            <g id="Group-29" transform="translate(886.000000, 4925.000000)">
                <g id="Truck">
                    <g id="Group-56" transform="translate(0.463588, 0.260883)">
                        <g id="Group-13">
                            <path d="M61.4724245,136.782104 L123.227318,136.782104 L123.227318,14.8240011 C123.227318,6.91157095 116.804947,0.497193855 108.882655,0.497193855 L14.5679041,0.497193855 C6.64561279,0.497193855 0.223241563,6.91157095 0.223241563,14.8240011 L0.223241563,122.455297 C0.223241563,130.367727 6.64561279,136.782104 14.5679041,136.782104 L19.6736057,136.782104" id="Fill-10" fill="#FFFFFF"></path>
                            <path d="M61.4724245,136.782104 L123.227318,136.782104 L123.227318,14.8240011 C123.227318,6.91157095 116.804947,0.497193855 108.882655,0.497193855 L14.5679041,0.497193855 C6.64561279,0.497193855 0.223241563,6.91157095 0.223241563,14.8240011 L0.223241563,122.455297 C0.223241563,130.367727 6.64561279,136.782104 14.5679041,136.782104 L19.6736057,136.782104" id="Stroke-12" stroke="#4664F1" stroke-width="7" stroke-linecap="round" stroke-linejoin="round"></path>
                        </g>
                        <path d="M0.223241563,94.5986894 L123.226812,94.5986894" id="Stroke-14" stroke="#4664F1" stroke-width="7" stroke-linecap="round" stroke-linejoin="round"></path>
                        <path d="M192.257507,99.4160701 L171.781548,99.4160701" id="Stroke-16" stroke="#000000" stroke-width="7" stroke-linecap="round" stroke-linejoin="round"></path>
                        <g id="Group-21" transform="translate(123.010657, 22.751397)">
                            <path d="M10.4743828,114.030708 L0.25285524,114.030708 L0.25285524,0.46079162 L32.1262833,0.46079162 C35.0446226,0.46079162 37.8440009,1.63122458 39.8800044,3.71879162 C50.1779707,14.2804955 55.7483792,21.3839872 66.0392584,31.939624 C68.124365,34.0787609 69.283095,36.9509983 69.283095,39.9359816 L69.283095,105.477699 C69.283095,110.201395 65.4490098,114.030708 60.7194272,114.030708 L52.6624822,114.030708" id="Fill-18" fill="#FFFFFF"></path>
                            <path d="M10.4743828,114.030708 L0.25285524,114.030708 L0.25285524,0.46079162 L32.1262833,0.46079162 C35.0446226,0.46079162 37.8440009,1.63122458 39.8800044,3.71879162 C50.1779707,14.2804955 55.7483792,21.3839872 66.0392584,31.939624 C68.124365,34.0787609 69.283095,36.9509983 69.283095,39.9359816 L69.283095,105.477699 C69.283095,110.201395 65.4490098,114.030708 60.7194272,114.030708 L52.6624822,114.030708" id="Stroke-20" stroke="#4664F1" stroke-width="7" stroke-linecap="round" stroke-linejoin="round"></path>
                        </g>
                        <path d="M135.146089,74.9720201 L192.293904,74.9720201 L192.293904,61.9106961 C192.293904,59.4100648 191.312856,57.0039782 189.562359,55.2157184 C181.215858,46.6915285 175.97854,40.4409615 169.039321,32.9461458 L135.146089,32.9461458 L135.146089,74.9720201 Z" id="Fill-22" fill="#FFFFFF"></path>
                        <path d="M135.146089,74.9720201 L192.293904,74.9720201 L192.293904,61.9106961 C192.293904,59.4100648 191.312856,57.0039782 189.562359,55.2157184 C181.215858,46.6915285 175.97854,40.4409615 169.039321,32.9461458 L135.146089,32.9461458 L135.146089,74.9720201 Z" id="Stroke-24" stroke="#4664F1" stroke-width="7" stroke-linecap="round" stroke-linejoin="round"></path>
                        <path d="M19.5261954,134.371872 C19.5261954,123.158467 28.6279716,114.06802 39.8553517,114.06802 C51.0827318,114.06802 60.184508,123.158467 60.184508,134.371872 C60.184508,145.585277 51.0827318,154.675724 39.8553517,154.675724 C28.6279716,154.675724 19.5261954,145.585277 19.5261954,134.371872" id="Fill-26" fill="#FFFFFF"></path>
                        <path d="M19.5261954,134.371872 C19.5261954,123.158467 28.6279716,114.06802 39.8553517,114.06802 C51.0827318,114.06802 60.184508,123.158467 60.184508,134.371872 C60.184508,145.585277 51.0827318,154.675724 39.8553517,154.675724 C28.6279716,154.675724 19.5261954,145.585277 19.5261954,134.371872 Z" id="Stroke-28" stroke="#4664F1" stroke-width="7" stroke-linecap="round" stroke-linejoin="round"></path>
                        <path d="M33.7566048,134.371872 C33.7566048,131.007699 36.4871377,128.280565 39.8555036,128.280565 C43.2233632,128.280565 45.9538961,131.007699 45.9538961,134.371872 C45.9538961,137.736045 43.2233632,140.463179 39.8555036,140.463179 C36.4871377,140.463179 33.7566048,137.736045 33.7566048,134.371872" id="Fill-30" fill="#4664F1"></path>
                        <path d="M135.26748,134.371872 C135.26748,123.158467 144.369256,114.06802 155.596636,114.06802 C166.824016,114.06802 175.925792,123.158467 175.925792,134.371872 C175.925792,145.585277 166.824016,154.675724 155.596636,154.675724 C144.369256,154.675724 135.26748,145.585277 135.26748,134.371872" id="Fill-32" fill="#FFFFFF"></path>
                        <path d="M135.26748,134.371872 C135.26748,123.158467 144.369256,114.06802 155.596636,114.06802 C166.824016,114.06802 175.925792,123.158467 175.925792,134.371872 C175.925792,145.585277 166.824016,154.675724 155.596636,154.675724 C144.369256,154.675724 135.26748,145.585277 135.26748,134.371872 Z" id="Stroke-34" stroke="#4664F1" stroke-width="7" stroke-linecap="round" stroke-linejoin="round"></path>
                        <path d="M149.49794,134.371872 C149.49794,131.007699 152.228472,128.280565 155.596838,128.280565 C158.964698,128.280565 161.695231,131.007699 161.695231,134.371872 C161.695231,137.736045 158.964698,140.463179 155.596838,140.463179 C152.228472,140.463179 149.49794,137.736045 149.49794,134.371872" id="Fill-36" fill="#4664F1"></path>
                    </g>
                </g>
                <g id="Group-28-Copy" transform="translate(26.000000, 18.000000)" stroke-linecap="round" stroke="#48FBAB" stroke-width="5" stroke-linejoin="round">
                    <g id="Group-23" transform="translate(51.197603, 19.765171) rotate(11.000000) translate(-51.197603, -19.765171) translate(37.697603, 3.265171)">
                        <path d="M26.7787611,32.1 C26.7787611,19.3422223 16.4060308,9 3.61061947,9" id="Oval"></path>
                        <polyline id="Path-2" points="9.50868854 18.6283781 4.33431069e-13 9.1476563 9.17464053 -8.34887715e-13"></polyline>
                    </g>
                    <g id="Group-15" transform="translate(20.657579, 28.602747) rotate(-111.000000) translate(-20.657579, -28.602747) translate(7.157579, 12.102747)">
                        <path d="M26.1769912,32.1 C26.1769912,19.3422223 15.8042608,9 3.00884956,9" id="Oval-Copy"></path>
                        <polyline id="Path-2-Copy" points="7.15058846 19.3369051 3.41060513e-13 9.1476563 9.17464053 4.45865567e-13"></polyline>
                    </g>
                    <g id="Group-15-Copy" transform="translate(44.364133, 52.352557) rotate(-232.000000) translate(-44.364133, -52.352557) translate(30.864133, 35.852557)">
                        <path d="M26.1769912,32.1 C26.1769912,19.3422223 15.8042608,9 3.00884956,9" id="Oval-Copy"></path>
                        <polyline id="Path-2-Copy" points="8.32552014 19.7724944 -6.96331881e-13 9.1476563 9.17464053 1.08002496e-12"></polyline>
                    </g>
                </g>
            </g>
        </g>
    </g>
</svg>