<?xml version="1.0" encoding="utf-8"?>
<!-- Generator: Adobe Illustrator 18.0.0, SVG Export Plug-In . SVG Version: 6.00 Build 0)  -->
<!DOCTYPE svg PUBLIC "-//W3C//DTD SVG 1.1//EN" "http://www.w3.org/Graphics/SVG/1.1/DTD/svg11.dtd">
<svg version="1.1" id="图层_1" xmlns="http://www.w3.org/2000/svg" xmlns:xlink="http://www.w3.org/1999/xlink" x="0px" y="0px"
	 viewBox="0 0 300 200" enable-background="new 0 0 300 200" xml:space="preserve">
<g>
	<g>
		<circle id="_Ellipse_3_1_" fill="#E6FAFF" cx="150.3" cy="107.7" r="17.5"/>
		<path fill="none" stroke="#EF4E3F" stroke-width="1.8888" stroke-linecap="round" stroke-linejoin="round" d="M150.9,90.4
			c-5.6,3.2-9.4,9.6-9.4,16.9s3.8,13.7,9.4,16.9c5.6-3.3,9.4-9.6,9.4-16.9C160.3,100,156.5,93.7,150.9,90.4z"/>
	</g>
	<rect x="93.3" y="108.2" fill="#B3D5E0" width="24.6" height="4.7"/>
	<polygon fill="#B3D5E0" points="200.1,112.9 133.9,112.9 133.9,108.2 205.7,108.2 	"/>
	<path fill="none" stroke="#B3D5E0" stroke-width="3.7777" stroke-miterlimit="10" d="M226,114.3c-3.9,38.5-35.1,68-74.6,68
		c-26,0-47.6-11.4-61.4-31.2"/>
	<path fill="none" stroke="#FFCDCC" stroke-width="2.8333" stroke-linejoin="round" d="M75.4,105c3.1-38.6,34.9-69.4,74.4-70.2
		c25.9-0.6,47.3,9.6,61.6,29"/>
	<circle fill="#53AACE" cx="229.3" cy="76.1" r="1.5"/>
	<circle fill="#53AACE" cx="217.4" cy="89.6" r="1.5"/>
	<path fill="#53AACE" d="M211.9,72.7v-0.4c-1.5,0-2.7,1.2-2.7,2.7c0,1.5,1.2,2.7,2.7,2.7s2.7-1.2,2.7-2.7c0-1.5-1.2-2.7-2.7-2.7v0.9
		c1,0,1.8,0.8,1.8,1.8c0,1-0.8,1.8-1.8,1.8c-1,0-1.8-0.8-1.8-1.8c0-1,0.8-1.8,1.8-1.8l0,0L211.9,72.7z"/>
	<path fill="#53AACE" d="M229.8,86.2v-0.4c-1.5,0-2.7,1.2-2.7,2.7c0,1.5,1.2,2.7,2.7,2.7c1.5,0,2.7-1.2,2.7-2.7
		c0-1.5-1.2-2.7-2.7-2.7v0.9c1,0,1.8,0.8,1.8,1.8s-0.8,1.8-1.8,1.8c-1,0-1.8-0.8-1.8-1.8c0-1,0.8-1.8,1.8-1.8l0,0L229.8,86.2z"/>
	<circle fill="#EF4E3F" cx="75.4" cy="106.3" r="8"/>
	
		<circle fill="none" stroke="#53AACE" stroke-width="2.8333" stroke-linecap="round" stroke-linejoin="round" cx="224.6" cy="106.3" r="8"/>
	<polyline fill="none" stroke="#EF4E3F" stroke-width="2.8333" stroke-linecap="round" stroke-linejoin="round" points="211.3,47.7 
		211.3,63.7 195.3,63.7 	"/>
	<polyline fill="none" stroke="#53AACE" stroke-width="2.8333" stroke-linecap="round" stroke-linejoin="round" points="88.7,164.9 
		88.7,148.9 104.7,148.9 	"/>
	<path fill="none" stroke="#53AACE" stroke-width="2.8333" stroke-linecap="round" stroke-linejoin="round" d="M224.6,115.7
		c-3.8,37.6-36,65.2-74.6,65.2c-25.4,0-47.7-12.6-61.2-32"/>
	<path fill="none" stroke="#EF4E3F" stroke-width="2.8333" stroke-linecap="round" stroke-linejoin="round" d="M75.9,98.5
		c3.9-37.5,35.6-66.7,74.1-66.8c25.4,0,47,11.8,60.5,31.1"/>
	<g>
		<g>
			
				<polyline fill="none" stroke="#53AACE" stroke-width="1.8888" stroke-linecap="round" stroke-linejoin="round" stroke-miterlimit="10" points="
				115.4,112.8 93.5,112.8 93.5,101.9 115.4,101.9 			"/>
			
				<line fill="none" stroke="#53AACE" stroke-width="1.8888" stroke-linecap="round" stroke-linejoin="round" stroke-miterlimit="10" x1="100.8" y1="101.9" x2="100.8" y2="112.8"/>
			<g>
				
					<path fill="none" stroke="#53AACE" stroke-width="1.8888" stroke-linecap="round" stroke-linejoin="round" stroke-miterlimit="10" d="
					M186.2,101.9c-0.9-6-3.3-11.5-6.7-16.2c-1,1-2.3,1.6-3.8,1.6c-3,0-5.5-2.5-5.5-5.5c0-1.5,0.6-2.8,1.6-3.8
					c-4.7-3.5-10.2-5.8-16.2-6.7c-0.2,2.8-2.6,5-5.4,5c-2.9,0-5.2-2.2-5.4-5c-6,0.9-11.5,3.3-16.2,6.7c1,1,1.6,2.3,1.6,3.8
					c0,3-2.5,5.5-5.5,5.5c-1.5,0-2.8-0.6-3.8-1.6c-3.5,4.7-5.8,10.2-6.7,16.2c2.8,0.2,5,2.6,5,5.4c0,2.9-2.2,5.2-5,5.4
					c0.9,6,3.3,11.5,6.7,16.2c1-1,2.3-1.6,3.8-1.6c3,0,5.5,2.5,5.5,5.5c0,1.5-0.6,2.8-1.6,3.8c4.7,3.5,10.2,5.8,16.2,6.7
					c0.2-2.8,2.6-5,5.4-5c2.9,0,5.2,2.2,5.4,5c6-0.9,11.5-3.3,16.2-6.7c-1-1-1.6-2.3-1.6-3.8c0-3,2.5-5.5,5.5-5.5
					c1.5,0,2.8,0.6,3.8,1.6c3.5-4.7,5.8-10.2,6.7-16.2"/>
				
					<path fill="none" stroke="#53AACE" stroke-width="1.8888" stroke-linecap="round" stroke-linejoin="round" stroke-miterlimit="10" d="
					M165.6,112.8c-2.3,6.4-8.3,11-15.5,11c-9.1,0-16.4-7.4-16.4-16.4s7.4-16.4,16.4-16.4c7.2,0,13.3,4.6,15.5,11"/>
				<path fill="none" stroke="#EF4E3F" stroke-width="1.8888" stroke-linecap="round" stroke-linejoin="round" d="M114,112.8
					c0.9,6,3.3,11.5,6.7,16.2c1-1,2.3-1.6,3.8-1.6c3,0,5.5,2.5,5.5,5.5c0,1.5-0.6,2.8-1.6,3.8c4.7,3.5,10.2,5.8,16.2,6.7
					c0.2-2.8,2.6-5,5.4-5c2.9,0,5.2,2.2,5.4,5c6-0.9,11.5-3.3,16.2-6.7c-1-1-1.6-2.3-1.6-3.8c0-3,2.5-5.5,5.5-5.5
					c1.5,0,2.8,0.6,3.8,1.6c3.5-4.7,5.8-10.2,6.7-16.2"/>
			</g>
			<g>
				
					<polyline fill="none" stroke="#53AACE" stroke-width="1.8888" stroke-linecap="round" stroke-linejoin="round" stroke-miterlimit="10" points="
					135.5,101.9 199.5,101.9 206.8,107.4 199.5,112.8 135.5,112.8 				"/>
			</g>
			
				<line fill="none" stroke="#53AACE" stroke-width="1.8888" stroke-linecap="round" stroke-linejoin="round" stroke-miterlimit="10" x1="177.5" y1="78.1" x2="181.2" y2="78.1"/>
			
				<line fill="none" stroke="#EF4E3F" stroke-width="1.8888" stroke-linecap="round" stroke-linejoin="round" x1="177.5" y1="136.6" x2="181.2" y2="136.6"/>
			
				<line fill="none" stroke="#53AACE" stroke-width="1.8888" stroke-linecap="round" stroke-linejoin="round" stroke-miterlimit="10" x1="148.3" y1="67.2" x2="152" y2="67.2"/>
			
				<line fill="none" stroke="#EF4E3F" stroke-width="1.8888" stroke-linecap="round" stroke-linejoin="round" x1="148.3" y1="147.6" x2="152" y2="147.6"/>
			
				<line fill="none" stroke="#53AACE" stroke-width="1.8888" stroke-linecap="round" stroke-linejoin="round" stroke-miterlimit="10" x1="119.1" y1="78.1" x2="122.7" y2="78.1"/>
			
				<line fill="none" stroke="#EF4E3F" stroke-width="1.8888" stroke-linecap="round" stroke-linejoin="round" x1="119.1" y1="136.6" x2="122.7" y2="136.6"/>
			
				<line fill="none" stroke="#53AACE" stroke-width="1.8888" stroke-linecap="round" stroke-linejoin="round" stroke-miterlimit="10" x1="190.3" y1="112.8" x2="190.3" y2="101.9"/>
			
				<path fill="none" stroke="#53AACE" stroke-width="1.8888" stroke-linecap="round" stroke-linejoin="round" stroke-miterlimit="10" d="
				M102.5,94.6c5.6-21.1,24.8-36.6,47.7-36.6c22.8,0,42,15.5,47.7,36.6"/>
			
				<path fill="none" stroke="#EF4E3F" stroke-width="1.8888" stroke-linecap="round" stroke-miterlimit="10" stroke-dasharray="1.0577,6.3559" d="
				M197.8,120.2c-5.6,21.1-24.8,36.6-47.7,36.6c-22.8,0-42-15.5-47.7-36.6"/>
		</g>
	</g>
	<g>
		<path fill="#53AACE" d="M225.3,79.9l-9.3,0c-0.4,0-0.8,0.4-0.8,0.8c0,0.4,0.4,0.8,0.8,0.8l9.3,0c0.4,0,0.8-0.4,0.8-0.8
			C226.1,80.3,225.7,79.9,225.3,79.9"/>
		<path fill="#53AACE" d="M221.5,84.6l0-7.7c0-0.4-0.4-0.8-0.8-0.8c-0.4,0-0.8,0.4-0.8,0.8l0,7.7c0,0.4,0.4,0.8,0.8,0.8
			C221.1,85.4,221.5,85.1,221.5,84.6"/>
	</g>
	<g>
		<path fill="#53AACE" d="M223.5,69.3h-4.2c-0.2,0-0.4,0.2-0.4,0.4c0,0.2,0.2,0.4,0.4,0.4h4.2c0.2,0,0.4-0.2,0.4-0.4
			C223.8,69.5,223.7,69.3,223.5,69.3"/>
		<path fill="#53AACE" d="M221.7,71.4v-3.5c0-0.2-0.2-0.4-0.4-0.4s-0.4,0.2-0.4,0.4v3.5c0,0.2,0.2,0.4,0.4,0.4
			S221.7,71.6,221.7,71.4"/>
	</g>
	<g>
		<circle fill="#EF4E3F" cx="73.7" cy="135.3" r="1.5"/>
		<circle fill="#EF4E3F" cx="85.4" cy="122.2" r="1.5"/>
		<path fill="#EF4E3F" d="M90.7,138.6v0.4c1.4,0,2.6-1.2,2.6-2.6s-1.2-2.6-2.6-2.6c-1.4,0-2.6,1.2-2.6,2.6s1.2,2.6,2.6,2.6v-0.8
			c-1,0-1.8-0.8-1.8-1.8c0-1,0.8-1.8,1.8-1.8c1,0,1.8,0.8,1.8,1.8c0,1-0.8,1.8-1.8,1.8l0,0L90.7,138.6z"/>
		<path fill="#EF4E3F" d="M73.3,125.5v0.4c1.4,0,2.6-1.2,2.6-2.6s-1.2-2.6-2.6-2.6c-1.4,0-2.6,1.2-2.6,2.6s1.2,2.6,2.6,2.6v-0.8
			c-1,0-1.8-0.8-1.8-1.8s0.8-1.8,1.8-1.8c1,0,1.8,0.8,1.8,1.8c0,1-0.8,1.8-1.8,1.8l0,0L73.3,125.5z"/>
		<g>
			<path fill="#EF4E3F" d="M77.7,131.5h9c0.4,0,0.8-0.4,0.8-0.8c0-0.4-0.4-0.8-0.8-0.8h-9c-0.4,0-0.8,0.4-0.8,0.8
				C76.9,131.1,77.3,131.5,77.7,131.5"/>
			<path fill="#EF4E3F" d="M81.4,126.9v7.5c0,0.4,0.4,0.8,0.8,0.8c0.4,0,0.8-0.4,0.8-0.8v-7.5c0-0.4-0.4-0.8-0.8-0.8
				C81.8,126.1,81.4,126.5,81.4,126.9"/>
		</g>
		<g>
			<path fill="#EF4E3F" d="M79.4,141.9h4.1c0.2,0,0.4-0.2,0.4-0.4s-0.2-0.4-0.4-0.4h-4.1c-0.2,0-0.4,0.2-0.4,0.4
				S79.3,141.9,79.4,141.9"/>
			<path fill="#EF4E3F" d="M81.1,139.9v3.4c0,0.2,0.2,0.4,0.4,0.4c0.2,0,0.4-0.2,0.4-0.4v-3.4c0-0.2-0.2-0.4-0.4-0.4
				C81.3,139.5,81.1,139.7,81.1,139.9"/>
		</g>
	</g>
</g>
</svg>
