<?xml version="1.0" encoding="UTF-8"?>
<svg width="146px" height="42px" viewBox="0 0 146 42" version="1.1" xmlns="http://www.w3.org/2000/svg" xmlns:xlink="http://www.w3.org/1999/xlink">
    <!-- Generator: Sketch 47 (45396) - http://www.bohemiancoding.com/sketch -->
    <title>Intuit_Logo</title>
    <desc>Created with Sketch.</desc>
    <defs></defs>
    <g id="Desktop" stroke="none" stroke-width="1" fill="none" fill-rule="evenodd">
        <g id="01.01home" transform="translate(-1293.000000, -5508.000000)" fill-rule="nonzero" fill="#B9B9B9">
            <g id="Intuit_Logo" transform="translate(1293.000000, 5508.000000)">
                <g id="Group">
                    <path d="M97.7579548,41.2063077 L93.9128394,41.2063077 C93.1316581,41.2063077 92.5328496,40.7920513 92.4742428,40.0231282 L92.4130879,38.5405641 C89.648012,40.7353333 86.3441904,41.9181538 82.8598162,41.9181538 C76.1327753,41.9181538 73.3709756,37.7152821 73.3709756,31.3144103 L73.3709756,13.7932308 C73.3709756,12.7855897 73.9712402,12.4298462 74.9293339,12.4298462 L79.1362826,12.4298462 C80.0983805,12.4298462 80.6396743,12.7245641 80.6396743,13.7932308 L80.6396743,30.0694872 C80.6396743,33.3289744 81.4801904,35.5786667 85.0857824,35.5786667 C87.3648951,35.5786667 90.2504607,34.3362564 92.0527107,32.7366667 L92.0527107,13.7932308 C92.0527107,12.7855897 92.5943685,12.4298462 93.5524622,12.4298462 L97.8176536,12.4298462 C98.7801156,12.4298462 99.3217734,12.7245641 99.3217734,13.7932308 L99.3217734,39.5489231 C99.3210454,40.7920513 98.95812,41.2063077 97.7579548,41.2063077 Z" id="Shape"></path>
                    <path d="M0,13.6115897 C0,12.9026154 0.361105224,12.4284103 1.08076755,12.4284103 L6.16244993,12.4284103 C6.88284029,12.4284103 7.30328035,12.8433846 7.30328035,13.6115897 L7.30328035,39.7255385 C7.30328035,40.7920513 6.82059332,41.2063077 5.80170873,41.2063077 L1.56236252,41.2063077 C0.48450711,41.2063077 0,40.7920513 0,39.7255385 L0,13.6115897 Z" id="Shape"></path>
                    <path d="M106.836912,13.6115897 C106.836912,12.9026154 107.199837,12.4284103 107.918771,12.4284103 L113.00009,12.4284103 C113.721936,12.4284103 114.142376,12.8433846 114.142376,13.6115897 L114.142376,39.7255385 C114.142376,40.7920513 113.661145,41.2063077 112.638621,41.2063077 L108.399274,41.2063077 C107.321055,41.2063077 106.836912,40.7920513 106.836912,39.7255385 L106.836912,13.6115897 Z" id="Shape"></path>
                    <path d="M39.5031642,41.2063077 L35.1786379,41.2063077 C34.0978704,41.2063077 33.7378572,40.6739487 33.7378572,39.6655897 L33.7378572,23.5523077 C33.7378572,20.2960513 32.8383703,17.9849744 29.1719874,17.9849744 C26.8284436,17.9849744 23.9465182,19.2313333 22.0845694,20.8284103 L22.0845694,39.7251795 C22.0845694,40.7349744 21.6637653,41.2059487 20.6445167,41.2059487 L16.2577435,41.2059487 C15.3564365,41.2059487 14.8151426,40.7349744 14.8151426,39.7847692 L14.8151426,13.916359 C14.8151426,12.9679487 15.2384948,12.4355897 16.3181703,12.4355897 L20.2208005,12.4355897 C21.0613166,12.4355897 21.6051585,12.6714359 21.6634013,13.5598974 L21.7227361,15.1411795 C24.488176,12.9510769 27.9721862,11.7079487 31.4565604,11.7079487 C38.1843293,11.7079487 40.9468571,15.8537436 40.9468571,22.3106154 L40.9468571,39.6655897 C40.946493,40.6739487 40.5872079,41.2063077 39.5031642,41.2063077 Z" id="Shape"></path>
                    <g transform="translate(44.410118, 0.000000)" id="Shape">
                        <path d="M16.5019991,4.34538462 C16.5019991,1.94564103 14.5308451,0 12.097025,0 C9.66466098,0 7.69059482,1.94564103 7.69059482,4.34538462 C7.69059482,6.74512821 9.665025,8.68861538 12.097025,8.68861538 C14.5308451,8.68861538 16.5019991,6.74512821 16.5019991,4.34538462 Z"></path>
                        <path d="M22.7714701,12.4284103 C23.4918605,12.4284103 23.9126646,12.6642564 23.9126646,13.4353333 L23.9126646,17.6069744 C23.9126646,18.3173846 23.4328897,18.732359 22.7106792,18.732359 L15.7488472,18.732359 L15.7488472,39.7251795 C15.7488472,40.7916923 15.2687083,41.2059487 14.1864847,41.2059487 L10.0064733,41.2059487 C8.9249777,41.2059487 8.44556683,40.7916923 8.44556683,39.7251795 L8.44556683,18.732359 L1.48191468,18.732359 C0.761524323,18.732359 0.281021404,18.3173846 0.281021404,17.6069744 L0.281021404,13.4353333 C0.281021404,12.6642564 0.701097441,12.4284103 1.42257985,12.4284103 L22.7714701,12.4284103 Z"></path>
                    </g>
                    <g transform="translate(119.033678, 0.000000)" id="Shape">
                        <path d="M16.4222793,4.34538462 C16.4222793,1.94564103 14.4493052,0 12.0158491,0 C9.58348511,0 7.610511,1.94564103 7.610511,4.34538462 C7.610511,6.74512821 9.58348511,8.68861538 12.0158491,8.68861538 C14.4493052,8.68861538 16.4222793,6.74512821 16.4222793,4.34538462 Z"></path>
                        <path d="M22.6913863,12.4284103 C23.4103206,12.4284103 23.8303966,12.6642564 23.8303966,13.4353333 L23.8303966,17.6069744 C23.8303966,18.3173846 23.3517138,18.732359 22.6287753,18.732359 L15.6669433,18.732359 L15.6669433,39.7251795 C15.6669433,40.7916923 15.1882604,41.2059487 14.1060368,41.2059487 L9.92493339,41.2059487 C8.84307379,41.2059487 8.36402694,40.7916923 8.36402694,39.7251795 L8.36257087,18.732359 L1.4025589,18.732359 C0.680348451,18.732359 0.199481515,18.3173846 0.199481515,17.6069744 L0.199481515,13.4353333 C0.199481515,12.6642564 0.621377638,12.4284103 1.33994791,12.4284103 L22.6913863,12.4284103 Z"></path>
                    </g>
                </g>
                <path d="M144.005585,37 C145.091586,37 146,37.8603237 146,38.9889606 C146,40.137431 145.091586,41 144.005585,41 C142.914743,41 142,40.137431 142,38.9889606 C142.000372,37.8603237 142.915115,37 144.005585,37 Z M143.50511,40 C144.348285,40 145,39.3517158 145,38.4902971 C145,37.6495998 144.348285,37 143.50511,37 C142.652737,37 142,37.6499287 142,38.4902971 C142,39.3520447 142.652737,40 143.50511,40 Z M143.000421,38 L144.016642,38 C144.643564,38 144.93933,38.18758 144.93933,38.5726633 C144.93933,38.9321383 144.639772,39.0854673 144.246261,39.1165173 L145,40 L144.559301,40 L143.84348,39.1386044 L143.4091,39.1386044 L143.4091,40 L143,40 L143,38 L143.000421,38 Z M144,39 L144.382475,39 C144.705152,39 145,38.9798285 145,38.4826021 C145,38.0635401 144.732606,38 144.484769,38 L144.000376,38 L144.000376,39 L144,39 Z" id="Shape"></path>
            </g>
        </g>
    </g>
</svg>