<?xml version="1.0" encoding="utf-8"?>
<!-- Generator: Adobe Illustrator 18.0.0, SVG Export Plug-In . SVG Version: 6.00 Build 0)  -->
<!DOCTYPE svg PUBLIC "-//W3C//DTD SVG 1.1//EN" "http://www.w3.org/Graphics/SVG/1.1/DTD/svg11.dtd">
<svg version="1.1" id="Layer_1" xmlns="http://www.w3.org/2000/svg" xmlns:xlink="http://www.w3.org/1999/xlink" x="0px" y="0px"
	 viewBox="0 0 300 236" enable-background="new 0 0 300 236" xml:space="preserve">
<title>Artboard 4</title>
<g>
	<circle fill="#EF4E3F" cx="131.3" cy="42.3" r="2.2"/>
	<circle fill="#EF4E3F" cx="60.6" cy="68.7" r="2.2"/>
	<circle fill="#EF4E3F" cx="89.1" cy="59.9" r="2.2"/>
	<path fill="#EF4E3F" d="M237.6,87h8.4c0.4,0,0.7,0.3,0.7,0.7c0,0.4-0.3,0.7-0.7,0.7l0,0h-8.4c-0.4,0-0.7-0.3-0.7-0.7
		C236.9,87.3,237.2,87,237.6,87"/>
	<path fill="#EF4E3F" d="M241.1,91.2v-7c0-0.4,0.3-0.7,0.7-0.7c0.4,0,0.7,0.3,0.7,0.7v7c0,0.4-0.3,0.7-0.7,0.7
		C241.4,91.9,241.1,91.6,241.1,91.2"/>
	<path fill="#EF4E3F" d="M109.4,33.3h8.4c0.4,0,0.7,0.3,0.7,0.7c0,0.4-0.3,0.7-0.7,0.7h-8.4c-0.4,0-0.7-0.3-0.7-0.7
		C108.7,33.6,109,33.3,109.4,33.3"/>
	<path fill="#EF4E3F" d="M112.9,37.6v-7c0-0.4,0.3-0.7,0.7-0.7s0.7,0.3,0.7,0.7v7c0,0.4-0.3,0.7-0.7,0.7S112.9,37.9,112.9,37.6"/>
	<path fill="#EF4E3F" d="M68.5,83.8h8.4c0.4,0,0.7,0.3,0.7,0.7c0,0.4-0.3,0.7-0.7,0.7h-8.4c-0.4,0-0.7-0.3-0.7-0.7
		C67.8,84.1,68.1,83.8,68.5,83.8"/>
	<path fill="#EF4E3F" d="M72,88v-7c0-0.4,0.3-0.7,0.7-0.7c0.4,0,0.7,0.3,0.7,0.7v7c0,0.4-0.3,0.7-0.7,0.7C72.3,88.7,72,88.4,72,88
		L72,88"/>
	<path fill="#EF4E3F" d="M166.9,33.9h8.4c0.4,0,0.7,0.3,0.7,0.7c0,0.4-0.3,0.7-0.7,0.7l0,0h-8.4c-0.4,0-0.7-0.3-0.7-0.7
		C166.2,34.3,166.5,33.9,166.9,33.9"/>
	<path fill="#EF4E3F" d="M170.4,38.2v-7c0-0.4,0.3-0.7,0.7-0.7c0.4,0,0.7,0.3,0.7,0.7v7c0,0.4-0.3,0.7-0.7,0.7
		C170.7,38.9,170.4,38.6,170.4,38.2"/>
	<circle fill="none" stroke="#EF4E3F" stroke-width="1.1018" stroke-miterlimit="10" cx="183.9" cy="20.9" r="2.2"/>
	<circle fill="none" stroke="#EF4E3F" stroke-width="1.1018" stroke-miterlimit="10" cx="257.1" cy="70" r="2.2"/>
	<circle fill="none" stroke="#EF4E3F" stroke-width="1.1018" stroke-miterlimit="10" cx="221.9" cy="79.6" r="2.2"/>
	<circle fill="none" stroke="#EF4E3F" stroke-width="1.1018" stroke-miterlimit="10" cx="131.3" cy="17.3" r="2.2"/>
	<circle fill="none" stroke="#EF4E3F" stroke-width="1.1018" stroke-miterlimit="10" cx="42.9" cy="86.3" r="2.2"/>
	
		<line fill="none" stroke="#EF4E3F" stroke-width="2.2138" stroke-linecap="round" stroke-miterlimit="10" x1="235.7" y1="23.1" x2="215.2" y2="43.6"/>
	
		<line fill="none" stroke="#EF4E3F" stroke-width="2.2138" stroke-linecap="round" stroke-miterlimit="10" x1="213.2" y1="13.5" x2="212.9" y2="14"/>
	
		<line fill="none" stroke="#EF4E3F" stroke-width="2.2138" stroke-linecap="round" stroke-miterlimit="10" stroke-dasharray="1.1625,6.9548" x1="209.4" y1="20" x2="203.1" y2="31"/>
	
		<line fill="none" stroke="#EF4E3F" stroke-width="2.2138" stroke-linecap="round" stroke-miterlimit="10" x1="201.3" y1="34" x2="201.1" y2="34.5"/>
	
		<line fill="none" stroke="#EF4E3F" stroke-width="2.2138" stroke-linecap="round" stroke-miterlimit="10" x1="245.6" y1="45.5" x2="245.1" y2="45.8"/>
	
		<line fill="none" stroke="#EF4E3F" stroke-width="2.2138" stroke-linecap="round" stroke-miterlimit="10" stroke-dasharray="1.1322,6.8031" x1="239.2" y1="49.2" x2="228.4" y2="55.4"/>
	
		<line fill="none" stroke="#EF4E3F" stroke-width="2.2138" stroke-linecap="round" stroke-miterlimit="10" x1="225.5" y1="57.1" x2="225" y2="57.4"/>
	
		<line fill="none" stroke="#EF4E3F" stroke-width="2.2138" stroke-linecap="round" stroke-miterlimit="10" x1="65.9" y1="21.7" x2="86.4" y2="42.2"/>
	
		<line fill="none" stroke="#EF4E3F" stroke-width="2.2138" stroke-linecap="round" stroke-miterlimit="10" x1="88.4" y1="12.1" x2="88.7" y2="12.6"/>
	
		<line fill="none" stroke="#EF4E3F" stroke-width="2.2138" stroke-linecap="round" stroke-miterlimit="10" stroke-dasharray="1.1625,6.9548" x1="92.1" y1="18.6" x2="98.5" y2="29.7"/>
	
		<line fill="none" stroke="#EF4E3F" stroke-width="2.2138" stroke-linecap="round" stroke-miterlimit="10" x1="100.3" y1="32.7" x2="100.5" y2="33.1"/>
	
		<line fill="none" stroke="#EF4E3F" stroke-width="2.2138" stroke-linecap="round" stroke-miterlimit="10" x1="56" y1="44.1" x2="56.5" y2="44.4"/>
	
		<line fill="none" stroke="#EF4E3F" stroke-width="2.2138" stroke-linecap="round" stroke-miterlimit="10" stroke-dasharray="1.1322,6.8031" x1="62.4" y1="47.8" x2="73.2" y2="54"/>
	
		<line fill="none" stroke="#EF4E3F" stroke-width="2.2138" stroke-linecap="round" stroke-miterlimit="10" x1="76.1" y1="55.7" x2="76.6" y2="56"/>
	<rect x="130.8" y="206.2" fill="#C3E1EE" width="49.4" height="5.6"/>
	<path fill="#C3E1EE" d="M220.1,116.2c0.1,39.4-40.7,60.9-40.7,60.9s25.8-20.5,25.8-60.9c0-42.5-41.9-63.6-41.9-63.6
		S220,60.9,220.1,116.2z"/>
	<path fill="none" stroke="#53AACE" stroke-width="2.5069" stroke-linecap="round" stroke-linejoin="round" d="M155.2,52.1
		c-35.6,0-64.5,28.8-64.5,64.4c0,22.2,11.4,42.8,30.2,54.6c1.3,0.7,2.6,1.4,4,1.9c1.6,0.6,3,1.3,4.4,2.2c1.2,3.2,0.9,21.8,0.8,28
		c-0.1,6.9-0.1,8.6-0.1,8.6h50.1v-2.7c0-4.3-0.1-8.7-0.2-13c-0.1-6.1-0.2-12.3-0.1-18.3c0-2.1,2.6-3.5,6.2-5.2
		c1.4-0.6,2.7-1.3,4-2.1c5.9-3.9,11.1-8.7,15.6-14.2c9-11.2,13.9-25.2,13.9-39.6C219.6,81,190.8,52.2,155.2,52.1z"/>
	<polygon fill="none" stroke="#53AACE" stroke-width="2.8506" stroke-linecap="round" stroke-linejoin="round" points="173.5,223.3 
		138,223.3 138,212.4 173.5,212.4 	"/>
	<path fill="#53AACE" d="M159,198.7h-0.9c0,1.6-1.3,2.9-2.9,2.9s-2.9-1.3-2.9-2.9c0-1.6,1.3-2.9,2.9-2.9c1.6,0,2.9,1.3,2.9,2.9h1.7
		c0-2.5-2.1-4.6-4.6-4.6c-2.5,0-4.6,2.1-4.6,4.6c0,2.5,2.1,4.6,4.6,4.6l0,0c2.5,0,4.6-2.1,4.6-4.6H159z"/>
	
		<line fill="none" stroke="#53AACE" stroke-width="2.5069" stroke-linecap="round" stroke-linejoin="round" x1="130.8" y1="198.2" x2="150.7" y2="198.2"/>
	
		<line fill="none" stroke="#53AACE" stroke-width="2.5069" stroke-linecap="round" stroke-linejoin="round" x1="159.5" y1="198.2" x2="180.1" y2="198.2"/>
	<path fill="#EF4E3F" d="M182.3,119.3c0-0.1,0-0.1-0.1-0.2c0-0.1-0.1-0.1-0.1-0.2c0-0.1-0.1-0.1-0.1-0.2c0,0,0-0.1-0.1-0.1
		c-3-2.4-6.9-2.7-11-0.9c-5.1,2.2-9.2,7.4-10.1,12.1c-1.7-0.7-3.2-1.7-4.6-2.9c0.7-0.7,1.3-1.5,1.9-2.2c3-4,4.5-8.9,4.2-13.9
		c-0.2-4.6-2.4-8.9-6.1-11.6c-0.3-0.2-0.6-0.4-0.9-0.6l0,0h-0.1c-0.1,0-0.2-0.1-0.3-0.1h-0.4c-0.1,0-0.1,0-0.2,0.1
		c0,0-0.1,0-0.1,0.1h-0.1l0,0c-0.3,0.2-0.6,0.4-0.9,0.6c-3.7,2.8-5.9,7-6.1,11.6c-0.3,5,1.2,9.9,4.2,13.9c0.6,0.8,1.2,1.5,1.9,2.2
		c-1.4,1.2-3,2.2-4.6,2.9c-0.9-4.5-4.8-9.2-9.7-11.5c-4.1-2-8.1-1.9-11.3,0.2l0,0h-0.1c0,0-0.1,0.1-0.1,0.1c-0.1,0-0.1,0.1-0.2,0.2
		c0,0.1-0.1,0.1-0.1,0.2c0,0.1-0.1,0.1-0.1,0.2c0,0.1,0,0.1,0,0.2c0,0,0,0.1,0,0.1v0.1l0,0c0.4,4.3,2.6,8.2,6.1,10.8
		c2.6,1.9,5.7,2.9,8.9,2.9c1.6,0,3.2-0.2,4.8-0.7c-0.1,4.3-0.2,36.7-0.1,53.8c0,0.6,0.5,1,1,1l0,0c0.6,0,1-0.5,1-1
		c-0.1-19.2,0-52.1,0.1-54.1c0-0.1,0-0.3,0-0.5c2.1-0.9,4.1-2.1,5.8-3.6c1.7,1.5,3.7,2.7,5.8,3.6c0,0.2,0,0.3,0,0.5
		c0.1,2.1,0.2,36,0.1,54.1c0,0.6,0.5,1,1,1l0,0c0.6,0,1-0.5,1-1c0.1-17.4,0-49.5-0.1-53.8c1.6,0.5,3.2,0.7,4.8,0.7
		c3.2,0,6.3-1,8.9-2.9c3.5-2.6,5.7-6.6,6.1-11c0,0,0-0.1,0-0.1C182.5,119.4,182.4,119.4,182.3,119.3z M134.4,129
		c-2.8-2.1-4.7-5.3-5.1-8.8c3.3-1.9,6.9-0.7,8.8,0.2c4.3,2.1,7.9,6.4,8.6,10.4C142.6,132.2,138,131.5,134.4,129L134.4,129z
		 M153,123.7c-2.7-3.6-4.1-8-3.8-12.5c0.2-4,2.1-7.7,5.3-10.1l0.3-0.2l0.3,0.2c3.2,2.4,5.1,6.1,5.3,10.1c0.2,4.5-1.1,8.9-3.8,12.5
		c-0.5,0.7-1.1,1.4-1.8,2C154.1,125,153.5,124.4,153,123.7L153,123.7z M175.1,129c-3.6,2.5-8.2,3.2-12.3,1.7c0.7-4.3,4.5-9,9.1-11
		c2.7-1.4,5.9-1.3,8.4,0.3C179.8,123.6,177.9,126.8,175.1,129L175.1,129z"/>
	
		<line fill="none" stroke="#53AACE" stroke-width="2.5069" stroke-linecap="round" stroke-linejoin="round" x1="130.8" y1="187.4" x2="179.9" y2="187.4"/>
	
		<line fill="none" stroke="#53AACE" stroke-width="1.9914" stroke-linecap="round" stroke-linejoin="round" x1="137.8" y1="219.8" x2="156.5" y2="212.3"/>
	
		<line fill="none" stroke="#53AACE" stroke-width="1.9914" stroke-linecap="round" stroke-linejoin="round" x1="157.5" y1="222.8" x2="173.2" y2="216.5"/>
	
		<line fill="none" stroke="#53AACE" stroke-width="1.9914" stroke-linecap="round" stroke-linejoin="round" x1="140.8" y1="223.3" x2="169.5" y2="213"/>
</g>
</svg>
