<?xml version="1.0" encoding="UTF-8"?>
<svg width="199px" height="199px" viewBox="0 0 199 199" version="1.1" xmlns="http://www.w3.org/2000/svg" xmlns:xlink="http://www.w3.org/1999/xlink">
    <!-- Generator: Sketch 47 (45396) - http://www.bohemiancoding.com/sketch -->
    <title>Instagram_2016</title>
    <desc>Created with Sketch.</desc>
    <defs>
        <rect id="path-1" x="0" y="0" width="199" height="199"></rect>
        <rect id="path-3" x="0" y="0" width="199" height="199"></rect>
        <rect id="path-5" x="0" y="0" width="199" height="199"></rect>
    </defs>
    <g id="Mobile" stroke="none" stroke-width="1" fill="none" fill-rule="evenodd">
        <g id="01.01.m.home" transform="translate(-68.000000, -3959.000000)">
            <g id="Instagram_2016" transform="translate(68.000000, 3959.000000)">
                <g id="Clipped">
                    <mask id="mask-2" fill="white">
                        <use xlink:href="#path-1"></use>
                    </mask>
                    <g id="SVGID_1_"></g>
                    <path d="M99.5007463,17.926915 C126.068241,17.926915 129.214183,18.028405 139.706955,18.507 C149.407459,18.9500237 154.676233,20.5711275 158.182613,21.9332825 C162.827521,23.7384612 166.141618,25.894875 169.623371,29.3766287 C173.105623,32.8583825 175.262285,36.1717325 177.066718,40.8166412 C178.429121,44.32327 180.049976,49.591795 180.492254,59.2925475 C180.970849,69.7850712 181.072339,72.9312612 181.072339,99.4995025 C181.072339,126.067744 180.970849,129.214431 180.492254,139.706457 C180.049976,149.407707 178.428873,154.676481 177.066718,158.182115 C175.262285,162.826029 173.105623,166.140374 169.623371,169.622874 C166.141618,173.104379 162.827521,175.261041 158.182613,177.06622 C154.675984,178.428375 149.407459,180.049479 139.706955,180.491756 C129.215924,180.971097 126.07048,181.071592 99.5007463,181.071592 C72.930515,181.071592 69.7850713,180.971097 59.2937912,180.491756 C49.5932875,180.049479 44.3245137,178.428126 40.817885,177.06622 C36.1739712,175.261041 32.85888,173.104379 29.3771262,169.622874 C25.8956212,166.140374 23.739705,162.826029 21.9345262,158.182115 C20.5723712,154.676232 18.9505212,149.407707 18.5082437,139.706457 C18.0296487,129.214431 17.9281587,126.067744 17.9281587,99.4995025 C17.9281587,72.9312612 18.0296487,69.7850712 18.5082437,59.2925475 C18.9505212,49.591795 20.5723712,44.32327 21.9345262,40.8166412 C23.739705,36.1719812 25.8956212,32.8583825 29.3771262,29.3766287 C32.85888,25.894875 36.1739713,23.7384612 40.817885,21.9332825 C44.3245137,20.5711275 49.5932875,18.949775 59.2937912,18.507 C69.7865638,18.028405 72.932505,17.926915 99.5007463,17.926915 M99.5007462,-0.00074625 C72.4775413,-0.00074625 69.0890688,0.11343 58.4768962,0.59824375 C47.8858675,1.08131625 40.6529637,2.76386125 34.3242662,5.2232525 C27.7811462,7.765975 22.23228,11.16788 16.701075,16.6993337 C11.1696213,22.2307875 7.76672125,27.7804 5.224745,34.322525 C2.76386125,40.6529637 1.0820625,47.8848725 0.59899,58.47615 C0.114425,69.0893175 0.00074625,72.4770437 0.00074625,99.4992537 C0.00074625,126.522459 0.114425,129.910185 0.59899,140.522357 C1.0820625,151.114132 2.76386125,158.34629 5.224745,164.675982 C7.76672125,171.218854 11.1696213,176.76772 16.701075,182.29992 C22.23228,187.831374 27.7811462,191.233527 34.3242662,193.77625 C40.6529637,196.235641 47.8858675,197.917191 58.4768962,198.401259 C69.0893175,198.885077 72.47779,199.000249 99.5007462,199.000249 C126.523205,199.000249 129.911677,198.885077 140.52385,198.401259 C151.115127,197.91744 158.347782,196.235641 164.676729,193.77625 C171.219849,191.233527 176.768466,187.831622 182.300915,182.29992 C187.83212,176.767969 191.234274,171.218854 193.776996,164.675982 C196.237382,158.346539 197.918932,151.114132 198.402254,140.522357 C198.88657,129.910185 199.000249,126.522459 199.000249,99.4992537 C199.000249,72.476795 198.88657,69.0890687 198.402254,58.47615 C197.919181,47.8851212 196.237382,40.6529637 193.776996,34.3227737 C191.234274,27.7806487 187.832369,22.2310362 182.300915,16.6995825 C176.768715,11.1681287 171.219849,7.765975 164.676729,5.22350125 C158.348031,2.76411 151.115127,1.081565 140.52385,0.5984925 C129.911677,0.11367875 126.523205,-0.00074625 99.5007462,-0.00074625" id="Shape" fill="#717D8A" fill-rule="nonzero" mask="url(#mask-2)"></path>
                </g>
                <g id="Clipped">
                    <mask id="mask-4" fill="white">
                        <use xlink:href="#path-3"></use>
                    </mask>
                    <g id="SVGID_1_"></g>
                    <path d="M99.5007462,48.4052575 C71.2820487,48.4052575 48.4060037,71.2805563 48.4060037,99.4992537 C48.4060037,127.717951 71.2820487,150.59325 99.5007462,150.59325 C127.718697,150.59325 150.594742,127.717951 150.594742,99.4992537 C150.594742,71.2805562 127.718697,48.4052575 99.5007462,48.4052575 M99.5007462,132.665589 C81.183045,132.665589 66.333665,117.816955 66.333665,99.4992537 C66.333665,81.1815525 81.183045,66.33267 99.5007462,66.33267 C117.818447,66.33267 132.667081,81.1815525 132.667081,99.4992537 C132.667081,117.816955 117.818447,132.665589 99.5007462,132.665589" id="Shape" fill="#717D8A" fill-rule="nonzero" mask="url(#mask-4)"></path>
                </g>
                <g id="Clipped">
                    <mask id="mask-6" fill="white">
                        <use xlink:href="#path-5"></use>
                    </mask>
                    <g id="SVGID_1_"></g>
                    <path d="M164.553846,46.3866512 C164.553846,52.9802675 159.208706,58.3261537 152.613349,58.3261537 C146.019484,58.3261537 140.673846,52.9802675 140.673846,46.3866512 C140.673846,39.7912937 146.019484,34.4461537 152.613349,34.4461537 C159.208706,34.4461537 164.553846,39.7912937 164.553846,46.3866512" id="Shape" fill="#717D8A" fill-rule="nonzero" mask="url(#mask-6)"></path>
                </g>
            </g>
        </g>
    </g>
</svg>