<?xml version="1.0" encoding="UTF-8"?>
<svg width="111px" height="74px" viewBox="0 0 111 74" version="1.1" xmlns="http://www.w3.org/2000/svg" xmlns:xlink="http://www.w3.org/1999/xlink">
    <!-- Generator: Sketch 47 (45396) - http://www.bohemiancoding.com/sketch -->
    <title>intel</title>
    <desc>Created with Sketch.</desc>
    <defs></defs>
    <g id="Desktop" stroke="none" stroke-width="1" fill="none" fill-rule="evenodd">
        <g id="01.01home" transform="translate(-1059.000000, -5495.000000)" fill-rule="nonzero" fill="#B9B9B9">
            <g id="intel" transform="translate(1059.000000, 5495.000000)">
                <path d="M32.7034824,31.3880879 L32.7034824,49.5092098 L26.9975498,49.5092098 L26.9975498,26.731804 L38.7774991,26.7436282 C43.7809209,26.7436282 45.485352,30.3106486 45.485352,33.5506786 L45.485352,49.5092362 L39.7897186,49.5092362 L39.7897186,33.5805327 C39.7897186,32.2232867 39.0947617,31.3881143 37.418483,31.3881143 L32.7034824,31.3881143 L32.7034824,31.3880879 Z M71.5030065,31.1159443 C69.5527291,31.1159443 68.0433266,32.1295408 67.4129174,33.5055285 C67.0393428,34.3316784 66.9109292,34.9648274 66.8669799,35.9763378 L75.6452844,35.9763378 C75.5326641,33.5055285 74.424303,31.1159443 71.5030065,31.1159443 L71.5030065,31.1159443 Z M66.8669799,39.9022812 C66.8669799,42.8528118 68.681286,45.0244024 71.9205304,45.0244024 C74.4407817,45.0244024 75.6933533,44.3183579 77.1505673,42.8528118 L80.6748023,46.2545992 C78.4182506,48.5067258 76.0504493,49.8743838 71.878641,49.8743838 C66.4164912,49.8743838 61.1891996,46.8634522 61.1891996,38.088224 C61.1891996,30.5904025 65.7531247,26.345806 71.7502237,26.345806 C77.8290454,26.345806 81.3409178,31.3151924 81.3409178,37.8244138 L81.3409178,39.9022812 L66.8669799,39.9022812 L66.8669799,39.9022812 Z M56.372567,49.4807453 C51.7241776,49.4807453 49.7519237,46.2094754 49.7519237,42.9784715 L49.7519237,20.5259699 L55.4489315,20.5259699 L55.4489315,26.731804 L59.7436593,26.731804 L59.7436593,31.3880879 L55.4489315,31.3880879 L55.4489315,42.6174624 C55.4489315,43.9406895 56.066978,44.6751985 57.4259905,44.6751985 L59.7436593,44.6751985 L59.7436593,49.4807453 L56.372567,49.4807453 L56.372567,49.4807453 Z M21.9206483,23.5841077 L16.1755752,23.5841077 L16.1755752,18.0669621 L21.9206483,18.0669621 L21.9206483,23.5841077 Z M21.9351007,49.7487241 C17.632819,49.3307895 16.1694255,46.6926686 16.1694255,43.6484147 L16.175646,26.731804 L21.9351454,26.731804 L21.9351454,49.7487241 L21.9351007,49.7487241 Z M90.4083623,49.2620589 C86.1150053,48.8434315 84.6584805,46.2094754 84.6584805,43.1693863 L84.6584805,17.2817712 L90.4083623,17.2817712 L90.4083623,49.2620589 L90.4083623,49.2620589 Z M110.509263,21.0230471 C105.29845,-4.66046219 55.9832252,-6.28637613 24.1964574,13.2766851 L24.1964574,15.4364742 C55.9509495,-1.06150532 100.98655,-0.96431387 105.089688,22.6913095 C106.462434,30.5133423 102.102465,38.6686125 94.3157783,43.3561362 L94.3157783,49.4890787 C103.688097,46.0227254 113.300078,34.7822423 110.509259,21.0230471 L110.509263,21.0230471 Z M52.7281838,65.9592828 C30.7903155,68.0093822 7.92950084,64.7901799 4.73077143,47.459807 C3.16505686,38.9164563 7.01479381,29.8600621 12.1219112,24.2346126 L12.1219112,21.22646 C2.92813891,29.3768688 -2.06154939,39.6953963 0.810989015,51.8876854 C4.47737483,67.5220241 24.0975706,76.3819493 54.0446214,73.4397483 C65.8932417,72.2706455 81.4013755,68.4189871 92.1828351,62.4366971 L92.1828351,53.9377848 C82.3998615,59.8270407 66.2111897,64.6971495 52.7281838,65.9592828 L52.7281838,65.9592828 Z" id="path4423"></path>
                <path d="M96.9884748,19.8580425 C96.9884748,19.5533746 96.8109193,19.4565741 96.4048667,19.4565741 L96.0130491,19.4565741 L96.0130491,20.3187952 C96.0699844,20.3187952 96.354673,20.3292967 96.4048667,20.3292967 C96.8109193,20.3292967 96.9884748,20.193474 96.9884748,19.9083151 L96.9884748,19.858071 L96.9884748,19.8580425 Z M97.5998007,21.9959687 L97.1353135,21.9959687 C97.0933607,21.9959687 97.05665,21.9696744 97.0386685,21.9344376 L96.4048667,20.8583453 C96.3936105,20.8366098 96.3389387,20.8103155 96.3172146,20.8103155 L96.032526,20.8103155 L96.032526,21.8774042 C96.032526,21.9344376 95.9935559,21.9959687 95.9186513,21.9959687 L95.498364,21.9959687 C95.4459231,21.9959687 95.3934821,21.9344376 95.3934821,21.8774042 L95.3934821,19.1781679 C95.3934821,19.0220831 95.4541641,18.9567992 95.5860202,18.9365371 C95.7343543,18.9170403 96.1374119,18.9035268 96.354673,18.9035268 C97.1263247,18.9035268 97.5930592,19.1316522 97.5930592,19.8580507 L97.5930592,19.9082988 C97.5930592,20.3577971 97.3698043,20.5949261 97.023686,20.7112397 L97.6807154,21.8241033 C97.6849009,21.8466122 97.7001801,21.8774124 97.7001801,21.9036456 C97.7001801,21.9471696 97.6739292,21.9959484 97.5997885,21.9959484 L97.5998007,21.9959687 Z M96.4970051,18.4164798 C95.3537603,18.4164798 94.4292801,19.3620001 94.4292801,20.5003765 C94.4292801,21.6402508 95.3537603,22.5707638 96.4970051,22.5707638 C97.634252,22.5707638 98.567725,21.6402508 98.567725,20.5003765 C98.567725,19.3620001 97.634252,18.4164798 96.4970051,18.4164798 L96.4970051,18.4164798 Z M96.4970051,23 C95.1080336,23 94,21.8773839 94,20.5003765 C94,19.12562 95.1080336,18 96.4970051,18 C97.8709941,18 99,19.12562 99,20.5003765 C99,21.8773839 97.8709941,23 96.4970051,23 L96.4970051,23 Z" id="path4425"></path>
            </g>
        </g>
    </g>
</svg>