<?xml version="1.0" encoding="UTF-8"?>
<svg width="23px" height="23px" viewBox="0 0 23 23" version="1.1" xmlns="http://www.w3.org/2000/svg" xmlns:xlink="http://www.w3.org/1999/xlink">
    <!-- Generator: Sketch 47 (45396) - http://www.bohemiancoding.com/sketch -->
    <title>linkedin-icon</title>
    <desc>Created with Sketch.</desc>
    <defs></defs>
    <g id="Tablet" stroke="none" stroke-width="1" fill="none" fill-rule="evenodd">
        <g id="01.01.t.blog1" transform="translate(-658.000000, -7001.000000)" fill-rule="nonzero" fill="#1363A8">
            <g id="linkedin-icon" transform="translate(658.000000, 7001.000000)">
                <path d="M21.279778,0 C22.235457,0 23,0.764542937 23,1.6565097 L23,21.2797771 C23,22.1717419 22.235457,22.9362857 21.279778,22.9362857 L1.720222,22.9362857 C0.764543,22.9362857 0,22.1717445 0,21.2797771 L0,1.6565097 C0,0.764542937 0.764543,0 1.720222,0 L21.279778,0 Z M3.440443,8.60110803 L3.440443,19.5595575 L6.817175,19.5595575 L6.817175,8.60110803 L3.440443,8.60110803 Z M5.160665,3.18559556 C4.077562,3.18559556 3.185596,4.07756233 3.185596,5.16066482 C3.185596,6.24376732 4.077562,7.13573407 5.160665,7.13573407 C6.243767,7.13573407 7.135734,6.24376732 7.135734,5.16066482 C7.135734,4.07756233 6.243767,3.18559556 5.160665,3.18559556 Z M8.98338,8.60110803 L9.047091,8.60110803 L9.047091,19.432133 L12.423823,19.432133 L12.423823,14.0166205 C12.423823,12.6149584 12.67867,11.2132964 14.462604,11.2132964 C16.246537,11.2132964 16.246537,12.8698061 16.246537,14.1440444 L16.246537,19.4958449 L19.623269,19.4958449 L19.623269,13.5069252 C19.623269,10.5761773 18.98615,8.28254848 15.545706,8.28254848 C13.889197,8.28254848 12.742382,9.17451523 12.296399,10.066482 L12.232687,10.066482 L12.232687,8.60110803 L8.98338,8.60110803 Z" id="icon-linkedin"></path>
            </g>
        </g>
    </g>
</svg>