<?xml version="1.0" encoding="UTF-8"?>
<svg width="23px" height="23px" viewBox="0 0 23 23" version="1.1" xmlns="http://www.w3.org/2000/svg" xmlns:xlink="http://www.w3.org/1999/xlink">
    <!-- Generator: Sketch 47 (45396) - http://www.bohemiancoding.com/sketch -->
    <title>icon-linkedin</title>
    <desc>Created with Sketch.</desc>
    <defs></defs>
    <g id="Mobile" stroke="none" stroke-width="1" fill="none" fill-rule="evenodd">
        <g id="01.01.m.home" transform="translate(-194.000000, -4475.000000)" fill-rule="nonzero" fill="#858F9A">
            <g id="Group-6" transform="translate(0.000000, 4173.000000)">
                <g id="Group-3" transform="translate(0.000000, 141.000000)">
                    <g id="Group-4" transform="translate(90.000000, 161.000000)">
                        <path d="M125.279778,0 C126.235457,0 127,0.764542937 127,1.6565097 L127,21.2797771 C127,22.1717419 126.235457,22.9362857 125.279778,22.9362857 L105.720222,22.9362857 C104.764543,22.9362857 104,22.1717445 104,21.2797771 L104,1.6565097 C104,0.764542937 104.764543,0 105.720222,0 L125.279778,0 Z M107.440443,8.60110803 L107.440443,19.5595575 L110.817175,19.5595575 L110.817175,8.60110803 L107.440443,8.60110803 Z M109.160665,3.18559556 C108.077562,3.18559556 107.185596,4.07756233 107.185596,5.16066482 C107.185596,6.24376732 108.077562,7.13573407 109.160665,7.13573407 C110.243767,7.13573407 111.135734,6.24376732 111.135734,5.16066482 C111.135734,4.07756233 110.243767,3.18559556 109.160665,3.18559556 Z M112.98338,8.60110803 L113.047091,8.60110803 L113.047091,19.432133 L116.423823,19.432133 L116.423823,14.0166205 C116.423823,12.6149584 116.67867,11.2132964 118.462604,11.2132964 C120.246537,11.2132964 120.246537,12.8698061 120.246537,14.1440444 L120.246537,19.4958449 L123.623269,19.4958449 L123.623269,13.5069252 C123.623269,10.5761773 122.98615,8.28254848 119.545706,8.28254848 C117.889197,8.28254848 116.742382,9.17451523 116.296399,10.066482 L116.232687,10.066482 L116.232687,8.60110803 L112.98338,8.60110803 Z" id="icon-linkedin"></path>
                    </g>
                </g>
            </g>
        </g>
    </g>
</svg>