<svg width="170" height="36" viewBox="0 0 170 36" xmlns="http://www.w3.org/2000/svg"><title>Imported Layers Copy 2</title><path d="M42.969 30.324H40.24V17.436h-4.88v-2.507h12.492v2.507H42.97v12.888m24.874 0h-2.86l-1.56-3.717h-7.28l-1.584 3.717h-2.771l6.774-15.506h2.507l6.774 15.506zM59.772 18.05l-2.639 6.159h5.3l-2.66-6.159zm25.843-3.121h2.662v15.395H86.01L77.522 19.37v10.953h-2.661V14.929h2.507l8.247 10.644V14.93m18.322 15.657c-4.816 0-7.983-3.43-7.983-7.94 0-4.332 3.298-7.982 7.94-7.982 2.682 0 4.332.747 5.915 2.089l-1.715 2.045c-1.188-1.011-2.353-1.65-4.31-1.65-2.838 0-4.993 2.464-4.993 5.455 0 3.189 2.089 5.52 5.234 5.52 1.452 0 2.771-.461 3.717-1.165v-2.881h-3.937v-2.354h6.554v6.466c-1.517 1.298-3.695 2.397-6.422 2.397m25.756-13.239h-8.71v4.002h7.72v2.42h-7.72v4.134h8.82v2.42h-11.525V14.929h11.415v2.419m7.699-2.419h2.705V27.86h8.093v2.464h-10.798V14.929m24.478 15.658c-4.728 0-8.027-3.585-8.027-7.94 0-4.354 3.343-7.982 8.072-7.982 4.728 0 8.027 3.584 8.027 7.939s-3.343 7.983-8.071 7.983zm0-13.437c-3.056 0-5.19 2.441-5.19 5.454s2.178 5.498 5.235 5.498c3.057 0 5.19-2.44 5.19-5.454 0-3.013-2.177-5.498-5.234-5.498zM13.068 9.442h-1.231V8.21c0-4.474 3.639-8.114 8.112-8.114h1.232l.001 1.233c0 4.473-3.64 8.113-8.114 8.113zm5.497-6.729a5.689 5.689 0 0 0-4.112 4.112 5.69 5.69 0 0 0 4.112-4.112zm-6.252 32.902c-6.744 0-12.23-5.486-12.23-12.23 0-5.098 2.276-8.484 6.41-9.533 1.228-.311 1.925-.85 2.6-1.371.805-.622 1.718-1.327 3.22-1.327 1.503 0 2.416.706 3.222 1.328.674.52 1.371 1.059 2.598 1.37 4.134 1.049 6.41 4.43 6.41 9.52 0 6.757-5.486 12.243-12.23 12.243zm0-22.015c-.64 0-.992.25-1.725.817-.79.61-1.774 1.37-3.493 1.806-3.03.77-4.566 3.179-4.566 7.162 0 5.395 4.389 9.784 9.784 9.784 5.395 0 9.785-4.39 9.785-9.784 0-3.988-1.537-6.393-4.567-7.162-1.718-.436-2.701-1.195-3.491-1.805-.734-.567-1.085-.818-1.727-.818z" fill="#FFF" fill-rule="evenodd"/></svg>