<?xml version="1.0" encoding="UTF-8" standalone="no"?>
<svg width="38px" height="54px" viewBox="0 0 38 54" version="1.1" xmlns="http://www.w3.org/2000/svg" xmlns:xlink="http://www.w3.org/1999/xlink">
    <!-- Generator: Sketch 40.1 (33804) - http://www.bohemiancoding.com/sketch -->
    <title>logo-tangelo-iso</title>
    <desc>Created with Sketch.</desc>
    <defs></defs>
    <g id="Page-1" stroke="none" stroke-width="1" fill="none" fill-rule="evenodd">
        <g id="06.01.ContactMobile" transform="translate(-39.000000, -72.000000)" fill="#FFFFFF">
            <g id="logo-tangelo-iso" transform="translate(39.000000, 72.000000)">
                <path d="M19.8633381,14.2708065 L17.9917971,14.2694202 L17.9908676,12.4075887 C17.9908676,5.64603049 23.5232302,0.14556389 30.3229612,0.14556389 L32.1954317,0.146025997 L32.1972906,2.00831957 C32.1972906,8.76941567 26.6644633,14.2708065 19.8633381,14.2708065 L19.8633381,14.2708065 Z M28.2195108,4.10028062 C25.1568201,4.86737921 22.7405942,7.26987655 21.9686475,10.3151655 C25.0313381,9.54760485 27.4480288,7.1451075 28.2195108,4.10028062 L28.2195108,4.10028062 Z" id="Fill-8"></path>
                <path d="M18.7154101,53.8267538 C8.46445899,53.8267538 0.125482014,45.5351574 0.125482014,35.3429124 C0.125482014,27.6377305 3.58599712,22.5208132 9.86985755,20.9357842 C11.7358216,20.4648966 12.7959122,19.650663 13.8211468,18.8632317 C15.0452935,17.923767 16.4325669,16.8581469 18.7154101,16.8581469 C21.0001122,16.8581469 22.3883151,17.9242291 23.6129266,18.8641559 C24.6381612,19.6511251 25.6977871,20.4653587 27.5623568,20.9357842 C33.8457525,22.5208132 37.3058029,27.6307989 37.3058029,35.3244281 C37.3058029,45.5351574 28.9663612,53.8267538 18.7154101,53.8267538 L18.7154101,53.8267538 Z M18.7154101,20.5550076 C17.7422273,20.5550076 17.2082317,20.9334737 16.0937655,21.7892969 C14.8923914,22.7116637 13.3972964,23.8595389 10.784482,24.5189664 C6.17836259,25.681167 3.84346763,29.3230369 3.84346763,35.3429124 C3.84346763,43.4968008 10.5149281,50.1298931 18.7154101,50.1298931 C26.9158921,50.1298931 33.588282,43.4968008 33.588282,35.3429124 C33.588282,29.3161053 31.2533871,25.6807049 26.6477324,24.5189664 C24.0358475,23.8595389 22.5412173,22.7121258 21.3403079,21.7902211 C20.2249122,20.9339358 19.6909165,20.5550076 18.7154101,20.5550076 L18.7154101,20.5550076 Z" id="Fill-9"></path>
            </g>
        </g>
    </g>
</svg>