<?xml version="1.0" encoding="utf-8"?>
<!-- Generator: Adobe Illustrator 18.0.0, SVG Export Plug-In . SVG Version: 6.00 Build 0)  -->
<!DOCTYPE svg PUBLIC "-//W3C//DTD SVG 1.1//EN" "http://www.w3.org/Graphics/SVG/1.1/DTD/svg11.dtd">
<svg version="1.1" id="图层_1" xmlns="http://www.w3.org/2000/svg" xmlns:xlink="http://www.w3.org/1999/xlink" x="0px" y="0px"
	 viewBox="0 0 300 200" enable-background="new 0 0 300 200" xml:space="preserve">
<circle fill="#EF4E3F" cx="182.6" cy="9.1" r="1.8"/>
<path fill="#EF4E3F" d="M212.3,31.1h-6.8c-0.3,0-0.6,0.3-0.6,0.6c0,0.3,0.3,0.6,0.6,0.6l0,0h6.8c0.3,0,0.6-0.3,0.6-0.6
	C212.9,31.4,212.6,31.1,212.3,31.1"/>
<path fill="#EF4E3F" d="M209.5,34.5v-5.7c0-0.3-0.3-0.6-0.6-0.6c-0.3,0-0.6,0.3-0.6,0.6v5.7c0,0.3,0.3,0.6,0.6,0.6
	C209.2,35.1,209.5,34.9,209.5,34.5L209.5,34.5"/>
<path fill="#EF4E3F" d="M244.1,51.9h-6.8c-0.3,0-0.6,0.3-0.6,0.6c0,0.3,0.3,0.6,0.6,0.6h6.8c0.3,0,0.6-0.3,0.6-0.6
	C244.7,52.2,244.4,51.9,244.1,51.9L244.1,51.9"/>
<path fill="#EF4E3F" d="M241.3,55.4v-5.7c0-0.3-0.3-0.6-0.6-0.6s-0.6,0.3-0.6,0.6v5.7c0,0.3,0.3,0.6,0.6,0.6S241.3,55.7,241.3,55.4"
	/>
<path fill="#EF4E3F" d="M212.9,9.6V9.1c-1.8,0-3.2,1.4-3.2,3.2s1.4,3.2,3.2,3.2c1.8,0,3.2-1.4,3.2-3.2s-1.4-3.2-3.2-3.2v1
	c1.2,0,2.2,1,2.2,2.2s-1,2.2-2.2,2.2c-1.2,0-2.2-1-2.2-2.2c0-1.2,1-2.2,2.2-2.2l0,0L212.9,9.6z"/>
<path fill="#EF4E3F" d="M193.1,17.3v-0.4c-1.3,0-2.4,1.1-2.4,2.4c0,1.3,1.1,2.4,2.4,2.4s2.4-1.1,2.4-2.4l0,0c0-1.3-1.1-2.4-2.4-2.4
	v0.9c0.8,0,1.5,0.7,1.5,1.5c0,0.8-0.7,1.5-1.5,1.5c-0.8,0-1.5-0.7-1.5-1.5s0.7-1.5,1.5-1.5l0,0V17.3z"/>
<g>
	<path fill="#EF4E3F" d="M220.2,52.5h-6.8c-0.3,0-0.6,0.3-0.6,0.6c0,0.3,0.3,0.6,0.6,0.6h6.8c0.3,0,0.6-0.3,0.6-0.6
		C220.8,52.8,220.5,52.5,220.2,52.5"/>
	<path fill="#EF4E3F" d="M217.4,55.9v-5.7c0-0.3-0.3-0.6-0.6-0.6c-0.3,0-0.6,0.3-0.6,0.6v5.7c0,0.3,0.3,0.6,0.6,0.6
		C217.2,56.5,217.4,56.3,217.4,55.9"/>
</g>
<g>
	<circle fill="#EF4E3F" cx="180.2" cy="24.8" r="2.7"/>
</g>
<circle fill="#EF4E3F" cx="230.2" cy="67.7" r="1.8"/>
<circle fill="none" stroke="#EF4E3F" stroke-width="0.8909" stroke-miterlimit="10" cx="166.2" cy="12.3" r="1.8"/>
<path fill="#EF4E3F" d="M230.2,38.1v-0.5c-1.8,0-3.2,1.4-3.2,3.2s1.4,3.2,3.2,3.2s3.2-1.4,3.2-3.2s-1.4-3.2-3.2-3.2v1
	c1.2,0,2.2,1,2.2,2.2s-1,2.2-2.2,2.2c-1.2,0-2.2-1-2.2-2.2s1-2.2,2.2-2.2l0,0V38.1z"/>
<circle fill="#EF4E3F" cx="180.2" cy="24.8" r="2.7"/>
<path id="_Rectangle_4" fill="#FFFFFF" d="M101,48.1h96.1c1.6,0,3,1.3,3,3v130.1c0,1.6-1.3,3-3,3H101c-1.6,0-3-1.3-3-3V51.1
	C98.1,49.4,99.4,48.1,101,48.1z"/>
<g>
	<defs>
		<path id="SVGID_1_" d="M101,48.1h96.1c1.6,0,3,1.3,3,3v130.1c0,1.6-1.3,3-3,3H101c-1.6,0-3-1.3-3-3V51.1
			C98.1,49.4,99.4,48.1,101,48.1z"/>
	</defs>
	<clipPath id="SVGID_2_">
		<use xlink:href="#SVGID_1_"  overflow="visible"/>
	</clipPath>
	<g clip-path="url(#SVGID_2_)">
		<path fill="#FFCDCC" d="M202.7,46.8h-6.6v130.8c0,1.6-1.3,3-3,3H97.3v7.8c0,1.6,1.3,3,3,3h102.5c1.6,0,3-1.3,3-3V49.8
			C205.7,48.2,204.4,46.8,202.7,46.8z"/>
	</g>
</g>
<path id="_Rectangle_5" fill="none" stroke="#EF4E3F" stroke-width="4.2557" stroke-linecap="round" stroke-linejoin="round" d="
	M101,48.1h96.1c1.6,0,3,1.3,3,3v130.1c0,1.6-1.3,3-3,3H101c-1.6,0-3-1.3-3-3V51.1C98.1,49.4,99.4,48.1,101,48.1z"/>
<path fill="none" stroke="#EF4E3F" stroke-width="2.1239" stroke-linecap="round" stroke-linejoin="round" d="M109.1,55.3h80
	c1.6,0,3,1.3,3,3V174c0,1.6-1.3,3-3,3h-80c-1.6,0-3-1.3-3-3V58.3C106.1,56.7,107.5,55.3,109.1,55.3z"/>
<path fill="#FFCDCC" d="M129,42.7h44.6c3.3,0,5.9,2.6,5.9,5.9v12.7c0,1.5-1.2,2.7-2.7,2.7l0,0H128c-2.7,0-4.9-2.2-4.9-4.9V48.5
	C123.1,45.3,125.8,42.7,129,42.7z"/>
<path id="_Rectangle_6" fill="#FFFFFF" d="M126.8,39.6h44.6c3.3,0,5.9,2.6,5.9,5.9v15.4l0,0h-56.4l0,0V45.5
	C120.9,42.2,123.5,39.6,126.8,39.6z"/>
<g>
	<defs>
		<path id="SVGID_3_" d="M126.8,39.6h44.6c3.3,0,5.9,2.6,5.9,5.9v15.4l0,0h-56.4l0,0V45.5C120.9,42.2,123.5,39.6,126.8,39.6z"/>
	</defs>
	<clipPath id="SVGID_4_">
		<use xlink:href="#SVGID_3_"  overflow="visible"/>
	</clipPath>
	<g clip-path="url(#SVGID_4_)">
		<path fill="#FFCDCC" d="M172.5,40.1L172.5,40.1v11.6c0,2.1-1.7,3.8-3.8,3.8l0,0h-47.2v5.8h56.4V46C177.8,43,175.5,40.4,172.5,40.1
			z"/>
	</g>
</g>
<path id="_Rectangle_7" fill="none" stroke="#EF4E3F" stroke-width="2.1239" stroke-linecap="round" stroke-linejoin="round" d="
	M126.8,39.6h44.6c3.3,0,5.9,2.6,5.9,5.9v15.4l0,0h-56.4l0,0V45.5C120.9,42.2,123.5,39.6,126.8,39.6z"/>
<path id="_Rectangle_8" fill="#FFFFFF" d="M133.4,30.9h31.3c2.4,0,4.4,2,4.4,4.4v0v3.9l0,0H129l0,0v-3.9
	C129,32.8,131,30.9,133.4,30.9C133.4,30.9,133.4,30.9,133.4,30.9z"/>
<g>
	<defs>
		<path id="SVGID_5_" d="M133.4,30.9h31.3c2.4,0,4.4,2,4.4,4.4v0v3.9l0,0H129l0,0v-3.9C129,32.8,131,30.9,133.4,30.9
			C133.4,30.9,133.4,30.9,133.4,30.9z"/>
	</defs>
	<clipPath id="SVGID_6_">
		<use xlink:href="#SVGID_5_"  overflow="visible"/>
	</clipPath>
	<g clip-path="url(#SVGID_6_)">
		<path fill="#FFCDCC" d="M165.9,31c0.2,0.5,0.2,0.9,0.2,1.4v2.4c0,0.9-0.7,1.6-1.6,1.6h-35.9v2.7h40.2v-4
			C168.8,33.3,167.6,31.6,165.9,31z"/>
	</g>
</g>
<path id="_Rectangle_9" fill="none" stroke="#EF4E3F" stroke-width="2.4341" stroke-linecap="round" stroke-linejoin="round" d="
	M133.4,30.9h31.3c2.4,0,4.4,2,4.4,4.4v0v3.9l0,0H129l0,0v-3.9C129,32.8,131,30.9,133.4,30.9C133.4,30.9,133.4,30.9,133.4,30.9z"/>
<line fill="none" stroke="#53AACE" stroke-width="1.7818" stroke-linecap="round" stroke-linejoin="round" x1="126.8" y1="112.6" x2="163.2" y2="112.6"/>
<line fill="none" stroke="#53AACE" stroke-width="1.7818" stroke-linecap="round" stroke-linejoin="round" x1="126.8" y1="106.2" x2="175.9" y2="106.2"/>
<line fill="none" stroke="#53AACE" stroke-width="1.7818" stroke-linecap="round" stroke-linejoin="round" x1="126.8" y1="99.8" x2="175.9" y2="99.8"/>
<line fill="none" stroke="#53AACE" stroke-width="1.7818" stroke-linecap="round" stroke-linejoin="round" x1="126.8" y1="89" x2="163.2" y2="89"/>
<line fill="none" stroke="#53AACE" stroke-width="1.7818" stroke-linecap="round" stroke-linejoin="round" x1="126.8" y1="82.6" x2="175.9" y2="82.6"/>
<line fill="none" stroke="#53AACE" stroke-width="1.7818" stroke-linecap="round" stroke-linejoin="round" x1="126.8" y1="76.2" x2="175.9" y2="76.2"/>
<line fill="none" stroke="#53AACE" stroke-width="1.7818" stroke-linecap="round" stroke-linejoin="round" x1="126.8" y1="161.3" x2="163.2" y2="161.3"/>
<line fill="none" stroke="#53AACE" stroke-width="1.7818" stroke-linecap="round" stroke-linejoin="round" x1="126.8" y1="154.9" x2="175.9" y2="154.9"/>
<line fill="none" stroke="#53AACE" stroke-width="1.7818" stroke-linecap="round" stroke-linejoin="round" x1="126.8" y1="148.5" x2="175.9" y2="148.5"/>
<line fill="none" stroke="#53AACE" stroke-width="1.7818" stroke-linecap="round" stroke-linejoin="round" x1="126.8" y1="137.7" x2="163.2" y2="137.7"/>
<line fill="none" stroke="#53AACE" stroke-width="1.7818" stroke-linecap="round" stroke-linejoin="round" x1="126.8" y1="131.3" x2="175.9" y2="131.3"/>
<line fill="none" stroke="#53AACE" stroke-width="1.7818" stroke-linecap="round" stroke-linejoin="round" x1="126.8" y1="124.9" x2="175.9" y2="124.9"/>
<path fill="none" stroke="#53AACE" stroke-width="0.8909" stroke-miterlimit="10" d="M118.9,74L118.9,74c1.3,0,2.4,1.1,2.4,2.4l0,0
	c0,1.3-1.1,2.4-2.4,2.4l0,0c-1.3,0-2.4-1.1-2.4-2.4l0,0C116.5,75.1,117.6,74,118.9,74z"/>
<path fill="#53AACE" d="M118.9,97.4L118.9,97.4c1.3,0,2.4,1.1,2.4,2.4l0,0c0,1.3-1.1,2.4-2.4,2.4l0,0c-1.3,0-2.4-1.1-2.4-2.4l0,0
	C116.5,98.5,117.6,97.4,118.9,97.4z"/>
<path fill="none" stroke="#53AACE" stroke-width="0.8909" stroke-miterlimit="10" d="M118.9,122.5L118.9,122.5
	c1.3,0,2.4,1.1,2.4,2.4v0c0,1.3-1.1,2.4-2.4,2.4l0,0c-1.3,0-2.4-1.1-2.4-2.4v0C116.5,123.6,117.6,122.5,118.9,122.5z"/>
<path fill="#53AACE" d="M118.9,145.6L118.9,145.6c1.3,0,2.4,1.1,2.4,2.4l0,0c0,1.3-1.1,2.4-2.4,2.4l0,0c-1.3,0-2.4-1.1-2.4-2.4l0,0
	C116.5,146.7,117.6,145.6,118.9,145.6z"/>
</svg>
