<?xml version="1.0" encoding="utf-8"?>
<!-- Generator: Adobe Illustrator 18.0.0, SVG Export Plug-In . SVG Version: 6.00 Build 0)  -->
<!DOCTYPE svg PUBLIC "-//W3C//DTD SVG 1.1//EN" "http://www.w3.org/Graphics/SVG/1.1/DTD/svg11.dtd">
<svg version="1.1" id="图层_1" xmlns="http://www.w3.org/2000/svg" xmlns:xlink="http://www.w3.org/1999/xlink" x="0px" y="0px"
	 viewBox="0 0 749 189" enable-background="new 0 0 749 189" xml:space="preserve">
<title>Group 15</title>
<desc>Created with Sketch.</desc>
<g id="Desktop">
	<g id="Artboard-3" transform="translate(-363.000000, -254.000000)">
		<g id="Group-15" transform="translate(350.000000, 247.000000)">
			<g id="Group-14" transform="translate(50.000000, 60.000000)" opacity="0.1279">
				<path id="_x201C_" fill="#2E3C40" d="M116,62.9c0,6.4-2.1,11.9-6.4,16.4S100,86,93.7,86c-8.6,0-15.7-3.3-21.4-10
					c-5.7-6.7-8.5-15.3-8.5-25.8c0-19.3,6.7-33,20.2-41.3C93.7,3,101.6,0,107.6,0c2.6,0,3.8,1,3.8,3.1c0,1.8-1.4,3.1-4.2,3.9
					C88,12.6,78.4,23.3,78.4,39c0,6.9,1.6,12.9,4.9,17.7c0.5-8.7,5.5-13.1,15-13.1c5.1,0,9.3,1.9,12.7,5.6
					C114.3,52.9,116,57.5,116,62.9z M51.9,62.9c0,6.4-2.1,11.9-6.4,16.4S36,86,30,86c-8.8,0-16-3.4-21.6-10.2C2.8,69,0,60.3,0,49.7
					c0-19,6.7-32.7,20.2-40.9C30,3,37.7,0,43.5,0c2.6,0,3.8,1,3.8,3.1c0,1.8-1.4,3.1-4.2,3.9c-19,5.7-28.6,16.5-28.6,32.4
					c0,6.7,1.6,12.5,4.9,17.4c0.5-8.7,5.3-13.1,14.6-13.1c5.1,0,9.3,1.9,12.7,5.6C50.2,52.9,51.9,57.5,51.9,62.9z"/>
				<path id="_x201D_" fill="#2E3C40" d="M674,38.3c0,19-6.7,32.7-20.2,40.9C644,85,636.1,88,630.1,88c-2.6,0-3.8-1-3.8-3.1
					c0-1.8,1.4-3.1,4.2-3.9c10.7-3.3,18.2-7.4,22.5-12.1c4.3-4.8,6.4-11.2,6.4-19.5c0-7.2-1.6-13.2-4.9-18.1
					c-0.5,8.7-5.5,13.1-15,13.1c-5.1,0-9.3-1.9-12.7-5.6c-3.4-3.7-5.1-8.3-5.1-13.7c0-6.4,2.1-11.9,6.4-16.4S637.8,2,644,2
					c8.8,0,16,3.4,21.6,10.2S674,27.7,674,38.3z M609.9,38.3c0,18.8-6.7,32.4-20.2,40.9c-9.3,5.9-17.1,8.9-23.3,8.9
					c-2.6,0-3.8-1-3.8-3.1c0-1.8,1.4-3.1,4.2-3.9c10.7-3.3,18.1-7.3,22.3-12c4.2-4.6,6.3-11.3,6.3-20.1c0-6.9-1.5-12.9-4.5-17.7
					c0,8.7-5,13.1-15,13.1c-5.1,0-9.3-1.9-12.7-5.6c-3.4-3.7-5.1-8.3-5.1-13.7c0-6.4,2.1-11.9,6.4-16.4S574,2,580.3,2
					c8.6,0,15.7,3.4,21.2,10.2C607.1,19,609.9,27.7,609.9,38.3z"/>
			</g>
		</g>
	</g>
</g>
</svg>
