<?xml version="1.0" encoding="UTF-8" standalone="no"?>
<svg width="60px" height="60px" viewBox="0 0 60 60" version="1.1" xmlns="http://www.w3.org/2000/svg" xmlns:xlink="http://www.w3.org/1999/xlink">
    <!-- Generator: Sketch 40.1 (33804) - http://www.bohemiancoding.com/sketch -->
    <title>social-media-likedin</title>
    <desc>Created with Sketch.</desc>
    <defs></defs>
    <g id="Page-1" stroke="none" stroke-width="1" fill="none" fill-rule="evenodd">
        <g id="06.01.ContactMobile" transform="translate(-335.000000, -2262.000000)">
            <g id="Group-2" transform="translate(87.000000, 2264.000000)">
                <g id="social-media-likedin" transform="translate(249.665272, 0.000000)">
                    <ellipse id="Stroke" stroke="#EF4E3F" stroke-width="3" cx="28.167364" cy="28" rx="28.167364" ry="28"></ellipse>
                    <path d="M17.9302534,36.528274 L22.227,36.528274 L22.227,22.2068356 L17.9302534,22.2068356 L17.9302534,36.528274 L17.9302534,36.528274 Z M34.6696849,21.7107603 C32.5844041,21.7107603 30.7185685,22.4722808 29.3949658,24.1531712 L29.3949658,22.1597329 L25.0824658,22.1597329 L25.0824658,36.5284315 L29.3949658,36.5284315 L29.3949658,28.7582123 C29.3949658,27.1160753 30.8994178,25.5141096 32.7838425,25.5141096 C34.6682671,25.5141096 35.1329932,27.1160753 35.1329932,28.7180411 L35.1329932,36.5270137 L39.4297397,36.5270137 L39.4297397,28.3982466 C39.4295822,22.7519041 36.7563836,21.7107603 34.6696849,21.7107603 L34.6696849,21.7107603 Z M20.0585411,20.775637 C21.2460342,20.775637 22.2098288,19.8118425 22.2098288,18.6243493 C22.2098288,17.4368562 21.2460342,16.4732192 20.0585411,16.4732192 C18.8710479,16.4732192 17.9072534,17.4370137 17.9072534,18.6245068 C17.9072534,19.812 18.8710479,20.775637 20.0585411,20.775637 L20.0585411,20.775637 Z" id="Shape" fill="#EF4E3F"></path>
                </g>
            </g>
        </g>
    </g>
</svg>