<svg width="48" height="48" viewBox="0 0 48 48" xmlns="http://www.w3.org/2000/svg"><title>G+</title><g transform="translate(2 2)" fill="none" fill-rule="evenodd"><circle stroke="#EF4E3F" stroke-width="3" cx="22" cy="22" r="22"/><path d="M21.676 13.75c.933 0 1.866.027 2.77.027.233 0 .525 0 .525.302 0 .876-1.487.876-2.129.958.963.63 1.283 1.862 1.283 2.93 0 3.368-2.828 3.806-2.828 4.792 0 .904 3.674 2.245 3.674 5.34 0 3.45-3.411 4.901-6.619 4.901-2.77 0-5.977-1.123-5.977-4.162 0-3.231 3.79-4.135 6.59-4.135-.35-.904-.671.055-.671-1.807-2.8 0-4.782-1.534-4.782-4.245 0-2.218 1.516-3.833 3.703-4.49 1.254-.384 3.15-.411 4.461-.411zm-2.507 7.311c1.4 0 1.866-1.205 1.866-2.327 0-1.424-.904-3.752-2.741-3.752-1.37 0-1.866 1.232-1.866 2.328 0 1.424.904 3.751 2.74 3.751zm-.409 9.803c1.604 0 3.878-.93 3.878-2.683 0-1.725-2.07-2.465-3.615-2.465-1.691 0-3.878.74-3.878 2.629 0 1.752 2.041 2.52 3.615 2.52zm13.56-12.158v2.739h-1.954v-2.739H27.45V16.9h2.916v-2.738h1.954V16.9h2.915v1.807H32.32z" fill="#EF4E3F"/></g></svg>