<svg width="48" height="48" viewBox="0 0 48 48" xmlns="http://www.w3.org/2000/svg"><title>Instagram</title><g transform="translate(2 2)" fill="none" fill-rule="evenodd"><circle stroke="#EF4E3F" stroke-width="3" cx="22" cy="22" r="22"/><path d="M28.798 13.75H15.202c-.792 0-1.452.66-1.452 1.452v4.042h5.494c.826-.593 1.7-1.105 2.756-1.105 1.023 0 1.947.512 2.756 1.105h5.494v-4.042c0-.792-.66-1.452-1.452-1.452zm.347 3.828a.57.57 0 0 1-.561.578h-2.162a.585.585 0 0 1-.578-.578v-2.162a.57.57 0 0 1 .578-.56h2.162c.313 0 .56.247.56.56v2.162zm-4.39 4.966A2.746 2.746 0 0 0 22 19.805a2.746 2.746 0 0 0-2.756 2.74A2.76 2.76 0 0 0 22 25.3a2.76 2.76 0 0 0 2.756-2.756zm1.453-1.088c.099.33.132.676.132 1.023A4.348 4.348 0 0 1 22 26.834a4.348 4.348 0 0 1-4.34-4.355c0-.347.034-.694.133-1.023H13.75v7.342c0 .792.66 1.452 1.452 1.452h13.596c.792 0 1.452-.66 1.452-1.452v-7.342h-4.043z" fill="#EF4E3F"/></g></svg>