<svg width="48" height="48" viewBox="0 0 48 48" xmlns="http://www.w3.org/2000/svg"><title>Twitter</title><g transform="translate(2 2)" fill="none" fill-rule="evenodd"><circle stroke="#EF4E3F" stroke-width="3" cx="22" cy="22" r="22"/><path d="M26.59 18.435s0-.138 0 0c-.703-.691-1.548-.968-2.392-.83.844-.138 1.267-.414 1.407-.552 0-.138 0-.277-.14-.277a2.69 2.69 0 0 0-1.126.277c.422-.277.563-.415.563-.553-.423 0-.845.276-1.408.691.14-.276.282-.415.14-.553a1.09 1.09 0 0 0-.562.553c-.422.415-.704.691-.845 1.106-.563.967-.985 1.796-1.266 2.763h-.141a3.303 3.303 0 0 0-1.267-1.105c-.563-.415-1.267-.691-2.111-1.106-.845-.414-1.689-.829-2.674-1.105 0 .967.422 1.796 1.407 2.35-.281 0-.704 0-.985.137 0 .83.704 1.52 1.97 1.797-.422 0-.844.138-1.266.414.422.83 1.126 1.106 2.252 1.106-.141.138-.423.276-.423.276-.14.139-.281.415-.14.691.281.415.563.553 1.266.553-.985.968-2.252 1.52-3.659 1.382-.845 0-1.83-.414-2.815-1.244.985 1.382 2.393 2.488 4.082 3.179 1.97.553 3.94.69 5.77.138a10.055 10.055 0 0 0 4.786-3.178c.563-.83.985-1.659 1.126-2.488.985 0 1.689-.276 2.111-.83-.281.14-.985.14-1.97-.137.985-.139 1.689-.415 1.83-.968a2.791 2.791 0 0 1-2.112 0c-.14-.967-.563-1.796-1.407-2.487z" fill="#EF4E3F"/></g></svg>