<?xml version="1.0" encoding="UTF-8"?>
<svg width="72px" height="21px" viewBox="0 0 72 21" version="1.1" xmlns="http://www.w3.org/2000/svg" xmlns:xlink="http://www.w3.org/1999/xlink">
    <!-- Generator: Sketch 47 (45396) - http://www.bohemiancoding.com/sketch -->
    <title>Group 24</title>
    <desc>Created with Sketch.</desc>
    <defs></defs>
    <g id="Desktop" stroke="none" stroke-width="1" fill="none" fill-rule="evenodd">
        <g id="-09.04.blog" transform="translate(-556.000000, -3809.000000)">
            <g id="Group-24" transform="translate(556.000000, 3809.000000)">
                <rect id="Rectangle-17" fill="#4EB0D3" x="0" y="0" width="72" height="21" rx="10.5"></rect>
                <path d="M17.0214999,13.018 C17.0214999,11.394 15.9714999,10.68 14.5994999,10.05 C14.1654999,9.854 12.8074999,9.322 12.5554999,8.902 C12.4714999,8.776 12.4574999,8.622 12.4574999,8.468 C12.4574999,7.978 12.9054999,7.656 13.3674999,7.656 C14.0394999,7.656 14.2354999,8.09 14.3194999,8.664 L16.9374999,8.664 C16.9094999,7.852 16.7834999,7.278 16.2514999,6.62 C15.5934999,5.822 14.4594999,5.444 13.4514999,5.444 C11.6874999,5.444 9.82549986,6.564 9.82549986,8.496 C9.82549986,10.12 11.0154999,10.904 12.3594999,11.464 C12.6674999,11.59 12.9754999,11.716 13.2834999,11.856 C13.8294999,12.094 14.3894999,12.318 14.3894999,12.99 C14.3894999,13.55 13.9274999,13.984 13.3814999,13.984 C12.6114999,13.984 12.3034999,13.242 12.3034999,12.57 L9.67149986,12.57 L9.67149986,12.906 C9.67149986,15.118 11.3234999,16.196 13.4094999,16.196 C15.4534999,16.196 17.0214999,15.188 17.0214999,13.018 Z M26.2159999,7.964 L26.2159999,5.64 L19.4959999,5.64 L19.4959999,7.964 L21.5399999,7.964 L21.5399999,16 L24.1859999,16 L24.1859999,7.964 L26.2159999,7.964 Z M35.0465,16 L35.0465,13.676 L31.8265,13.676 L31.8265,11.898 L34.9485,11.898 L34.9485,9.574 L31.8265,9.574 L31.8265,7.964 L35.0465,7.964 L35.0465,5.64 L29.2925,5.64 L29.2925,16 L35.0465,16 Z M46.495,9.14 C46.495,10.092 46.131,11.212 45.403,11.856 C44.507,12.64 43.541,12.752 42.379,12.752 L41.231,12.752 L41.231,16 L38.697,16 L38.697,5.64 L42.085,5.64 C43.149,5.64 44.423,5.682 45.277,6.396 C46.089,7.082 46.495,8.076 46.495,9.14 Z M43.961,9.182 C43.961,8.104 43.079,7.964 42.211,7.964 L41.231,7.964 L41.231,10.428 L42.309,10.428 C43.177,10.428 43.961,10.232 43.961,9.182 Z M60.8100001,16 L60.8100001,5.64 L56.4700001,5.64 L56.4700001,7.866 L58.1640001,7.866 L58.1640001,16 L60.8100001,16 Z" id="STEP-1" fill="#FFFFFF"></path>
            </g>
        </g>
    </g>
</svg>