<?xml version="1.0" encoding="UTF-8"?>
<svg width="239px" height="233px" viewBox="0 0 239 233" version="1.1" xmlns="http://www.w3.org/2000/svg" xmlns:xlink="http://www.w3.org/1999/xlink">
    <!-- Generator: Sketch 47 (45396) - http://www.bohemiancoding.com/sketch -->
    <title>Group 2</title>
    <desc>Created with Sketch.</desc>
    <defs></defs>
    <g id="Page-1" stroke="none" stroke-width="1" fill="none" fill-rule="evenodd">
        <g id="StyleGuide" transform="translate(-1203.000000, -3984.000000)">
            <g id="Group-2" transform="translate(1178.000000, 3984.000000)">
                <rect id="Rectangle-4-Copy-4" x="0" y="0" width="289" height="233"></rect>
                <g id="growth" transform="translate(25.000000, 0.000000)">
                    <g id="Capa_1">
                        <path d="M51.8983562,214.477032 L51.8983562,29.2260731 C51.8983562,23.9730129 56.1568028,19.7145662 61.409863,19.7145662 L178.569498,19.7145662 C183.822558,19.7145662 188.081005,23.9730129 188.081005,29.2260731 L188.081005,214.477032 C188.081005,219.730092 183.822558,223.988539 178.569498,223.988539 L61.409863,223.988539 C56.1568028,223.988539 51.8983562,219.730092 51.8983562,214.477032" id="Shape" fill="#FFFFFF"></path>
                        <g id="Group" transform="translate(52.132420, 206.401826)">
                            <path d="M1.06392694,4.14931507 L1.06392694,8.07520548 L1.06392694,8.07520548 C1.06392694,12.740675 4.84603729,16.5227854 9.51150685,16.5227854 L126.671142,16.5227854 C131.336611,16.5227854 135.118721,12.740675 135.118721,8.07520548 L135.118721,4.14931507 C133.633695,6.81016282 130.824823,8.45884811 127.777626,8.45821918 L8.40502283,8.45821918 C5.35782496,8.45884811 2.54895372,6.81016282 1.06392694,4.14931507" id="Shape" fill="#BADDEB"></path>
                            <path d="M1.57219561e-13,0 L1.57219561e-13,8.02200913 L1.06392694,8.02200913 L1.06392694,4.14931507 C0.355512039,2.88185498 -0.0111281344,1.4519583 1.87458176e-13,0 M136.182648,0 C136.185078,1.43401055 135.818703,2.84455252 135.118721,4.09611872 L135.118721,8.02200913 C135.118721,12.6874787 131.336611,16.469589 126.671142,16.469589 L9.51150685,16.469589 C4.86673305,16.4696811 1.09317615,12.7198872 1.06392694,8.07520548 L2.27373675e-13,8.07520548 C2.27373675e-13,13.3282657 4.25844667,17.5867123 9.51150685,17.5867123 L126.671142,17.5867123 C131.924202,17.5867123 136.182648,13.3282657 136.182648,8.07520548 L136.182648,0" id="Shape" fill="#53AACE"></path>
                            <path d="M127.777626,8.40502283 L8.40502283,8.40502283 C3.7630569,8.40502283 1.51193112e-14,4.64196593 0,0 L0.0638356164,8.57525114 C0.0638356164,13.8283113 4.32228228,18.086758 9.57534247,18.086758 L126.734977,18.086758 C131.988037,18.086758 136.246484,13.8283113 136.246484,8.57525114 L136.182648,0 C136.182648,4.64196593 132.419592,8.40502283 127.777626,8.40502283 Z" id="Shape" fill="#E7F3F8"></path>
                        </g>
                        <path d="M173.707352,36.7373973 L170.515571,36.7373973 L170.515571,194.69863 C170.515571,197.548445 168.20534,199.858676 165.355525,199.858676 L62.7716895,199.858676 L62.7716895,201.890776 C62.7716895,204.094241 64.5579507,205.880502 66.7614155,205.880502 L173.707352,205.880502 C175.910816,205.880502 177.697078,204.094241 177.697078,201.890776 L177.697078,40.716484 C177.699913,39.6574762 177.280479,38.6410255 176.531644,37.8921913 C175.78281,37.143357 174.766359,36.7239226 173.707352,36.726758" id="Shape" fill="#C3E1EE"></path>
                        <path d="M66.7720548,36.7373973 L66.7720548,37.8013242 L173.707352,37.8013242 C175.31077,37.8129753 176.606084,39.1130335 176.611872,40.716484 L176.611872,201.912055 C176.611872,203.527929 175.301947,204.837854 173.686073,204.837854 L66.7720548,204.837854 C65.9942429,204.840682 65.2473183,204.533678 64.6963213,203.984678 C64.1453243,203.435677 63.8356113,202.689872 63.8356164,201.912055 L63.8356164,40.716484 C63.8356164,39.1006098 65.1455413,37.7906849 66.7614155,37.7906849 L66.7614155,35.6628311 C63.9703601,35.6628311 61.7077626,37.9254286 61.7077626,40.716484 L61.7077626,201.912055 C61.7077626,204.70311 63.9703601,206.965708 66.7614155,206.965708 L173.707352,206.965708 C176.498407,206.965708 178.761005,204.70311 178.761005,201.912055 L178.761005,40.716484 C178.761005,37.9254286 176.498407,35.6628311 173.707352,35.6628311 L66.7720548,35.6628311 L66.7720548,36.726758 L66.7720548,36.7373973 Z" id="Shape" fill="#53AACE"></path>
                        <path d="M66.5805479,36.7373973 L66.5805479,37.8013242 L173.515845,37.8013242 C175.131719,37.8013242 176.441644,39.1112491 176.441644,40.7271233 L176.441644,201.912055 C176.441644,203.527929 175.131719,204.837854 173.515845,204.837854 L66.5805479,204.837854 C64.9646737,204.837854 63.6547489,203.527929 63.6547489,201.912055 L63.6547489,40.716484 C63.6547489,39.1006098 64.9646737,37.7906849 66.5805479,37.7906849 L66.5805479,35.6628311 C63.7894925,35.6628311 61.526895,37.9254286 61.526895,40.716484 L61.526895,201.912055 C61.526895,204.70311 63.7894925,206.965708 66.5805479,206.965708 L173.515845,206.965708 C176.3069,206.965708 178.569498,204.70311 178.569498,201.912055 L178.569498,40.716484 C178.569498,37.9254286 176.3069,35.6628311 173.515845,35.6628311 L66.5805479,35.6628311 L66.5805479,36.726758 L66.5805479,36.7373973 Z" id="Shape" fill="#53AACE"></path>
                        <polyline id="Shape" fill="#7AB9CC" points="89.7741553 206.64653 72.7513242 206.64653 72.7513242 149.194475 89.7741553 149.194475 89.7741553 206.64653"></polyline>
                        <polyline id="Shape" fill="#62ACC3" points="89.7741553 149.194475 82.4224201 149.194475 82.4224201 206.64653 89.7741553 206.64653 89.7741553 149.194475"></polyline>
                        <polyline id="Shape" fill="#7AB9CC" points="114.60621 206.64653 97.583379 206.64653 97.583379 132.171644 114.60621 132.171644 114.60621 206.64653"></polyline>
                        <polyline id="Shape" fill="#62ACC3" points="114.60621 132.171644 106.89274 132.171644 106.89274 206.64653 114.60621 206.64653 114.60621 132.171644"></polyline>
                        <polyline id="Shape" fill="#7AB9CC" points="139.416986 206.64653 122.394155 206.64653 122.394155 125.617854 139.416986 125.617854 139.416986 206.64653"></polyline>
                        <polyline id="Shape" fill="#62ACC3" points="139.416986 125.617854 131.001324 125.617854 131.001324 206.64653 139.416986 206.64653 139.416986 125.617854"></polyline>
                        <polyline id="Shape" fill="#7AB9CC" points="164.249041 206.64653 147.22621 206.64653 147.22621 112.946484 164.249041 112.946484 164.249041 206.64653"></polyline>
                        <polyline id="Shape" fill="#62ACC3" points="164.249041 112.946484 155.471644 112.946484 155.471644 206.64653 164.249041 206.64653 164.249041 112.946484"></polyline>
                        <circle id="Oval" fill="#EF4E3F" cx="204.359087" cy="44.3763927" r="2.12785388"></circle>
                        <circle id="Oval" fill="#EF4E3F" cx="129.565023" cy="7.13894977" r="2.12785388"></circle>
                        <circle id="Oval" fill="#EF4E3F" cx="190.32589" cy="72.23" r="3.19178082"></circle>
                        <path d="M168.717534,4.30890411 L160.652968,4.30890411 C160.26222,4.30890411 159.945457,4.62566776 159.945457,5.01641553 C159.945457,5.40716329 160.26222,5.72392694 160.652968,5.72392694 L168.738813,5.72392694 C169.129561,5.72392694 169.446324,5.40716329 169.446324,5.01641553 C169.446324,4.62566776 169.129561,4.30890411 168.738813,4.30890411" id="Shape" fill="#EF4E3F"></path>
                        <path d="M165.376804,8.39438356 L165.376804,1.63844749 C165.376804,1.24769972 165.06004,0.930936073 164.669292,0.930936073 C164.278544,0.930936073 163.961781,1.24769972 163.961781,1.63844749 L163.961781,8.39438356 C163.961781,8.78513133 164.278544,9.10189498 164.669292,9.10189498 C165.06004,9.10189498 165.376804,8.78513133 165.376804,8.39438356" id="Shape" fill="#EF4E3F"></path>
                        <path d="M204.89105,59.633105 L196.826484,59.633105 C196.435736,59.633105 196.118973,59.9498687 196.118973,60.3406164 C196.118973,60.7313642 196.435736,61.0481279 196.826484,61.0481279 L204.912329,61.0481279 C205.303077,61.0481279 205.61984,60.7313642 205.61984,60.3406164 C205.61984,59.9498687 205.303077,59.633105 204.912329,59.633105" id="Shape" fill="#EF4E3F"></path>
                        <path d="M201.55032,63.7185845 L201.55032,56.9626484 C201.55032,56.5719006 201.233556,56.255137 200.842808,56.255137 C200.45206,56.255137 200.135297,56.5719006 200.135297,56.9626484 L200.135297,63.7185845 C200.135297,64.1093322 200.45206,64.4260959 200.842808,64.4260959 C201.233556,64.4260959 201.55032,64.1093322 201.55032,63.7185845" id="Shape" fill="#EF4E3F"></path>
                        <rect id="Rectangle-path" fill="#53AACE" x="18.086758" y="223.296986" width="220.232877" height="2.12785388"></rect>
                        <rect id="Rectangle-path" fill="#53AACE" x="0.127671233" y="223.296986" width="9.54342466" height="2.12785388"></rect>
                        <path d="M111.478265,29.2047945 L111.478265,29.2047945 C111.478265,28.1530073 112.330907,27.3003653 113.382694,27.3003653 L126.607306,27.3003653 C127.662031,27.3003653 128.517055,28.155389 128.517055,29.2101142 C128.517055,30.2648393 127.662031,31.119863 126.607306,31.119863 L113.382694,31.119863 C112.875759,31.1198709 112.389741,30.9177665 112.032284,30.5583123 C111.674827,30.1988582 111.475433,29.7117214 111.478265,29.2047945 L111.478265,29.2047945 Z" id="Shape" fill="#53AACE"></path>
                        <rect id="Rectangle-path" fill="#EF4E3F" transform="translate(60.516417, 211.312315) rotate(-44.760000) translate(-60.516417, -211.312315) " x="59.1865085" y="210.248388" width="2.65981735" height="2.12785388"></rect>
                        <path d="M68.4636986,204.922968 L66.9635616,203.412192 L70.8681735,199.528858 L72.347032,201.082192 L68.4636986,204.922968 Z M78.6135616,194.836941 L77.1134247,193.326164 L81.0180365,189.442831 L82.5181735,190.953607 L78.6135616,194.836941 Z M88.7634247,184.750913 L87.2420091,183.240137 L91.146621,179.356804 L92.646758,180.86758 L88.7634247,184.750913 Z M98.9132877,174.664886 L97.4131507,173.15411 L101.317763,169.270776 L102.8179,170.781553 L98.9132877,174.664886 Z M109.063151,164.578858 L107.563014,163.068082 L111.467626,159.184749 L112.989041,160.652968 L109.063151,164.578858 Z" id="Shape" fill="#EF4E3F"></path>
                        <polygon id="Shape" fill="#EF4E3F" points="119.234292 154.492831 117.734155 152.982055 119.053425 151.684064 118.149087 150.066895 120.00032 149.024247 121.691963 152.056438"></polygon>
                        <path d="M114.542374,143.630137 L112.286849,139.597854 L114.148721,138.533927 L116.393607,142.56621 L114.542374,143.630137 Z M108.680137,133.150457 L106.392694,129.096895 L108.254566,128.032968 L110.510091,132.065251 L108.680137,133.150457 Z M102.8179,122.670776 L100.562374,118.638493 L102.424247,117.574566 L104.679772,121.606849 L102.8179,122.670776 Z" id="Shape" fill="#EF4E3F"></path>
                        <polygon id="Shape" fill="#EF4E3F" points="96.9556621 112.159178 95.253379 109.137626 97.7323288 106.701233 99.2218265 108.212009 97.9025571 109.51 98.806895 111.127169"></polygon>
                        <path d="M105.328767,102.136986 L103.839269,100.62621 L107.680046,96.8492694 L109.169543,98.3600457 L105.328767,102.136986 Z M115.308402,92.3063014 L113.840183,90.8061644 L117.680959,87.0185845 L119.170457,88.5293607 L115.308402,92.3063014 Z M125.288037,82.4756164 L123.798539,80.9648402 L127.671233,77.1985388 L129.160731,78.7093151 L125.288037,82.4756164 Z M135.267671,72.6449315 L133.778174,71.1341553 L137.61895,67.3572146 L139.108447,68.8679909 L135.267671,72.6449315 Z M145.289863,62.7716895 L143.800365,61.2609132 L147.641142,57.4839726 L149.130639,58.9947489 L145.289863,62.7716895 Z M155.269498,52.9410046 L153.78,51.4302283 L157.620776,47.6426484 L159.110274,49.1534247 L155.269498,52.9410046 Z M165.249132,43.1103196 L163.759635,41.5995434 L167.600411,37.8119635 L169.089909,39.3227397 L165.249132,43.1103196 Z" id="Shape" fill="#EF4E3F"></path>
                        <rect id="Rectangle-path" fill="#EF4E3F" transform="translate(175.453180, 31.642184) rotate(-44.600000) translate(-175.453180, -31.642184) " x="174.123271" y="30.578257" width="2.65981735" height="2.12785388"></rect>
                        <path d="M180.622877,53.9304566 L180.622877,53.313379 C178.501675,53.313379 176.7821,55.0329531 176.7821,57.1541553 C176.7821,59.2753574 178.501675,60.9949315 180.622877,60.9949315 C182.744079,60.9949315 184.463653,59.2753574 184.463653,57.1541553 C184.463653,55.0329531 182.744079,53.313379 180.622877,53.313379 L180.622877,54.5581735 C182.056598,54.5581735 183.218858,55.7204341 183.218858,57.1541553 C183.218858,58.5878764 182.056598,59.750137 180.622877,59.750137 C179.189156,59.750137 178.026895,58.5878764 178.026895,57.1541553 C178.032725,55.722856 179.191577,54.5640037 180.622877,54.5581735 L180.622877,53.9304566 L180.622877,53.9304566 Z" id="Shape" fill="#EF4E3F"></path>
                        <path d="M141.002237,37.1523288 L130.863014,37.1523288 C130.547527,37.1523287 130.256005,37.3206389 130.098262,37.5938584 C129.940518,37.867078 129.940518,38.2036983 130.098262,38.4769178 C130.256005,38.7501374 130.547527,38.9184475 130.863014,38.9184475 L140.97032,38.9184475 C141.45802,38.9184475 141.853379,38.5230883 141.853379,38.0353881 C141.853379,37.5476879 141.45802,37.1523288 140.97032,37.1523288" id="Shape" fill="#EF4E3F"></path>
                        <path d="M136.831644,42.2485388 L136.831644,33.8115982 C136.831644,33.323898 136.436285,32.9285388 135.948584,32.9285388 C135.460884,32.9285388 135.065525,33.323898 135.065525,33.8115982 L135.065525,42.2485388 C135.065525,42.736239 135.460884,43.1315982 135.948584,43.1315982 C136.436285,43.1315982 136.831644,42.736239 136.831644,42.2485388" id="Shape" fill="#EF4E3F"></path>
                        <circle id="Oval" fill="#FFFFFF" cx="119.98968" cy="214.838767" r="4.68127854"></circle>
                        <path d="M119.98968,219.520046 L119.98968,218.456119 C117.991872,218.456119 116.372329,216.836575 116.372329,214.838767 C116.372329,212.840959 117.991872,211.221416 119.98968,211.221416 C121.987488,211.221416 123.607032,212.840959 123.607032,214.838767 C123.607032,216.836575 121.987488,218.456119 119.98968,218.456119 L119.98968,220.583973 C123.16267,220.583973 125.734886,218.011756 125.734886,214.838767 C125.734886,211.665778 123.16267,209.093562 119.98968,209.093562 C116.816691,209.093562 114.244475,211.665778 114.244475,214.838767 C114.244475,218.011756 116.816691,220.583973 119.98968,220.583973 L119.98968,219.520046 L119.98968,219.520046 Z" id="Shape" fill="#53AACE"></path>
                        <path d="M51.8983562,214.477032 L52.9622831,214.477032 L52.9622831,29.2260731 C52.9622831,24.5606035 56.7443935,20.7784932 61.409863,20.7784932 L178.569498,20.7784932 C183.234967,20.7784932 187.017078,24.5606035 187.017078,29.2260731 L187.017078,214.477032 C187.017078,219.142502 183.234967,222.924612 178.569498,222.924612 L61.409863,222.924612 C56.7443935,222.924612 52.9622831,219.142502 52.9622831,214.477032 L50.8344292,214.477032 C50.8344292,220.317683 55.5692122,225.052466 61.409863,225.052466 L178.569498,225.052466 C184.410149,225.052466 189.144932,220.317683 189.144932,214.477032 L189.144932,29.2260731 C189.144932,23.3854223 184.410149,18.6506393 178.569498,18.6506393 L61.409863,18.6506393 C55.5692122,18.6506393 50.8344292,23.3854223 50.8344292,29.2260731 L50.8344292,214.477032 L51.8983562,214.477032" id="Shape" fill="#53AACE"></path>
                        <path d="M55.4093151,221.722374 C52.6828946,221.722374 50.4726941,219.512174 50.4726941,216.785753 C50.4726941,214.059333 52.6828946,211.849132 55.4093151,211.849132 C58.1357356,211.849132 60.3459361,214.059333 60.3459361,216.785753 C60.3459361,219.512174 58.1357356,221.722374 55.4093151,221.722374 M56.7179452,201.305616 L53.983653,201.305616 C53.0470766,201.302924 52.2459559,201.978026 52.089863,202.901507 L51.7174886,205.103836 C50.9814597,205.329084 50.2688751,205.624807 49.5896347,205.986895 L47.8767123,204.710183 C47.1152072,204.164918 46.0710445,204.250431 45.4084018,204.912329 L43.4720548,206.838037 C42.8101571,207.500679 42.7246438,208.544842 43.2699087,209.306347 L44.5678995,211.125662 C44.213891,211.80605 43.9253339,212.518537 43.7061187,213.253516 L41.5782648,213.615251 C40.6547836,213.771344 39.9796819,214.572465 39.9823744,215.509041 L39.9823744,218.232694 C39.9796819,219.16927 40.6547836,219.970391 41.5782648,220.126484 L43.7805936,220.498858 C44.0059665,221.234843 44.3016842,221.947415 44.663653,222.626712 L43.3869406,224.40347 C42.837109,225.163706 42.9228896,226.211133 43.5890868,226.871781 L45.4722374,228.744292 C46.131357,229.404568 47.1717605,229.490142 47.9299087,228.946438 L49.7385845,227.680365 C50.3927629,228.02155 51.0764617,228.302864 51.7813242,228.520868 L52.1430594,230.648721 C52.2984824,231.568237 53.093655,232.242112 54.02621,232.244612 L56.7605023,232.244612 C57.6970787,232.247304 58.4981994,231.572203 58.6542922,230.648721 L59.0266667,228.520868 C59.7615383,228.296865 60.4739097,228.004793 61.1545205,227.648447 L62.9419178,228.92516 C63.7034229,229.470425 64.7475856,229.384911 65.4102283,228.723014 L67.3359361,226.797306 C67.9978337,226.134663 68.083347,225.090501 67.5380822,224.328995 L66.2613699,222.530959 C66.6189163,221.850908 66.9110358,221.138421 67.13379,220.403105 L69.2616438,220.04137 C70.1851251,219.885277 70.8602268,219.084156 70.8575342,218.14758 L70.8575342,215.423927 C70.8700326,214.487542 70.1962532,213.682624 69.2722831,213.530137 L67.1444292,213.157763 C66.9205439,212.422849 66.6284672,211.710467 66.2720091,211.029909 L67.5487215,209.242511 C68.095788,208.479736 68.0054743,207.432096 67.3359361,206.774201 L65.4102283,204.848493 C65.0521442,204.481457 64.5611783,204.274331 64.0484018,204.273973 C63.6663528,204.280356 63.2952845,204.402808 62.9844749,204.625068 L61.1864384,205.901781 C60.4868745,205.532892 59.7527922,205.233557 58.9947489,205.008082 L58.6330137,202.880228 C58.4769209,201.956747 57.6758001,201.281645 56.7392237,201.284338" id="Shape" fill="#F9B8B2"></path>
                        <path d="M67.4210502,213.976986 L64.7080365,213.519498 C64.3673417,213.466354 64.0911213,213.215245 64.0058447,212.881142 C63.7605465,211.927877 63.3808177,211.014379 62.8780822,210.168128 C62.6918934,209.879954 62.6918934,209.509407 62.8780822,209.221233 L64.4739726,206.976347 L64.4739726,206.752922 L62.5482648,204.827215 L62.4205936,204.827215 L62.3248402,204.827215 L60.1118721,206.401826 C59.8236983,206.588015 59.453151,206.588015 59.1649772,206.401826 C58.2945156,205.917257 57.3595265,205.559024 56.3881279,205.3379 C56.0513702,205.253783 55.7965135,204.978036 55.7391324,204.635708 L55.3242009,201.912055 L55.1539726,201.773744 L52.3984018,201.773744 L52.2281735,201.912055 L51.7600457,204.646347 C51.7017954,204.984573 51.4528504,205.258413 51.1216895,205.348539 C50.171021,205.59661 49.2609299,205.979995 48.4193151,206.486941 C48.1278408,206.675009 47.7532551,206.675009 47.4617808,206.486941 L45.2275342,204.89105 L45.1317808,204.89105 L45.0041096,204.89105 L43.0784018,206.816758 L43.0784018,207.040183 L44.6849315,209.285068 C44.8738674,209.572426 44.8738674,209.944606 44.6849315,210.231963 C44.2041375,211.08161 43.845947,211.994996 43.6210046,212.944977 C43.5368878,213.281735 43.2611412,213.536592 42.9188128,213.593973 L40.2164384,214.051461 L40.0781279,214.221689 L40.0781279,216.945342 L40.2164384,217.115571 L42.9507306,217.583699 C43.288957,217.641949 43.5627965,217.890894 43.6529224,218.222055 C43.9008535,219.172771 44.2842465,220.082881 44.7913242,220.924429 C44.9793927,221.215904 44.9793927,221.590489 44.7913242,221.881963 L43.1954338,224.11621 L43.1954338,224.339635 L45.1211416,226.265342 L45.2488128,226.265342 L45.3445662,226.265342 L47.6107306,224.658813 C47.7492642,224.554645 47.9162986,224.495255 48.0894977,224.488584 C48.2425227,224.489606 48.3927222,224.529903 48.5257078,224.605616 C49.3575727,225.076391 50.248477,225.434183 51.1748858,225.669543 C51.5074985,225.757288 51.7575006,226.03229 51.813242,226.371735 L52.2707306,229.084749 L52.4409589,229.223059 L55.1646119,229.223059 L55.3348402,229.084749 L55.7923288,226.371735 C55.845472,226.03104 56.0965816,225.75482 56.4306849,225.669543 C57.3840412,225.42452 58.2975777,225.044776 59.1436986,224.541781 C59.4318724,224.355592 59.8024198,224.355592 60.0905936,224.541781 L62.3354795,226.137671 L62.4312329,226.137671 L62.5589041,226.137671 L64.4846119,224.211963 L64.4846119,223.988539 L62.8887215,221.733014 C62.7025326,221.44484 62.7025326,221.074293 62.8887215,220.786119 C63.3815413,219.948774 63.7540245,219.046219 63.9952055,218.105023 C64.0829496,217.77241 64.357952,217.522408 64.6973973,217.466667 L67.410411,217.009178 L67.5487215,216.83895 L67.5487215,216.83895 L67.5487215,214.115297 L67.4210502,213.976986 Z M53.8134247,222.190502 C50.1233555,222.190502 47.1319635,219.19911 47.1319635,215.509041 C47.1319635,211.818972 50.1233555,208.82758 53.8134247,208.82758 C57.5034938,208.82758 60.4948858,211.818972 60.4948858,215.509041 C60.4948881,217.28292 59.7894902,218.98399 58.5341711,220.237313 C57.2788521,221.490636 55.5766617,222.193327 53.8027854,222.190502 L53.8134247,222.190502 Z" id="Shape" fill="#FFFFFF"></path>
                        <path d="M67.7083105,212.264064 L65.5804566,211.891689 C65.3569244,211.15665 65.0648345,210.444236 64.7080365,209.763836 L65.9634703,207.997717 C66.513302,207.237481 66.4275213,206.190054 65.7613242,205.529406 L63.8356164,203.603699 C63.1764969,202.943423 62.1360934,202.857849 61.3779452,203.401553 L59.5799087,204.678265 C58.8805746,204.306089 58.1465174,204.003201 57.3882192,203.773927 L57.026484,201.646073 C56.8832955,200.701871 56.0663517,200.007469 55.1114155,200.018265 L52.3877626,200.018265 C51.4511862,200.015572 50.6500654,200.690674 50.4939726,201.614155 L50.1215982,203.816484 C49.3855468,204.04167 48.6729563,204.337395 47.9937443,204.699543 L46.2169863,203.422831 C45.4554812,202.877566 44.4113185,202.96308 43.7486758,203.624977 L41.8123288,205.550685 C41.1504311,206.213328 41.0649178,207.25749 41.6101826,208.018995 L42.9081735,209.838311 C42.5533977,210.518344 42.2648103,211.230906 42.0463927,211.966164 L39.9185388,212.3279 C38.9950576,212.483992 38.3199558,213.285113 38.3226484,214.221689 L38.3226484,216.945342 C38.3199558,217.881919 38.9950576,218.68304 39.9185388,218.839132 L42.1208676,219.16895 C42.346116,219.904979 42.6418386,220.617563 43.0039269,221.296804 L41.7272146,223.073562 C41.177383,223.833798 41.2631636,224.881225 41.9293607,225.541872 L43.8550685,227.46758 C44.5141881,228.127855 45.5545916,228.21343 46.3127397,227.669726 L48.1320548,226.371735 C48.7862087,226.712973 49.4699123,226.994289 50.1747945,227.212237 L50.5365297,229.340091 C50.6926225,230.263573 51.4937432,230.938674 52.4303196,230.935982 L55.1646119,230.935982 C56.1011883,230.938674 56.902309,230.263573 57.0584018,229.340091 L57.4307763,227.212237 C58.1658154,226.988705 58.8782299,226.696615 59.5586301,226.339817 L61.3460274,227.61653 C62.1075325,228.161795 63.1516952,228.076281 63.8143379,227.414384 L65.7400457,225.488676 C66.4019433,224.826033 66.4874566,223.78187 65.9421918,223.020365 L64.6654795,221.222329 C65.0228516,220.542196 65.3149642,219.829727 65.5378995,219.094475 L67.6657534,218.73274 C68.5892347,218.576647 69.2643364,217.775526 69.2616438,216.83895 L69.2616438,214.115297 C69.2602829,213.203554 68.6059616,212.423747 67.7083105,212.264064 L67.7083105,212.264064 Z M67.5593607,216.881507 L67.4210502,217.051735 L64.7080365,217.509224 C64.3685912,217.564965 64.0935889,217.814967 64.0058447,218.14758 C63.7608217,219.100936 63.3810771,220.014473 62.8780822,220.860594 C62.6918934,221.148767 62.6918934,221.519315 62.8780822,221.807489 L64.4739726,224.063014 L64.4739726,224.286438 L62.5482648,226.212146 L62.4205936,226.212146 L62.3248402,226.212146 L60.0799543,224.616256 C59.7917805,224.430067 59.4212332,224.430067 59.1330594,224.616256 C58.2869385,225.119251 57.3734019,225.498995 56.4200457,225.744018 C56.0859423,225.829295 55.8348328,226.105515 55.7816895,226.44621 L55.3242009,229.116667 L55.1539726,229.254977 L52.4515982,229.254977 L52.2813699,229.116667 L51.8238813,226.403653 C51.7681399,226.064208 51.5181378,225.789205 51.1855251,225.701461 C50.2591162,225.466101 49.368212,225.108308 48.536347,224.637534 C48.4033615,224.561821 48.253162,224.521523 48.100137,224.520502 C47.9208048,224.519691 47.7457984,224.575544 47.6000913,224.680091 L45.3339269,226.286621 L45.2381735,226.286621 L45.1105023,226.286621 L43.1847945,224.360913 L43.1847945,224.137489 L44.7806849,221.903242 C44.9687534,221.611768 44.9687534,221.237182 44.7806849,220.945708 C44.2635052,220.095372 43.87285,219.174286 43.6210046,218.211416 C43.5308787,217.880255 43.2570392,217.63131 42.9188128,217.573059 L40.1845205,217.104932 L40.04621,216.934703 L40.04621,214.21105 L40.1845205,214.040822 L42.886895,213.583333 C43.2292234,213.525952 43.50497,213.271096 43.5890868,212.934338 C43.8140292,211.984357 44.1722197,211.070971 44.6530137,210.221324 C44.8419496,209.933967 44.8419496,209.561787 44.6530137,209.274429 L43.046484,207.008265 L43.046484,206.78484 L44.9721918,204.859132 L45.099863,204.859132 L45.1956164,204.859132 L47.429863,206.455023 C47.7213373,206.643091 48.095923,206.643091 48.3873973,206.455023 C49.2434668,205.951724 50.1680941,205.575422 51.1323288,205.3379 C51.4634897,205.247774 51.7124347,204.973934 51.7706849,204.635708 L52.2388128,201.901416 L52.4090411,201.763105 L55.1326941,201.763105 L55.3242009,201.912055 L55.7816895,204.614429 C55.8246338,204.953572 56.0616972,205.236385 56.3881279,205.3379 C57.3631935,205.55806 58.3018286,205.916318 59.1756164,206.401826 C59.4637902,206.588015 59.8343376,206.588015 60.1225114,206.401826 L62.356758,204.795297 L62.4525114,204.795297 L62.5801826,204.795297 L64.5058904,206.721005 L64.5058904,206.944429 L62.91,209.189315 C62.7238112,209.477489 62.7238112,209.848036 62.91,210.13621 C63.4128651,210.982396 63.7926018,211.895914 64.0377626,212.849224 C64.1230391,213.183327 64.3992595,213.434437 64.7399543,213.48758 L67.452968,213.945068 L67.5912785,214.115297 L67.5912785,216.83895 L67.5912785,216.83895 L67.5593607,216.881507 Z" id="Shape" fill="#EF4E3F"></path>
                        <path d="M53.8134247,208.82758 C50.1233555,208.82758 47.1319635,211.818972 47.1319635,215.509041 C47.1319635,219.19911 50.1233555,222.190502 53.8134247,222.190502 C57.5034938,222.190502 60.4948858,219.19911 60.4948858,215.509041 C60.4948858,211.818972 57.5034938,208.82758 53.8134247,208.82758 L53.8134247,208.82758 Z M53.8134247,220.445662 C51.0870042,220.445662 48.8768037,218.235462 48.8768037,215.509041 C48.8768037,212.782621 51.0870042,210.57242 53.8134247,210.57242 C56.5398452,210.57242 58.7500457,212.782621 58.7500457,215.509041 C58.7500457,218.235462 56.5398452,220.445662 53.8134247,220.445662 L53.8134247,220.445662 Z" id="Shape" fill="#EF4E3F"></path>
                        <path d="M146.630411,16.1397717 L146.630411,15.6078082 C145.06742,15.6078082 143.800365,16.8748628 143.800365,18.4378539 C143.800365,20.0008449 145.06742,21.2678995 146.630411,21.2678995 C148.193402,21.2678995 149.460457,20.0008449 149.460457,18.4378539 C149.460457,16.8748628 148.193402,15.6078082 146.630411,15.6078082 L146.630411,16.6717352 C147.605811,16.6717352 148.39653,17.4624534 148.39653,18.4378539 C148.39653,19.4132543 147.605811,20.2039726 146.630411,20.2039726 C145.655011,20.2039726 144.864292,19.4132543 144.864292,18.4378539 C144.864292,17.4624534 145.655011,16.6717352 146.630411,16.6717352 L146.630411,16.1397717 L146.630411,16.1397717 Z" id="Shape" fill="#EF4E3F"></path>
                        <polygon id="Shape" fill="#FFFFFF" points="197.071187 8.34118721 172.813653 27.7472146 161.163653 19.9060731"></polygon>
                        <polyline id="Shape" fill="#FFFFFF" points="201.167306 6.07502283 160.099726 20.2358904 172.866849 29.0771233 201.167306 6.07502283"></polyline>
                        <polyline id="Shape" fill="#FFFFFF" points="201.167306 6.07502283 187.017078 47.1426027 179.058904 34.3754795 201.167306 6.07502283"></polyline>
                        <polyline id="Shape" fill="#FFFFFF" points="179.058904 34.3754795 169.994247 37.2587215 172.866849 29.0771233 201.167306 6.07502283 179.058904 34.3754795"></polyline>
                        <polyline id="Shape" fill="#F9C1BC" points="195.837032 9.043379 162.429726 20.5550685 167.525936 24.0766667 195.166758 9.58598174 195.837032 9.043379"></polyline>
                        <polyline id="Shape" fill="#F9C1BC" points="201.167306 6.07502283 197.46484 9.08593607 172.866849 29.0771233 169.994247 37.2587215 179.058904 34.3754795 201.167306 6.07502283"></polyline>
                        <path d="M202.146119,6.38356164 L202.146119,6.21333333 L202.146119,5.96863014 L202.146119,5.8090411 L202.146119,5.67073059 L202.146119,5.60689498 L202.146119,5.60689498 L202.082283,5.52178082 L201.933333,5.3196347 L201.933333,5.3196347 L201.933333,5.3196347 L201.805662,5.22388128 L201.720548,5.16004566 L201.720548,5.16004566 L201.656712,5.16004566 L201.507763,5.16004566 L201.348174,5.16004566 L201.082192,5.16004566 L200.901324,5.16004566 L200.826849,5.16004566 L159.759269,19.310274 C159.379342,19.4411896 159.105592,19.7749984 159.051598,20.1732052 C158.997604,20.571412 159.172579,20.9660648 159.503927,21.1934247 L171.600776,29.5771689 L168.994155,37.0246575 C168.904765,37.3915826 169.016587,37.7783955 169.287972,38.0410261 C169.559356,38.3036566 169.949627,38.4027392 170.313425,38.3013699 L178.590776,35.6734703 L186.11274,47.7384018 C186.329981,48.0841462 186.725933,48.2750556 187.131737,48.2297144 C187.537541,48.1843731 187.881594,47.9107817 188.017169,47.5256164 L202.146119,6.38356164 L202.146119,6.38356164 L202.146119,6.38356164 Z M195.762557,9.08593607 L172.813653,27.7472146 L162.429726,20.5550685 L195.762557,9.08593607 Z M173.771187,29.7154795 L194.539041,12.8415982 L191.93242,16.1823288 L178.420548,33.4711416 L171.707169,35.5989954 L173.771187,29.7154795 Z M186.740457,44.6849315 L180.356895,34.4393151 L196.081735,14.3098174 L198.092557,11.7031963 L186.740457,44.6849315 Z" id="Shape" fill="#EF4E3F"></path>
                    </g>
                </g>
            </g>
        </g>
    </g>
</svg>