<?xml version="1.0" encoding="utf-8"?>
<!-- Generator: Adobe Illustrator 18.0.0, SVG Export Plug-In . SVG Version: 6.00 Build 0)  -->
<!DOCTYPE svg PUBLIC "-//W3C//DTD SVG 1.1//EN" "http://www.w3.org/Graphics/SVG/1.1/DTD/svg11.dtd">
<svg version="1.1" id="Layer_1" xmlns="http://www.w3.org/2000/svg" xmlns:xlink="http://www.w3.org/1999/xlink" x="0px" y="0px"
	 viewBox="0 0 300 200" enable-background="new 0 0 300 200" xml:space="preserve">
<title>Artboard 4</title>
<g>
	
		<rect x="198.3" y="70.4" transform="matrix(0.7071 -0.7071 0.7071 0.7071 -10.1721 169.8799)" fill="#FFCDCC" width="3.4" height="53.7"/>
	
		<rect x="109.1" y="31.9" transform="matrix(0.7071 -0.7071 0.7071 0.7071 -5.6642 94.1193)" fill="#C3E1EE" width="3.4" height="44.1"/>
	<g>
		<g>
			<g>
				<g>
					<path fill="#FFFFFF" stroke="#EF4E3F" stroke-width="2.4849" stroke-linecap="round" stroke-linejoin="round" d="M109.8,157.5
						c0,0-2.8,2.8-5.9,2.8c-4.9,0-8.7-4-8.7-8.7c0-2.8,2.8-5.9,2.8-5.9"/>
					<path fill="#FFFFFF" stroke="#EF4E3F" stroke-width="2.4849" stroke-linecap="round" stroke-linejoin="round" d="M121.4,169.3
						c0,0-2.8,2.8-5.9,2.8c-4.9,0-8.7-4-8.7-8.7c0-2.8,2.8-5.9,2.8-5.9"/>
					<path fill="#FFFFFF" stroke="#EF4E3F" stroke-width="2.4849" stroke-linecap="round" stroke-linejoin="round" d="M133,181
						c0,0-2.8,2.8-5.9,2.8c-4.9,0-8.7-4-8.7-8.7c0-2.8,2.8-5.9,2.8-5.9"/>
					<path fill="#FFFFFF" stroke="#EF4E3F" stroke-width="2.4849" stroke-linecap="round" stroke-linejoin="round" d="M144.8,192.8
						c0,0-2.8,2.8-5.9,2.8c-4.9,0-8.7-4-8.7-8.7c0-2.8,2.8-5.9,2.8-5.9"/>
					
						<path fill="none" stroke="#C3E1EE" stroke-width="2.4849" stroke-linecap="round" stroke-linejoin="round" stroke-miterlimit="10" d="
						M152.1,197c-2.8,0-5.9-2.8-5.9-2.8l-52.6-52.6v-4.7c0-2.6-1.1-5.2-2.8-6.9l-11-10"/>
					
						<path fill="none" stroke="#FFCDCC" stroke-width="2.4849" stroke-linecap="round" stroke-linejoin="round" stroke-miterlimit="10" d="
						M184.4,109.7c0,4.9-4,8.7-8.7,8.7H167"/>
					
						<line fill="none" stroke="#C3E1EE" stroke-width="2.4849" stroke-linecap="round" stroke-linejoin="round" stroke-miterlimit="10" x1="70.4" y1="94.4" x2="76.2" y2="100.3"/>
					
						<path fill="none" stroke="#C3E1EE" stroke-width="2.4849" stroke-linecap="round" stroke-linejoin="round" stroke-miterlimit="10" d="
						M147,147.1l30.8,30.4c0,0,2.8,2.8,5.9,2.8c4.9,0,8.7-4,8.7-8.7c0-2.8-2.8-5.9-2.8-5.9l-31.4-29.8"/>
					
						<path fill="none" stroke="#C3E1EE" stroke-width="2.4849" stroke-linecap="round" stroke-linejoin="round" stroke-miterlimit="10" d="
						M174.7,174.6c0,0,2.8,2.8,2.8,5.9c0,4.9-4,8.7-8.7,8.7c-2.8,0-5.9-2.8-5.9-2.8l-28.7-28"/>
					
						<path fill="none" stroke="#C3E1EE" stroke-width="2.4849" stroke-linecap="round" stroke-linejoin="round" stroke-miterlimit="10" d="
						M145.4,98.7l11.9,12.8l38.1,38.1c0,0,2.8,2.8,2.8,5.9c0,4.9-4,8.7-8.7,8.7c-2.8,0-5.2-4.6-5.2-4.6"/>
					<path fill="#FFFFFF" stroke="#EF4E3F" stroke-width="2.4849" stroke-linecap="round" stroke-linejoin="round" d="M182.9,108
						c0,4.9-4,8.7-8.7,8.7h-8.7"/>
					
						<line fill="none" stroke="#EF4E3F" stroke-width="2.4849" stroke-linecap="round" stroke-linejoin="round" x1="121.4" y1="78.6" x2="184.1" y2="78.6"/>
					<path fill="#FFFFFF" stroke="#EF4E3F" stroke-width="2.4849" stroke-linecap="round" stroke-linejoin="round" d="M223.4,114.2
						l-14.2,14.2v0.9c0,3.2-1.2,6.1-3.5,8.5l-8.2,8.2"/>
					<path fill="none" stroke="#53AACE" stroke-width="2.4849" stroke-linecap="round" stroke-linejoin="round" d="M147.8,146
						l32.2,32.2c0,0,2.8,2.8,5.9,2.8c4.9,0,8.7-4,8.7-8.7c0-2.8-2.8-5.9-2.8-5.9l-32.2-32.2"/>
					<path fill="none" stroke="#53AACE" stroke-width="2.4849" stroke-linecap="round" stroke-linejoin="round" d="M177,175.2
						c0,0,2.8,2.8,2.8,5.9c0,4.9-4,8.7-8.7,8.7c-2.8,0-5.9-2.8-5.9-2.8l-29.1-29.2"/>
					<path fill="none" stroke="#53AACE" stroke-width="2.4849" stroke-linecap="round" stroke-linejoin="round" d="M159.4,181
						c0,0,2.8,2.8,2.8,5.9c0,4.9-4,8.7-8.7,8.7c-2.8,0-5.9-2.8-5.9-2.8L95,140.1v-4.6c0-2.6-1.1-5.2-2.8-6.9l-11-10"/>
					<path fill="none" stroke="#53AACE" stroke-width="2.4849" stroke-linecap="round" stroke-linejoin="round" d="M147.5,98
						l11.9,12.8l38.1,38.1c0,0,2.8,2.8,2.8,5.9c0,4.9-4,8.7-8.7,8.7c-2.8,0-5.9-2.8-5.9-2.8"/>
					<path fill="#FFFFFF" stroke="#EF4E3F" stroke-width="3.7275" stroke-linecap="round" stroke-linejoin="round" d="M241.4,100.1
						c0,0-14.8,14.6-15.2,14.6l0,0c-3.4,0-6.7-1.4-9.2-3.8l-39.6-39.6c-2.2-2.2-3.4-5.2-3.4-8.3l0,0c0-0.7,29.2-30.3,29.2-30.3"/>
					<path fill="none" stroke="#53AACE" stroke-width="3.7275" stroke-linecap="round" stroke-linejoin="round" d="M60,104.9
						l14.6,14.6l0,0c3.6,0,7.4-1.5,10-4.1l38.5-38.5c2.6-2.6,4.1-6.2,4.1-10l0,0L97.9,37.6"/>
					
						<line fill="none" stroke="#EF4E3F" stroke-width="3.7275" stroke-linecap="round" stroke-linejoin="round" x1="223.8" y1="99" x2="229.7" y2="93.3"/>
					
						<line fill="none" stroke="#53AACE" stroke-width="3.7275" stroke-linecap="round" stroke-linejoin="round" x1="71.7" y1="93.3" x2="77.5" y2="99"/>
				</g>
				<path fill="none" stroke="#53AACE" stroke-width="3.7275" stroke-linecap="round" stroke-linejoin="round" d="M138.9,154.7"/>
				<path fill="none" stroke="#53AACE" stroke-width="3.7275" stroke-linecap="round" stroke-linejoin="round" d="M133,160.6"/>
			</g>
		</g>
		
			<path fill="none" stroke="#FFCDCC" stroke-width="2.4849" stroke-linecap="round" stroke-linejoin="round" stroke-miterlimit="10" d="
			M131.3,112.4c2.8,0,5.9-2.8,5.9-2.8L151.7,95h8.7"/>
		
			<path fill="#FFFFFF" stroke="#FFCDCC" stroke-width="2.4849" stroke-linecap="round" stroke-linejoin="round" stroke-miterlimit="10" d="
			M142,80"/>
		
			<path fill="none" stroke="#FFCDCC" stroke-width="2.4849" stroke-linecap="round" stroke-linejoin="round" stroke-miterlimit="10" d="
			M141.3,80.9l-18.2,16.8c0,0-2.8,2.8-2.8,5.9c0,4.9,4,8.7,8.7,8.7c2.8,0,5.9-2.8,5.9-2.8l14.6-14.6h8.7"/>
		<path fill="none" stroke="#EF4E3F" stroke-width="2.4849" stroke-linecap="round" stroke-linejoin="round" d="M142.7,79.3
			l-18.2,16.8c0,0-2.8,2.8-2.8,5.9c0,4.9,4,8.7,8.7,8.7c2.8,0,5.9-2.8,5.9-2.8l14.4-14.6h8.7"/>
	</g>
	<g>
		<circle fill="#EF4E3F" cx="128.6" cy="35.6" r="3.2"/>
		<circle fill="#53AACE" cx="153.5" cy="7.5" r="3.2"/>
		<path fill="#EF4E3F" d="M163.1,51.3v0.9c3.2,0,5.6-2.5,5.6-5.6s-2.5-5.6-5.6-5.6s-5.6,2.5-5.6,5.6s2.5,5.6,5.6,5.6v-1.9
			c-2,0-3.8-1.8-3.8-3.8s1.8-3.8,3.8-3.8c2,0,3.8,1.8,3.8,3.8s-1.8,3.8-3.8,3.8l0,0V51.3z"/>
		<path fill="#EF4E3F" d="M127.6,14.6v0.9c3.2,0,5.6-2.5,5.6-5.6s-2.5-5.6-5.6-5.6S122,6.7,122,9.9s2.5,5.6,5.6,5.6v-1.8
			c-2,0-3.8-1.8-3.8-3.8s1.8-3.8,3.8-3.8c2,0,3.8,1.8,3.8,3.8s-1.8,3.8-3.8,3.8l0,0V14.6z"/>
		<g>
			<path fill="#EF4E3F" d="M138.6,27.1H155c0.8,0,1.5-0.7,1.5-1.5c0-0.8-0.7-1.5-1.5-1.5h-16.4c-0.8,0-1.5,0.7-1.5,1.5
				C137,26.4,137.7,27.1,138.6,27.1"/>
			<path fill="#EF4E3F" d="M145.3,18.1v14.8c0,0.8,0.7,1.5,1.5,1.5c0.8,0,1.5-0.7,1.5-1.5V18.1c0-0.8-0.7-1.5-1.5-1.5
				C145.9,16.6,145.3,17.3,145.3,18.1"/>
		</g>
		<g>
			<path fill="#53AACE" d="M133.4,48.5h8.7c0.4,0,0.8-0.4,0.8-0.8c0-0.4-0.4-0.8-0.8-0.8h-8.7c-0.4,0-0.8,0.4-0.8,0.8
				C132.7,48,132.9,48.5,133.4,48.5"/>
			<path fill="#53AACE" d="M137,44.1v7.4c0,0.4,0.4,0.8,0.8,0.8s0.8-0.4,0.8-0.8v-7.4c0-0.4-0.4-0.8-0.8-0.8S137,43.6,137,44.1"/>
		</g>
	</g>
	<path id="Shape_537_" fill="#53AACE" d="M175.2,25H174c0.1,1.9-1.4,3.4-3.3,3.5s-3.4-1.4-3.5-3.3c-0.1-1.9,1.4-3.4,3.3-3.5
		c1.9-0.1,3.4,1.4,3.5,3.3l2.3-0.1c-0.1-3.2-2.8-5.6-6-5.6c-3.2,0.1-5.6,2.8-5.6,6s2.8,5.6,6,5.6c3.2-0.1,5.6-2.8,5.6-6L175.2,25
		L175.2,25z"/>
</g>
</svg>
