<?xml version="1.0" encoding="UTF-8"?>
<svg width="62px" height="55px" viewBox="0 0 62 55" version="1.1" xmlns="http://www.w3.org/2000/svg" xmlns:xlink="http://www.w3.org/1999/xlink">
    <!-- Generator: Sketch 47 (45396) - http://www.bohemiancoding.com/sketch -->
    <title>twitter-icon</title>
    <desc>Created with Sketch.</desc>
    <defs></defs>
    <g id="Tablet" stroke="none" stroke-width="1" fill="none" fill-rule="evenodd">
        <g id="01.01.t.blog1" transform="translate(-566.000000, -6996.000000)" fill-rule="nonzero" fill="#248FF2">
            <g id="twitter-icon" transform="translate(566.000000, 6996.000000)">
                <path d="M19.4982532,55 C42.8956494,55 55.6907754,33.8421098 55.6907754,15.4947345 C55.6907754,14.8937758 55.6795615,14.2955421 55.6548658,13.7000109 C58.1385766,11.7401446 60.297312,9.2943881 62,6.51021613 C59.7208032,7.61602747 57.2680919,8.36044147 54.6951273,8.69610905 C57.321353,6.97716673 59.3375735,4.25801177 60.2887819,1.01647257 C57.8310775,2.60683429 55.1093565,3.76271984 52.2114166,4.38677405 C49.8901935,1.68798941 46.5855141,0 42.9263161,0 C35.9016879,0 30.2052562,6.21805975 30.2052562,13.882708 C30.2052562,14.9722594 30.3168547,16.0320615 30.5351,17.0486249 C19.9629972,16.4679684 10.5884349,10.9429767 4.31445406,2.54186271 C3.22202077,4.59374748 2.59210528,6.97723486 2.59210528,9.52046013 C2.59210528,14.3375772 4.83780592,18.5901388 8.25275223,21.0779531 C6.16579436,21.0075721 4.2053314,20.3822507 2.49182478,19.341411 C2.48995232,19.3996651 2.48995232,19.4564591 2.48995232,19.5187191 C2.48995232,26.2429713 6.87462354,31.8571882 12.6950535,33.1293686 C11.6261716,33.4474364 10.5015736,33.617984 9.34085806,33.617984 C8.52246932,33.617984 7.72513533,33.5300623 6.95014599,33.3675902 C8.56957203,38.8843838 13.2655289,42.8989508 18.8329691,43.0111352 C14.4792974,46.7359304 8.99486953,48.9544113 3.03421329,48.9544113 C2.00873075,48.9544113 0.995668852,48.8907432 0,48.7622126 C5.62964738,52.7009303 12.3143205,54.9991211 19.4989398,54.9991211 L21.2143083,29.3473916" id="Shape"></path>
            </g>
        </g>
    </g>
</svg>