<?xml version="1.0" encoding="utf-8"?>
<!-- Generator: Adobe Illustrator 18.0.0, SVG Export Plug-In . SVG Version: 6.00 Build 0)  -->
<!DOCTYPE svg PUBLIC "-//W3C//DTD SVG 1.1//EN" "http://www.w3.org/Graphics/SVG/1.1/DTD/svg11.dtd">
<svg version="1.1" id="图层_1" xmlns="http://www.w3.org/2000/svg" xmlns:xlink="http://www.w3.org/1999/xlink" x="0px" y="0px"
	 viewBox="0 0 971 600" enable-background="new 0 0 971 600" xml:space="preserve">
<title>Group 14</title>
<desc>Created with Sketch.</desc>
<g id="Desktop">
	<g id="_x30_3.01.model" transform="translate(-474.000000, -2464.000000)">
		<g id="Group-14" transform="translate(476.000000, 2464.000000)">
			<path id="Line-5" fill="none" stroke="#DADADA" stroke-width="2" stroke-linecap="square" d="M451,49V25.2"/>
			<path id="Line-5_1_" fill="none" stroke="#DADADA" stroke-width="2" stroke-linecap="square" d="M710,51V25.2"/>
			<path id="Line" fill="#EF4E3F" stroke="#EF4E3F" stroke-width="2" stroke-linecap="square" d="M198.2,337.4h167.3"/>
			<path id="Line-decoration-1" fill="#EF4E3F" stroke="#EF4E3F" stroke-width="2" stroke-linecap="square" d="M365.5,337.4l-10.8-3
				v6L365.5,337.4z"/>
			<path id="Line_1_" fill="#EF4E3F" stroke="#EF4E3F" stroke-width="2" stroke-linecap="square" d="M534.8,337.4h167.3"/>
			<path id="Line-decoration-1_1_" fill="#EF4E3F" stroke="#EF4E3F" stroke-width="2" stroke-linecap="square" d="M702.1,337.4
				l-10.8-3v6L702.1,337.4z"/>
			<path id="Line_2_" fill="#EF4E3F" stroke="#EF4E3F" stroke-width="2" stroke-linecap="square" d="M534.8,146.8h167.3"/>
			<path id="Line-decoration-1_2_" fill="#EF4E3F" stroke="#EF4E3F" stroke-width="2" stroke-linecap="square" d="M702.1,146.8
				l-10.8-3v6L702.1,146.8z"/>
			
				<ellipse id="Oval" opacity="0.1689" fill="none" stroke="#979797" stroke-width="4" enable-background="new    " cx="84.7" cy="343.5" rx="84.7" ry="84.5"/>
			<g id="Group-4" transform="translate(24.862374, 382.198288)">
				<path id="COMPANY" fill="#808080" d="M20.9,7.3C22,8,22.7,9,23.2,10.2h-3c-0.6-1.1-1.5-1.7-2.9-1.7c-0.8,0-1.4,0.2-2,0.5
					c-0.6,0.3-1,0.8-1.4,1.4c-0.3,0.6-0.5,1.3-0.5,2.2s0.2,1.5,0.5,2.2s0.8,1.1,1.4,1.4c0.6,0.3,1.3,0.5,2,0.5
					c1.3,0,2.3-0.6,2.9-1.7h3c-0.5,1.3-1.2,2.2-2.3,2.9c-1.1,0.7-2.3,1-3.6,1c-1.2,0-2.3-0.3-3.2-0.8c-1-0.5-1.8-1.3-2.3-2.3
					s-0.9-2.1-0.9-3.3c0-1.2,0.3-2.3,0.9-3.3S13,7.6,14,7.1s2.1-0.8,3.2-0.8C18.6,6.3,19.8,6.6,20.9,7.3z M35.3,7.1
					c1,0.6,1.8,1.3,2.3,2.3s0.9,2.1,0.9,3.3c0,1.2-0.3,2.3-0.9,3.3s-1.3,1.7-2.3,2.3c-1,0.6-2.1,0.8-3.2,0.8c-1.2,0-2.3-0.3-3.2-0.8
					c-1-0.6-1.8-1.3-2.3-2.3c-0.6-1-0.9-2.1-0.9-3.3c0-1.2,0.3-2.3,0.9-3.3c0.6-1,1.3-1.7,2.3-2.3s2.1-0.8,3.2-0.8
					C33.3,6.3,34.4,6.5,35.3,7.1z M30.1,9.1c-0.6,0.3-1,0.8-1.4,1.4c-0.3,0.6-0.5,1.3-0.5,2.2s0.2,1.5,0.5,2.2s0.8,1.1,1.4,1.4
					c0.6,0.3,1.3,0.5,2,0.5c0.8,0,1.4-0.2,2-0.5c0.6-0.3,1-0.8,1.4-1.4s0.5-1.3,0.5-2.2s-0.2-1.6-0.5-2.2c-0.3-0.6-0.8-1.1-1.4-1.4
					c-0.6-0.3-1.2-0.5-2-0.5C31.3,8.6,30.7,8.7,30.1,9.1z M55.2,6.4V19h-2.5v-7.9L49.2,19h-1.8L44,11.1V19h-2.5V6.4h2.8l4,9.3l4-9.3
					H55.2z M61.4,14v5h-2.5V6.4h4.6c1,0,1.8,0.2,2.5,0.5c0.7,0.3,1.2,0.8,1.5,1.4c0.3,0.6,0.5,1.2,0.5,1.9c0,0.6-0.1,1.2-0.4,1.8
					c-0.3,0.6-0.8,1-1.5,1.4S64.6,14,63.5,14H61.4z M64.9,11.6c0.3-0.3,0.5-0.8,0.5-1.3c0-0.6-0.2-1-0.5-1.3
					c-0.3-0.3-0.8-0.5-1.5-0.5h-2.1v3.7h2.1C64.1,12.1,64.6,11.9,64.9,11.6z M78.3,16.6h-4.9L72.6,19h-2.7l4.4-12.6h3L81.8,19h-2.7
					L78.3,16.6z M77.7,14.7l-1.8-5.2l-1.8,5.2H77.7z M95.3,19h-2.5l-5.7-8.7V19h-2.5V6.4h2.5l5.7,8.7V6.4h2.5V19z M109,6.4l-4.2,8.2
					V19h-2.5v-4.3l-4.2-8.2h2.8l2.7,5.9l2.7-5.9H109z"/>
			</g>
			
				<ellipse id="Oval_1_" opacity="0.1689" fill="none" stroke="#979797" stroke-width="4" enable-background="new    " cx="782.6" cy="146.2" rx="59.4" ry="59.2"/>
			<rect id="Rectangle-3" x="702.6" y="162.1" fill="#FFFFFF" width="163.9" height="22.9"/>
			<path id="_x25_-REDUCTION" fill="#808080" d="M720.5,167.6c0.5,0.5,0.8,1.2,0.8,2.1c0,0.9-0.3,1.6-0.8,2.1
				c-0.5,0.5-1.2,0.8-2.1,0.8c-0.8,0-1.5-0.3-2.1-0.8c-0.5-0.5-0.8-1.2-0.8-2.1c0-0.9,0.3-1.6,0.8-2.1c0.5-0.5,1.2-0.8,2.1-0.8
				C719.3,166.8,720,167.1,720.5,167.6z M726.6,167l-7.1,12.6h-2.4l7.1-12.6H726.6z M717.7,170.7c0.2,0.2,0.4,0.3,0.7,0.3
				c0.3,0,0.6-0.1,0.8-0.3s0.3-0.6,0.3-1c0-0.9-0.3-1.4-1-1.4c-0.3,0-0.6,0.1-0.7,0.3c-0.2,0.2-0.3,0.6-0.3,1
				S717.5,170.5,717.7,170.7z M727.3,174.8c0.5,0.5,0.8,1.2,0.8,2.1c0,0.9-0.3,1.6-0.8,2.1c-0.5,0.5-1.2,0.8-2.1,0.8
				c-0.8,0-1.5-0.3-2.1-0.8c-0.5-0.5-0.8-1.2-0.8-2.1c0-0.9,0.3-1.6,0.8-2.1c0.5-0.5,1.2-0.8,2.1-0.8
				C726.1,174,726.7,174.2,727.3,174.8z M725.2,178.3c0.3,0,0.6-0.1,0.7-0.3c0.2-0.2,0.3-0.6,0.3-1c0-0.5-0.1-0.8-0.3-1
				s-0.4-0.3-0.7-0.3c-0.3,0-0.6,0.1-0.7,0.3s-0.3,0.6-0.3,1C724.2,177.8,724.5,178.3,725.2,178.3z M743.8,179.6l-3-5H740v5h-2.5
				V167h4.6c1,0,1.8,0.2,2.5,0.5c0.7,0.3,1.2,0.8,1.5,1.4c0.3,0.6,0.5,1.2,0.5,1.9c0,0.8-0.2,1.5-0.7,2.2s-1.2,1.2-2.3,1.4l3.2,5.2
				H743.8z M740,172.6h2.1c0.6,0,1.1-0.2,1.5-0.5c0.3-0.3,0.5-0.8,0.5-1.3c0-0.6-0.2-1-0.5-1.3c-0.3-0.3-0.8-0.5-1.5-0.5H740V172.6z
				 M752.6,168.9v3.3h4.2v1.9h-4.2v3.5h4.7v1.9h-7.3V167h7.3v1.9H752.6z M771.1,176.6c-0.6,0.9-1.4,1.7-2.4,2.2
				c-1,0.5-2.2,0.8-3.5,0.8h-4.3V167h4.3c1.3,0,2.5,0.3,3.5,0.8c1,0.5,1.8,1.3,2.4,2.2c0.6,0.9,0.8,2.1,0.8,3.3
				S771.6,175.7,771.1,176.6z M768.3,176.5c0.7-0.8,1.1-1.8,1.1-3.2c0-1.3-0.4-2.4-1.1-3.2s-1.8-1.2-3.1-1.2h-1.7v8.7h1.7
				C766.5,177.7,767.5,177.3,768.3,176.5z M777.4,167v7.7c0,0.9,0.2,1.5,0.7,2c0.4,0.4,1.1,0.7,1.9,0.7s1.4-0.2,1.9-0.7
				c0.4-0.4,0.7-1.1,0.7-2V167h2.5v7.7c0,1.1-0.2,2-0.7,2.7s-1.1,1.3-1.9,1.7c-0.8,0.4-1.6,0.6-2.5,0.6c-0.9,0-1.7-0.2-2.5-0.6
				c-0.8-0.4-1.4-0.9-1.8-1.7c-0.5-0.7-0.7-1.6-0.7-2.7V167H777.4z M798,167.9c1.1,0.7,1.8,1.7,2.3,2.9h-3c-0.6-1.1-1.5-1.7-2.9-1.7
				c-0.8,0-1.4,0.2-2,0.5c-0.6,0.3-1,0.8-1.4,1.4c-0.3,0.6-0.5,1.3-0.5,2.2c0,0.8,0.2,1.5,0.5,2.2s0.8,1.1,1.4,1.4
				c0.6,0.3,1.3,0.5,2,0.5c1.3,0,2.3-0.6,2.9-1.7h3c-0.5,1.3-1.2,2.2-2.3,2.9s-2.3,1-3.6,1c-1.2,0-2.3-0.3-3.2-0.8
				c-1-0.5-1.8-1.3-2.3-2.3c-0.6-1-0.9-2.1-0.9-3.3c0-1.2,0.3-2.3,0.9-3.3c0.6-1,1.3-1.7,2.3-2.3c1-0.6,2.1-0.8,3.2-0.8
				C795.7,166.8,796.9,167.2,798,167.9z M812,167v1.9h-3.4v10.6h-2.5V169h-3.4V167H812z M817.5,167v12.6h-2.5V167H817.5z
				 M830.1,167.7c1,0.6,1.8,1.3,2.3,2.3c0.6,1,0.9,2.1,0.9,3.3c0,1.2-0.3,2.3-0.9,3.3c-0.6,1-1.3,1.7-2.3,2.3s-2.1,0.8-3.2,0.8
				s-2.3-0.3-3.2-0.8s-1.8-1.3-2.3-2.3c-0.6-1-0.9-2.1-0.9-3.3c0-1.2,0.3-2.3,0.9-3.3c0.6-1,1.3-1.7,2.3-2.3s2.1-0.8,3.2-0.8
				C828.1,166.8,829.1,167.1,830.1,167.7z M824.9,169.7c-0.6,0.3-1,0.8-1.4,1.4c-0.3,0.6-0.5,1.3-0.5,2.2c0,0.8,0.2,1.5,0.5,2.2
				c0.3,0.6,0.8,1.1,1.4,1.4c0.6,0.3,1.3,0.5,2,0.5s1.4-0.2,2-0.5c0.6-0.3,1-0.8,1.4-1.4c0.3-0.6,0.5-1.3,0.5-2.2s-0.2-1.6-0.5-2.2
				c-0.3-0.6-0.8-1.1-1.4-1.4c-0.6-0.3-1.2-0.5-2-0.5S825.5,169.3,824.9,169.7z M847,179.6h-2.5l-5.7-8.7v8.7h-2.5V167h2.5l5.7,8.7
				V167h2.5V179.6z"/>
			
				<ellipse id="Oval_2_" opacity="0.1689" fill="none" stroke="#979797" stroke-width="4" enable-background="new    " cx="788.3" cy="344.1" rx="59.4" ry="59.2"/>
			<path id="_x25_-SHARE" fill="#808080" d="M751.7,364.1c0.5,0.5,0.8,1.2,0.8,2.1c0,0.9-0.3,1.6-0.8,2.1c-0.5,0.5-1.2,0.8-2.1,0.8
				c-0.8,0-1.5-0.3-2.1-0.8c-0.5-0.5-0.8-1.2-0.8-2.1c0-0.9,0.3-1.6,0.8-2.1s1.2-0.8,2.1-0.8C750.5,363.4,751.2,363.6,751.7,364.1z
				 M757.8,363.5l-7.1,12.6h-2.4l7.1-12.6H757.8z M748.9,367.3c0.2,0.2,0.4,0.3,0.7,0.3c0.3,0,0.6-0.1,0.8-0.3
				c0.2-0.2,0.3-0.6,0.3-1c0-0.9-0.3-1.4-1-1.4c-0.3,0-0.6,0.1-0.7,0.3c-0.2,0.2-0.3,0.6-0.3,1C748.7,366.7,748.8,367.1,748.9,367.3
				z M758.5,371.3c0.5,0.5,0.8,1.2,0.8,2.1c0,0.9-0.3,1.6-0.8,2.1s-1.2,0.8-2.1,0.8s-1.5-0.3-2.1-0.8s-0.8-1.2-0.8-2.1
				c0-0.9,0.3-1.6,0.8-2.1c0.5-0.5,1.2-0.8,2.1-0.8C757.3,370.5,758,370.8,758.5,371.3z M756.5,374.8c0.3,0,0.6-0.1,0.7-0.3
				c0.2-0.2,0.3-0.6,0.3-1c0-0.5-0.1-0.8-0.3-1c-0.2-0.2-0.4-0.3-0.7-0.3c-0.3,0-0.6,0.1-0.7,0.3s-0.3,0.6-0.3,1
				C755.4,374.3,755.8,374.8,756.5,374.8z M776.9,374.4c-0.4,0.6-0.9,1-1.6,1.4c-0.7,0.3-1.5,0.5-2.4,0.5c-1.4,0-2.5-0.3-3.3-1
				c-0.8-0.6-1.3-1.5-1.3-2.7h2.7c0,0.5,0.2,1,0.5,1.2s0.8,0.4,1.3,0.4c0.6,0,1-0.1,1.4-0.5c0.3-0.3,0.5-0.7,0.5-1.2
				c0-0.4-0.1-0.7-0.4-0.9s-0.5-0.4-0.9-0.6c-0.3-0.1-0.8-0.3-1.4-0.4c-0.8-0.2-1.5-0.4-2-0.6c-0.5-0.2-0.9-0.6-1.3-1
				c-0.4-0.5-0.5-1.1-0.5-1.9c0-0.8,0.2-1.4,0.6-2s0.9-1,1.6-1.3c0.7-0.3,1.4-0.5,2.3-0.5c1.3,0,2.4,0.3,3.2,0.9
				c0.8,0.6,1.2,1.5,1.3,2.7h-2.8c0-0.5-0.2-0.9-0.5-1.1s-0.7-0.4-1.2-0.4c-0.5,0-0.9,0.1-1.3,0.4c-0.3,0.3-0.5,0.7-0.5,1.2
				c0,0.4,0.1,0.7,0.4,1s0.5,0.4,0.9,0.6c0.3,0.1,0.8,0.3,1.4,0.4c0.8,0.2,1.5,0.4,2,0.6c0.5,0.2,0.9,0.6,1.3,1
				c0.4,0.5,0.5,1.1,0.5,1.9C777.5,373.2,777.3,373.8,776.9,374.4z M791.3,363.6v12.6h-2.5v-5.4h-5.4v5.4h-2.5v-12.6h2.5v5.2h5.4
				v-5.2H791.3z M802.5,373.8h-4.9l-0.8,2.4h-2.7l4.4-12.6h3l4.4,12.6h-2.7L802.5,373.8z M801.8,371.8l-1.8-5.2l-1.8,5.2H801.8z
				 M815.1,376.1l-3-5h-0.8v5h-2.5v-12.6h4.6c1,0,1.8,0.2,2.5,0.5c0.7,0.3,1.2,0.8,1.5,1.4c0.3,0.6,0.5,1.2,0.5,1.9
				c0,0.8-0.2,1.5-0.7,2.2c-0.5,0.7-1.2,1.2-2.3,1.4l3.2,5.2H815.1z M811.2,369.2h2.1c0.6,0,1.1-0.2,1.5-0.5
				c0.3-0.3,0.5-0.8,0.5-1.3c0-0.6-0.2-1-0.5-1.3c-0.3-0.3-0.8-0.5-1.5-0.5h-2.1V369.2z M823.9,365.5v3.3h4.2v1.9h-4.2v3.5h4.7v1.9
				h-7.3v-12.6h7.3v1.9H823.9z"/>
			
				<ellipse id="Oval_3_" opacity="0.1689" fill="none" stroke="#979797" stroke-width="4" enable-background="new    " cx="452" cy="344.1" rx="59.4" ry="59.2"/>
			<rect id="Rectangle-3_1_" x="354.6" y="359" fill="#FFFFFF" width="190" height="29.9"/>
			<path id="REVENUE-SHARE" fill="#808080" d="M381.4,379.8l-3-5h-0.8v5H375v-12.6h4.6c1,0,1.8,0.2,2.5,0.5c0.7,0.3,1.2,0.8,1.5,1.4
				c0.3,0.6,0.5,1.2,0.5,1.9c0,0.8-0.2,1.5-0.7,2.2c-0.5,0.7-1.2,1.2-2.3,1.4l3.2,5.2H381.4z M377.6,372.9h2.1
				c0.6,0,1.1-0.2,1.5-0.5c0.3-0.3,0.5-0.8,0.5-1.3c0-0.6-0.2-1-0.5-1.3c-0.3-0.3-0.8-0.5-1.5-0.5h-2.1V372.9z M390.2,369.2v3.3h4.2
				v1.9h-4.2v3.5h4.7v1.9h-7.3v-12.6h7.3v1.9H390.2z M400.1,367.3l3.4,10l3.4-10h2.7l-4.6,12.6H402l-4.6-12.6H400.1z M414.8,369.2
				v3.3h4.2v1.9h-4.2v3.5h4.7v1.9h-7.3v-12.6h7.3v1.9H414.8z M433.8,379.8h-2.5l-5.7-8.7v8.7h-2.5v-12.6h2.5l5.7,8.7v-8.7h2.5V379.8
				z M440,367.3v7.7c0,0.9,0.2,1.5,0.7,2c0.4,0.4,1.1,0.7,1.9,0.7s1.4-0.2,1.9-0.7c0.4-0.4,0.7-1.1,0.7-2v-7.7h2.5v7.7
				c0,1.1-0.2,2-0.7,2.7c-0.5,0.7-1.1,1.3-1.9,1.7c-0.8,0.4-1.6,0.6-2.5,0.6c-0.9,0-1.7-0.2-2.5-0.6c-0.8-0.4-1.4-0.9-1.8-1.7
				c-0.5-0.7-0.7-1.6-0.7-2.7v-7.7H440z M453.8,369.2v3.3h4.2v1.9h-4.2v3.5h4.7v1.9h-7.3v-12.6h7.3v1.9H453.8z M476.7,378
				c-0.4,0.6-0.9,1-1.6,1.4c-0.7,0.3-1.5,0.5-2.4,0.5c-1.4,0-2.5-0.3-3.3-1s-1.3-1.5-1.3-2.7h2.7c0,0.5,0.2,1,0.5,1.2
				c0.3,0.3,0.8,0.4,1.3,0.4c0.6,0,1-0.1,1.4-0.5c0.3-0.3,0.5-0.7,0.5-1.2c0-0.4-0.1-0.7-0.4-0.9c-0.2-0.2-0.5-0.4-0.9-0.6
				c-0.3-0.1-0.8-0.3-1.4-0.4c-0.8-0.2-1.5-0.4-2-0.6s-0.9-0.6-1.3-1c-0.4-0.5-0.5-1.1-0.5-1.9c0-0.8,0.2-1.4,0.6-2
				c0.4-0.6,0.9-1,1.6-1.3s1.4-0.5,2.3-0.5c1.3,0,2.4,0.3,3.1,0.9c0.8,0.6,1.2,1.5,1.3,2.7h-2.8c0-0.5-0.2-0.9-0.5-1.1
				c-0.3-0.3-0.7-0.4-1.2-0.4c-0.5,0-0.9,0.1-1.3,0.4c-0.3,0.3-0.5,0.7-0.5,1.2c0,0.4,0.1,0.7,0.4,1s0.5,0.4,0.9,0.6
				c0.3,0.1,0.8,0.3,1.4,0.4c0.8,0.2,1.5,0.4,2,0.6s0.9,0.6,1.3,1s0.5,1.1,0.5,1.9C477.2,376.8,477,377.5,476.7,378z M491.1,367.3
				v12.6h-2.5v-5.4h-5.4v5.4h-2.5v-12.6h2.5v5.2h5.4v-5.2H491.1z M502.2,377.5h-4.9l-0.8,2.4h-2.7l4.4-12.6h3l4.4,12.6H503
				L502.2,377.5z M501.6,375.5l-1.8-5.2l-1.8,5.2H501.6z M514.8,379.8l-3-5H511v5h-2.5v-12.6h4.6c1,0,1.8,0.2,2.5,0.5
				c0.7,0.3,1.2,0.8,1.5,1.4c0.3,0.6,0.5,1.2,0.5,1.9c0,0.8-0.2,1.5-0.7,2.2c-0.5,0.7-1.2,1.2-2.3,1.4l3.2,5.2H514.8z M511,372.9
				h2.1c0.6,0,1.1-0.2,1.5-0.5c0.3-0.3,0.5-0.8,0.5-1.3c0-0.6-0.2-1-0.5-1.3c-0.3-0.3-0.8-0.5-1.5-0.5H511V372.9z M523.6,369.2v3.3
				h4.2v1.9h-4.2v3.5h4.7v1.9h-7.3v-12.6h7.3v1.9H523.6z"/>
			<path id="Line-3" fill="#EF4E3F" stroke="#EF4E3F" stroke-width="2" stroke-linecap="square" d="M192,311.1l180.7-124.7"/>
			<path id="Line-3-decoration-1" fill="#EF4E3F" stroke="#EF4E3F" stroke-width="2" stroke-linecap="square" d="M382.2,179.1
				l-10.4,4.2l3.6,4.8L382.2,179.1z"/>
			<path id="Line_3_" fill="#EF4E3F" stroke="#EF4E3F" stroke-width="2" stroke-linecap="square" d="M966.4,539.3H534.8"/>
			<path id="Line-decoration-1_3_" fill="#EF4E3F" stroke="#EF4E3F" stroke-width="2" stroke-linecap="square" d="M966.4,539.3
				l-10.8-3v6L966.4,539.3z"/>
			<path id="Line-2" fill="none" stroke="#EF4E3F" stroke-width="2" stroke-linecap="square" d="M966.9,539.8V140.1"/>
			<path id="Line-4" fill="none" stroke="#EF4E3F" stroke-width="2" stroke-linecap="square" d="M967.4,139.5h-48.5"/>
			<path id="Line-3_1_" fill="#EF4E3F" stroke="#EF4E3F" stroke-width="2" stroke-linecap="square" d="M191,364.7l180.7,124.7"/>
			<path id="Line-3-decoration-1_1_" fill="#EF4E3F" stroke="#EF4E3F" stroke-width="2" stroke-linecap="square" d="M371.7,489.3
				l-7.2-8.6l-3.4,4.9L371.7,489.3z"/>
			<path id="Shape" fill="#70BBD7" d="M76.5,336.1c-0.1,3.3,1.1,6,3.4,7.3c1,0.6,2.1,0.9,3.2,0.9c1.1,0,2.2-0.3,3.2-0.9
				c2.3-1.4,3.5-4,3.4-7.3c-0.2-4.1-3.5-6.1-6.6-6.2c0,0-0.1,0-0.1,0C80,330,76.7,332,76.5,336.1z M79.4,336.2
				c0.1-2.4,2-3.3,3.7-3.4c1.7,0.1,3.6,1,3.7,3.4c0.1,2.2-0.6,3.9-2,4.7c-1,0.6-2.3,0.6-3.4,0C80.1,340.1,79.3,338.4,79.4,336.2z
				 M99.7,336.1c-0.1,3.3,1.1,6,3.4,7.3c1,0.6,2.1,0.9,3.2,0.9c1.1,0,2.2-0.3,3.2-0.9c2.3-1.4,3.5-4,3.4-7.3
				c-0.2-4.1-3.5-6.1-6.6-6.2c0,0-0.1,0-0.1,0C103.2,330,99.9,332,99.7,336.1z M102.6,336.2c0.1-2.4,2-3.3,3.7-3.4
				c1.7,0.1,3.6,1,3.7,3.4c0.1,2.2-0.6,3.9-2,4.7c-1,0.6-2.3,0.6-3.4,0C103.3,340.1,102.5,338.4,102.6,336.2z M91.5,316
				c1,0.6,2.1,0.9,3.2,0.9c1.1,0,2.2-0.3,3.2-0.9c2.3-1.4,3.5-4,3.4-7.3c-0.2-4.1-3.5-6.1-6.6-6.2c0,0-0.1,0-0.1,0
				c-3,0.1-6.4,2.1-6.6,6.2C88,311.9,89.2,314.6,91.5,316z M91,308.7c0.1-2.4,2-3.3,3.7-3.4c1.7,0.1,3.6,1,3.7,3.4
				c0.1,2.2-0.6,3.9-2,4.7c-1,0.6-2.3,0.6-3.4,0C91.7,312.7,90.9,310.9,91,308.7z M56.7,343.4c1,0.6,2.1,0.9,3.2,0.9
				c1.1,0,2.2-0.3,3.2-0.9c2.3-1.4,3.5-4,3.4-7.3c-0.2-4.1-3.5-6.1-6.6-6.2c0,0-0.1,0-0.1,0c-3,0.1-6.4,2.1-6.6,6.2
				C53.2,339.4,54.4,342.1,56.7,343.4z M56.2,336.2c0.1-2.4,2-3.3,3.7-3.4c1.7,0.1,3.6,1,3.7,3.4c0.1,2.2-0.6,3.9-2,4.7
				c-1,0.6-2.3,0.6-3.4,0C56.9,340.1,56.1,338.4,56.2,336.2z M92.3,359.5c0.1,0.8-0.4,1.6-1.2,1.7c-0.1,0-0.2,0-0.3,0
				c-0.7,0-1.3-0.5-1.4-1.2l-1.3-6.9c-0.4-2.4-2.8-3.4-5-3.4s-4.6,1.1-5,3.5l-1,5.2h6.6c0.8,0,1.5,0.7,1.5,1.5s-0.7,1.5-1.5,1.5
				h-8.4c-0.4,0-0.8-0.2-1.1-0.6c-0.3-0.3-0.4-0.8-0.3-1.2l1.3-6.9c0.7-4,4.5-5.8,7.9-5.8s7.2,1.8,7.9,5.8L92.3,359.5z M94.7,322.5
				c-2.2,0-4.6,1.1-5,3.5c-0.1,0.8-0.9,1.3-1.7,1.2c-0.8-0.1-1.3-0.9-1.2-1.7c0.7-4,4.5-5.8,7.9-5.8c3.4,0,7.2,1.8,7.9,5.8
				c0.1,0.8-0.4,1.6-1.2,1.7c-0.1,0-0.2,0-0.3,0c-0.7,0-1.3-0.5-1.4-1.2C99.3,323.5,96.9,322.5,94.7,322.5z M114.3,361.2
				c-0.1,0-0.2,0-0.3,0c-0.7,0-1.3-0.5-1.4-1.2l-1.3-6.9c-0.4-2.4-2.8-3.4-5-3.4c-2.2,0-4.6,1.1-5,3.5l-1,5.2h6.6
				c0.8,0,1.5,0.7,1.5,1.5s-0.7,1.5-1.5,1.5h-8.4c-0.4,0-0.8-0.2-1.1-0.6c-0.3-0.3-0.4-0.8-0.3-1.2l1.3-6.9c0.7-4,4.5-5.8,7.9-5.8
				c3.4,0,7.2,1.8,7.9,5.8l1.3,6.9C115.7,360.3,115.1,361.1,114.3,361.2z M68.3,316c1,0.6,2.1,0.9,3.2,0.9c1.1,0,2.2-0.3,3.2-0.9
				c2.3-1.4,3.5-4,3.4-7.3c-0.2-4.1-3.5-6.1-6.6-6.2c0,0-0.1,0-0.1,0c-3,0.1-6.4,2.1-6.6,6.2C64.8,311.9,66,314.6,68.3,316z
				 M67.8,308.7c0.1-2.4,2-3.3,3.7-3.4c1.7,0.1,3.6,1,3.7,3.4c0.1,2.2-0.6,3.9-2,4.7c-1,0.6-2.3,0.6-3.4,0
				C68.5,312.7,67.7,310.9,67.8,308.7z M69.1,359.5c0.1,0.8-0.4,1.6-1.2,1.7c-0.1,0-0.2,0-0.3,0c-0.7,0-1.3-0.5-1.4-1.2l-1.3-6.9
				c-0.4-2.4-2.8-3.4-5-3.4c-2.2,0-4.6,1.1-5,3.5l-1,5.2h7.1c0.8,0,1.5,0.7,1.5,1.5s-0.7,1.5-1.5,1.5h-8.8c-0.4,0-0.8-0.2-1.1-0.6
				c-0.3-0.3-0.4-0.8-0.3-1.2l1.3-6.9c0.7-4,4.5-5.8,7.9-5.8c3.4,0,7.2,1.8,7.9,5.8L69.1,359.5z M71.5,322.5c-2.2,0-4.6,1.1-5,3.5
				c-0.1,0.8-0.9,1.3-1.7,1.2c-0.8-0.1-1.3-0.9-1.2-1.7c0.7-4,4.5-5.8,7.9-5.8s7.2,1.8,7.9,5.8c0.1,0.8-0.4,1.6-1.2,1.7
				c-0.1,0-0.2,0-0.3,0c-0.7,0-1.3-0.5-1.4-1.2C76.1,323.5,73.7,322.5,71.5,322.5z"/>
			
				<ellipse id="Oval_4_" opacity="0.1689" fill="none" stroke="#979797" stroke-width="4" enable-background="new    " cx="451.8" cy="539" rx="59.3" ry="58.8"/>
			<path id="EQUITY" fill="#808080" d="M421,560.6v3.3h4.2v1.9H421v3.5h4.7v1.9h-7.3v-12.6h7.3v1.9H421z M438.5,573.4l-1.9-2.3
				c-0.6,0.1-1.1,0.2-1.6,0.2c-1.2,0-2.3-0.3-3.2-0.8s-1.8-1.3-2.3-2.3c-0.6-1-0.9-2.1-0.9-3.3c0-1.2,0.3-2.3,0.9-3.3
				c0.6-1,1.3-1.7,2.3-2.3s2.1-0.8,3.2-0.8c1.2,0,2.3,0.3,3.2,0.8c1,0.6,1.8,1.3,2.3,2.3c0.6,1,0.9,2.1,0.9,3.3c0,1.1-0.2,2.1-0.7,3
				s-1.1,1.7-1.9,2.2l2.8,3.2H438.5z M431.6,567.1c0.3,0.6,0.8,1.1,1.4,1.4c0.6,0.3,1.3,0.5,2,0.5s1.4-0.2,2-0.5
				c0.6-0.3,1-0.8,1.3-1.4c0.3-0.6,0.5-1.3,0.5-2.2s-0.2-1.6-0.5-2.2c-0.3-0.6-0.8-1.1-1.3-1.4c-0.6-0.3-1.2-0.5-2-0.5
				s-1.4,0.2-2,0.5s-1,0.8-1.4,1.4c-0.3,0.6-0.5,1.3-0.5,2.2C431.1,565.7,431.3,566.5,431.6,567.1z M447,558.7v7.7
				c0,0.9,0.2,1.5,0.7,2c0.4,0.4,1.1,0.7,1.9,0.7c0.8,0,1.4-0.2,1.9-0.7c0.4-0.4,0.7-1.1,0.7-2v-7.7h2.5v7.7c0,1.1-0.2,2-0.7,2.7
				s-1.1,1.3-1.9,1.7c-0.8,0.4-1.6,0.6-2.5,0.6c-0.9,0-1.7-0.2-2.5-0.6c-0.8-0.4-1.4-0.9-1.8-1.7c-0.5-0.7-0.7-1.6-0.7-2.7v-7.7H447
				z M460.7,558.7v12.6h-2.5v-12.6H460.7z M473,558.7v1.9h-3.4v10.6h-2.5v-10.6h-3.4v-1.9H473z M485.9,558.7l-4.2,8.2v4.3h-2.5v-4.3
				l-4.2-8.2h2.8l2.7,5.9l2.7-5.9H485.9z"/>
			
				<ellipse id="Oval_5_" opacity="0.1689" fill="none" stroke="#979797" stroke-width="4" enable-background="new    " cx="453" cy="145.8" rx="59.3" ry="58.8"/>
			<rect id="Rectangle-3_2_" x="426.8" y="167.2" fill="#FFFFFF" width="59.6" height="24.6"/>
			<path id="FEES" fill="#808080" d="M438.2,174.5v1.9H433v3.3h4v1.9h-4v5.4h-2.5v-12.6H438.2z M443.8,176.4v3.3h4.2v1.9h-4.2v3.5
				h4.7v1.9h-7.3v-12.6h7.3v1.9H443.8z M454.6,176.4v3.3h4.2v1.9h-4.2v3.5h4.7v1.9H452v-12.6h7.3v1.9H454.6z M471.1,185.3
				c-0.4,0.6-0.9,1-1.6,1.4c-0.7,0.3-1.5,0.5-2.4,0.5c-1.4,0-2.5-0.3-3.3-1s-1.3-1.5-1.3-2.7h2.7c0,0.5,0.2,1,0.5,1.2
				c0.3,0.3,0.8,0.4,1.3,0.4c0.6,0,1-0.2,1.4-0.5s0.5-0.7,0.5-1.2c0-0.4-0.1-0.7-0.4-0.9c-0.2-0.2-0.5-0.4-0.9-0.6
				c-0.3-0.1-0.8-0.3-1.4-0.4c-0.8-0.2-1.5-0.4-2-0.6c-0.5-0.2-0.9-0.6-1.3-1c-0.4-0.5-0.5-1.1-0.5-1.9c0-0.8,0.2-1.4,0.6-2
				s0.9-1,1.6-1.3c0.7-0.3,1.4-0.5,2.3-0.5c1.3,0,2.4,0.3,3.1,0.9c0.8,0.6,1.2,1.5,1.3,2.7h-2.8c0-0.5-0.2-0.9-0.5-1.1
				c-0.3-0.3-0.7-0.4-1.2-0.4c-0.5,0-0.9,0.1-1.3,0.4c-0.3,0.3-0.5,0.7-0.5,1.2c0,0.4,0.1,0.7,0.4,1c0.2,0.2,0.5,0.4,0.9,0.6
				c0.3,0.1,0.8,0.3,1.4,0.4c0.8,0.2,1.5,0.4,2,0.6c0.5,0.2,0.9,0.6,1.3,1s0.5,1.1,0.5,1.9C471.7,184.1,471.5,184.7,471.1,185.3z"/>
			<path id="Shape_1_" fill="#70BBD7" d="M454.6,145.2H452c-0.9,0-1.7-0.8-1.7-1.8c0-1,0.8-1.8,1.7-1.8h4.6c0.6,0,1.1-0.5,1.1-1.2
				s-0.5-1.2-1.1-1.2h-2.2v-1.7c0-0.7-0.5-1.2-1.1-1.2s-1.1,0.5-1.1,1.2v1.7H452c-2.2,0-4,1.9-4,4.2s1.8,4.2,4,4.2h2.6
				c0.9,0,1.7,0.8,1.7,1.8s-0.8,1.8-1.7,1.8h-4.7c-0.6,0-1.1,0.5-1.1,1.2s0.5,1.2,1.1,1.2h2.2v1.7c0,0.7,0.5,1.2,1.1,1.2
				s1.1-0.5,1.1-1.2v-1.7h0.2c0,0,0,0,0,0c2.2,0,3.9-1.9,3.9-4.2C458.6,147.1,456.8,145.2,454.6,145.2z"/>
			<path id="Shape_2_" fill="#70BBD7" d="M470.5,142.7c-1.2-2.8-2.8-5.5-4.9-8c-2.5-3.1-5-5.1-6.3-6l4.8-9c0.2-0.4,0.2-1-0.2-1.4
				c-1.2-1.2-2.6-1.8-4-1.8c-1.3,0-2.6,0.5-3.7,1c-0.8,0.4-1.6,0.7-2.3,0.7c-0.2,0-0.4,0-0.5-0.1c-2.2-0.8-4-1.3-5.6-1.3
				c-2.1,0-3.9,0.9-5.7,2.7c-0.4,0.4-0.4,1-0.1,1.4l5.2,7.9c-1.3,1-3.7,3-6.2,6c-2.1,2.5-3.7,5.2-4.9,8c-1.5,3.5-2.2,7.1-2.2,10.8
				c0,4.9,3.9,8.9,8.8,8.9H464c4.8,0,8.8-4,8.8-8.9C472.7,149.8,472,146.1,470.5,142.7z M444.4,120.3c1.1-1,2.1-1.4,3.4-1.4
				c1.3,0,2.8,0.5,4.8,1.2c0.4,0.2,0.9,0.2,1.3,0.2c1.1,0,2.2-0.4,3.2-0.9c1-0.4,1.9-0.8,2.8-0.8c0.4,0,1,0.1,1.8,0.6l-4.5,8.5h-7.9
				L444.4,120.3z M464,160.1h-21.4c-3.6,0-6.5-3-6.5-6.6c0-6.1,2.2-11.9,6.6-17.2c2.7-3.4,5.5-5.5,6.4-6.1h8.5
				c0.9,0.6,3.6,2.7,6.4,6.1c4.4,5.3,6.6,11.1,6.6,17.2C470.5,157.1,467.6,160.1,464,160.1z"/>
			<path id="Shape_3_" fill="#70BBD7" d="M471.9,521.8h-0.5c-0.5-2.7-3.3-7.4-4.5-9.4c0.6-0.4,0.9-1,0.9-1.8c0-1.2-1-2.2-2.2-2.2
				c-1.2,0-2.2,1-2.2,2.2c0,0.7,0.4,1.4,0.9,1.8c-1.2,2-3.9,6.7-4.5,9.4h-0.5c-0.5,0-0.8,0.4-0.8,0.8c0,3.9,3.2,7,7.1,7
				s7.1-3.2,7.1-7C472.7,522.2,472.4,521.8,471.9,521.8z M465.7,510.1c0.3,0,0.5,0.2,0.5,0.5s-0.2,0.5-0.5,0.5
				c-0.3,0-0.5-0.2-0.5-0.5S465.4,510.1,465.7,510.1z M465.7,513.5c1.4,2.3,3.5,6.2,4,8.3h-8.1C462.1,519.8,464,516.2,465.7,513.5z
				 M465.7,528c-2.7,0-5-2-5.4-4.6H471C470.6,526,468.4,528,465.7,528z"/>
			<path id="Shape_4_" fill="#70BBD7" d="M461.3,540.3h-2.2v-2.1c0-0.4-0.4-0.8-0.8-0.8h-2.1v-22.6c0.6-0.5,0.9-1.2,0.9-2l3.6-0.7
				c0.5-0.1,0.7-0.5,0.6-1c-0.1-0.4-0.5-0.7-1-0.6l-3.6,0.7c-0.5-1-1.6-1.6-2.8-1.6c-1.7,0-3.1,1.3-3.2,2.9l-8.9,1.8
				c-0.4-0.5-1.1-0.9-1.8-0.9c-1.2,0-2.2,1-2.2,2.1c0,0.7,0.4,1.4,1,1.8c-1.2,2-4.1,6.7-4.6,9.4h-0.6c-0.5,0-0.8,0.4-0.8,0.8
				c0,3.9,3.3,7,7.3,7s7.3-3.1,7.3-7c0-0.4-0.4-0.8-0.8-0.8h-0.6c-0.5-2.7-3.4-7.4-4.6-9.4c0.5-0.3,0.9-0.9,0.9-1.5l8.8-1.8
				c0.2,0.3,0.4,0.6,0.6,0.8v22.6h-2.1c-0.5,0-0.8,0.4-0.8,0.8v2.1h-2.2c-0.5,0-0.8,0.4-0.8,0.8v3c0,0.4,0.4,0.8,0.8,0.8h14.9
				c0.5,0,0.8-0.4,0.8-0.8v-3C462.1,540.7,461.8,540.3,461.3,540.3z M439.9,515.1c0.3,0,0.5,0.2,0.5,0.5s-0.2,0.5-0.5,0.5
				s-0.5-0.2-0.5-0.5S439.6,515.1,439.9,515.1z M439.9,533c-2.8,0-5.1-2-5.5-4.6h11.1C445.1,531,442.7,533,439.9,533z M444.1,526.8
				h-8.3c0.5-2,2.5-5.6,4.2-8.3C441.4,520.8,443.6,524.7,444.1,526.8z M453.8,511.3c0.8,0,1.5,0.7,1.5,1.4c0,0.8-0.7,1.4-1.5,1.4
				c-0.8,0-1.5-0.7-1.5-1.4C452.3,511.9,453,511.3,453.8,511.3z M454.4,515.7v21.7h-1.1v-21.7c0.2,0,0.4,0,0.6,0
				S454.2,515.8,454.4,515.7z M450.3,539.1h7.1v1.2h-7.1V539.1L450.3,539.1z M460.4,543.4h-13.2v-1.4h13.2V543.4z"/>
			<path id="Shape_5_" fill="#70BBD7" d="M465.6,512.4c-0.2-0.3-0.8-0.5-1.5-0.4l-0.9,0.1c-0.7,0.1-1.1,0.4-1,0.6
				c0.1,0.3,0.7,0.4,1.3,0.4c0.1,0,0.2,0,0.3,0l0.9-0.1C465.3,513,465.8,512.7,465.6,512.4z"/>
			<path id="Shape_6_" fill="#70BBD7" d="M802.3,141.4c1.4,0,2.5,1.1,2.5,2.6v5.1c0,1.4-1.1,2.6-2.5,2.6s-2.5-1.1-2.5-2.6V144
				C799.8,142.5,800.9,141.4,802.3,141.4z M792.4,136.3c1.4,0,2.5,1.1,2.5,2.6v10.2c0,1.4-1.1,2.6-2.5,2.6c-1.4,0-2.5-1.1-2.5-2.6
				v-10.2C789.9,137.4,791,136.3,792.4,136.3z M782.4,131.2c1.4,0,2.5,1.1,2.5,2.6v15.3c0,1.4-1.1,2.6-2.5,2.6
				c-1.4,0-2.5-1.1-2.5-2.6v-15.3C779.9,132.3,781,131.2,782.4,131.2z M772.4,126.1c1.4,0,2.5,1.1,2.5,2.6v20.4
				c0,1.4-1.1,2.6-2.5,2.6c-1.4,0-2.5-1.1-2.5-2.6v-20.4C770,127.2,771.1,126.1,772.4,126.1z M762.5,121c1.4,0,2.5,1.1,2.5,2.5v25.5
				c0,1.4-1.1,2.6-2.5,2.6c-1.4,0-2.5-1.1-2.5-2.6v-25.5C760,122.1,761.1,121,762.5,121z"/>
			<path id="Shape_7_" fill="#70BBD7" d="M766.4,337c-1.4,0-2.5,1.1-2.5,2.6v5.1c0,1.4,1.1,2.6,2.5,2.6s2.5-1.1,2.5-2.6v-5.1
				C768.9,338.1,767.8,337,766.4,337z M776.4,331.9c-1.4,0-2.5,1.1-2.5,2.6v10.2c0,1.4,1.1,2.6,2.5,2.6c1.4,0,2.5-1.1,2.5-2.6v-10.2
				C778.9,333,777.7,331.9,776.4,331.9z M786.3,326.8c-1.4,0-2.5,1.1-2.5,2.6v15.3c0,1.4,1.1,2.6,2.5,2.6c1.4,0,2.5-1.1,2.5-2.6
				v-15.3C788.8,327.9,787.7,326.8,786.3,326.8z M796.3,321.7c-1.4,0-2.5,1.1-2.5,2.6v20.4c0,1.4,1.1,2.6,2.5,2.6
				c1.4,0,2.5-1.1,2.5-2.6v-20.4C798.8,322.8,797.7,321.7,796.3,321.7z M806.2,316.6c-1.4,0-2.5,1.1-2.5,2.5v25.5
				c0,1.4,1.1,2.6,2.5,2.6c1.4,0,2.5-1.1,2.5-2.6v-25.5C808.7,317.7,807.6,316.6,806.2,316.6z"/>
			<path id="Shape_8_" fill="#70BBD7" d="M450.4,340c0.9,1.2,1.8,2.4,2.9,3.7c-2.6,3-6.4,5.7-13.9,5.7v-5.4c5.9,0,8.3-1.9,10.4-4.6
				C450.1,339.5,450.2,339.8,450.4,340z M456.2,335.9c0.5,0.7,1,1.4,1.6,2.1c1.8-2,4.1-3.4,8.4-3.6l-1.3,3.3c-0.1,0.1,0,0.3,0.1,0.4
				c0.1,0,0.1,0.1,0.2,0.1c0.1,0,0.1,0,0.2-0.1l8.2-6.2c0.1-0.1,0.1-0.2,0.1-0.3c0-0.1,0-0.2-0.1-0.3l-8.2-6.2
				c-0.1-0.1-0.3-0.1-0.4,0c-0.1,0.1-0.2,0.2-0.1,0.4l1.4,3.4c-5.9,0.3-9.3,2.3-11.7,4.7C455.1,334.3,455.7,335.1,456.2,335.9z
				 M465.4,339.1c-0.1,0-0.1-0.1-0.2-0.1c-0.1,0-0.1,0-0.2,0.1c-0.1,0.1-0.2,0.2-0.1,0.4l1.3,3.3c-6.2-0.4-8.2-3.1-10.6-6.5
				c-2.8-3.8-6.2-8.6-16.1-8.6v5.4c7.1,0,9.1,2.8,11.7,6.3c2.7,3.7,6,8.2,15.1,8.7l-1.4,3.4c-0.1,0.1,0,0.3,0.1,0.4
				c0.1,0.1,0.3,0.1,0.4,0l8.2-6.2c0.1-0.1,0.1-0.2,0.1-0.3c0-0.1,0-0.2-0.1-0.3L465.4,339.1z"/>
			<path id="Line-6" fill="none" stroke="#DADADA" stroke-width="2" stroke-linecap="square" d="M451,24h259"/>
			<path id="TANGELO" fill="#808080" d="M543.7,0.4v1.9h-3.4V13h-2.5V2.4h-3.4V0.4H543.7z M555.1,10.6h-4.9l-0.8,2.4h-2.7l4.4-12.6
				h3l4.4,12.6h-2.7L555.1,10.6z M554.4,8.7l-1.8-5.2l-1.8,5.2H554.4z M573,13h-2.5l-5.7-8.7V13h-2.5V0.4h2.5l5.7,8.7V0.4h2.5V13z
				 M587,1.3c1.1,0.7,1.8,1.7,2.3,2.9h-3c-0.6-1.1-1.5-1.7-2.9-1.7c-0.8,0-1.4,0.2-2,0.5c-0.6,0.3-1,0.8-1.4,1.4
				c-0.3,0.6-0.5,1.3-0.5,2.2s0.2,1.5,0.5,2.2c0.3,0.6,0.8,1.1,1.4,1.4c0.6,0.3,1.3,0.5,2,0.5c0.9,0,1.7-0.3,2.3-0.8
				c0.6-0.5,1-1.2,1.1-2.1h-4.2V6.1h6.9V8c-0.1,0.9-0.5,1.7-1,2.5s-1.3,1.4-2.2,1.9c-0.9,0.5-1.9,0.7-2.9,0.7
				c-1.2,0-2.3-0.3-3.2-0.8c-1-0.5-1.8-1.3-2.3-2.3S577,7.9,577,6.7c0-1.2,0.3-2.3,0.9-3.3s1.3-1.7,2.3-2.3s2.1-0.8,3.2-0.8
				C584.7,0.3,586,0.6,587,1.3z M596,2.3v3.3h4.2v1.9H596v3.5h4.7V13h-7.3V0.4h7.3v1.9H596z M607.8,11.1h4V13h-6.6V0.4h2.5V11.1z
				 M624.4,1.1c1,0.6,1.8,1.3,2.3,2.3s0.9,2.1,0.9,3.3c0,1.2-0.3,2.3-0.9,3.3s-1.3,1.7-2.3,2.3s-2.1,0.8-3.2,0.8s-2.3-0.3-3.2-0.8
				s-1.8-1.3-2.3-2.3s-0.9-2.1-0.9-3.3c0-1.2,0.3-2.3,0.9-3.3s1.3-1.7,2.3-2.3s2.1-0.8,3.2-0.8C622.4,0.3,623.4,0.5,624.4,1.1z
				 M619.2,3.1c-0.6,0.3-1,0.8-1.4,1.4c-0.3,0.6-0.5,1.3-0.5,2.2s0.2,1.5,0.5,2.2c0.3,0.6,0.8,1.1,1.4,1.4c0.6,0.3,1.3,0.5,2,0.5
				s1.4-0.2,2-0.5c0.6-0.3,1-0.8,1.4-1.4c0.3-0.6,0.5-1.3,0.5-2.2s-0.2-1.6-0.5-2.2c-0.3-0.6-0.8-1.1-1.4-1.4
				c-0.6-0.3-1.2-0.5-2-0.5S619.7,2.7,619.2,3.1z"/>
		</g>
	</g>
</g>
</svg>
